<?xml version="1.0" encoding="utf-8"?>
<!-- Generator: Adobe Illustrator 22.1.0, SVG Export Plug-In . SVG Version: 6.00 Build 0)  -->
<svg version="1.1" id="Layer_1" xmlns="http://www.w3.org/2000/svg" xmlns:xlink="http://www.w3.org/1999/xlink" x="0px" y="0px"
	 viewBox="0 0 527.2 113.6" style="enable-background:new 0 0 527.2 113.6;" xml:space="preserve">
<style type="text/css">
	.st0{fill:#493B3A;}
</style>
<g>
	<path class="st0" d="M0.9,47.5v-0.3c0-2.1,2.8-3.1,2.8-6.5v-32c0-3.3-2.8-4.4-2.8-6.5V2.1c0-0.9,0.7-1.4,1.7-1.4h16.7
		c1,0,1.7,0.5,1.7,1.4v0.3c0,2.1-3.1,3.1-3.1,6.5v30c0,2.5,1,4.9,3.6,4.9h4.9c6.2,0,7.3-10.2,10.8-10.2h1c1.2,0,1.8,0.8,1.6,1.8
		l-1.8,11.3C37.7,48.2,37,49,35.4,49H2.6C1.6,49,0.9,48.4,0.9,47.5z"/>
	<path class="st0" d="M42.9,47.3c0-2.1,2.8-3.1,2.8-6.5v-32c0-3.3-2.8-4.4-2.8-6.5V2.1c0-0.9,0.7-1.4,1.7-1.4h16.5
		c1,0,1.7,0.5,1.7,1.4v0.3c0,2.1-3.1,3.1-3.1,6.5v32c0,3.3,3.1,4.4,3.1,6.5v0.3c0,0.9-0.7,1.4-1.7,1.4H44.6c-1,0-1.7-0.5-1.7-1.4
		V47.3z"/>
	<path class="st0" d="M115.6,2v0.3c0,2.1-2.5,2.5-4.2,6.5L96.1,45.2C95,47.8,93.4,49,90.6,49c-2.5,0-4-1.2-5-3.5l-17-36.6
		c-1.7-3.7-4.2-4.4-4.2-6.5V2.1c0-0.9,0.7-1.4,1.7-1.4h20.4c1,0,1.7,0.5,1.7,1.4v0.3c0,2.1-4.4,3.2-3.1,6.5l9.6,24.4L104,8.8
		c1.3-3.3-3.1-4.4-3.1-6.5V2.1c0-0.9,0.7-1.4,1.7-1.4h11.3C114.9,0.6,115.6,1.2,115.6,2z"/>
	<path class="st0" d="M117.6,47.3c0-2.1,2.8-3.1,2.8-6.5v-32c0-3.3-2.8-4.4-2.8-6.5V2.1c0-0.9,0.7-1.4,1.7-1.4h16.5
		c1,0,1.7,0.5,1.7,1.4v0.3c0,2.1-3.1,3.1-3.1,6.5v32c0,3.3,3.1,4.4,3.1,6.5v0.3c0,0.9-0.7,1.4-1.7,1.4h-16.5c-1,0-1.7-0.5-1.7-1.4
		V47.3z"/>
	<path class="st0" d="M190.1,2v0.3c0,2.1-3.1,3.1-3.1,6.5v36.6c0,2.3-1.3,3.5-3.5,3.5H179c-1.8,0-2.9-1-4-2.4l-23-30.2v24.5
		c0,3.3,3.3,4.4,3.3,6.5v0.3c0,0.9-0.7,1.4-1.7,1.4h-9.5c-1,0-1.7-0.5-1.7-1.4v-0.3c0-2.1,2.8-3.1,2.8-6.5v-32
		c0-3.3-2.8-4.4-2.8-6.5V2c0-0.9,0.7-1.4,1.7-1.4h11.6c1.8,0,2.8,0.8,4,2.4l20.5,28.5V8.8c0-3.3-3.1-4.4-3.1-6.5V2
		c0-0.9,0.7-1.4,1.7-1.4h9.6C189.4,0.6,190.1,1.2,190.1,2z"/>
	<path class="st0" d="M193,24.8C193,9.1,204.9,0,216,0c11.6,0,20.4,5.1,20.4,12.6c0,3.8-2.5,6.2-6.1,6.2c-9.7,0-11.2-13.4-17.6-13.4
		c-3.9,0-6.1,4.3-6.1,10.1c0,13.3,6.5,24.6,14.6,24.6c1,0,1.5-0.1,2-0.2v-8c0-3.3-3.6-4.4-3.6-6.5v-0.3c0-0.9,0.9-1.4,1.9-1.4
		l16.1,0.1c1,0,1.7,0.5,1.7,1.4v0.3c0,2.1-3.1,3.1-3.1,6.5v7.2c0,2.1-0.5,3.5-3.1,5.6c-2.9,2.3-8,4.9-15,4.9
		C202.8,49.6,193,37.5,193,24.8z"/>
	<path class="st0" d="M255.3,47.3c0-2.1,2.8-3.1,2.8-6.5v-32c0-3.3-2.8-4.4-2.8-6.5V2.1c0-0.9,0.7-1.4,1.7-1.4h16.5
		c1,0,1.7,0.5,1.7,1.4v0.3c0,2.1-3.1,3.1-3.1,6.5v32c0,3.3,3.1,4.4,3.1,6.5v0.3c0,0.9-0.7,1.4-1.7,1.4H257c-1,0-1.7-0.5-1.7-1.4
		V47.3z"/>
	<path class="st0" d="M327.8,2v0.3c0,2.1-3.1,3.1-3.1,6.5v36.6c0,2.3-1.3,3.5-3.5,3.5h-4.4c-1.8,0-2.9-1-4-2.4l-23-30.2v24.5
		c0,3.3,3.3,4.4,3.3,6.5v0.3c0,0.9-0.7,1.4-1.7,1.4h-9.5c-1,0-1.7-0.5-1.7-1.4v-0.3c0-2.1,2.8-3.1,2.8-6.5v-32
		c0-3.3-2.8-4.4-2.8-6.5V2c0-0.9,0.7-1.4,1.7-1.4h11.6c1.8,0,2.8,0.8,4,2.4l20.5,28.5V8.8c0-3.3-3.1-4.4-3.1-6.5V2
		c0-0.9,0.7-1.4,1.7-1.4h9.6C327.1,0.6,327.8,1.2,327.8,2z"/>
	<path class="st0" d="M390.7,2v0.3c0,2.1-2.4,2.5-4.2,6.5l-15.3,36.4c-1.1,2.7-2.7,3.8-5.4,3.8c-2.5,0-3.9-1.2-5-3.5l-17-36.6
		c-1.7-3.7-4.2-4.4-4.2-6.5V2.1c0-0.9,0.7-1.4,1.7-1.4h20.4c1,0,1.7,0.5,1.7,1.4v0.3c0,2.1-4.4,3.2-3.1,6.5l9.6,24.4l9.3-24.4
		c1.3-3.3-3.1-4.4-3.1-6.5V2.1c0-0.9,0.7-1.4,1.7-1.4H389C390,0.6,390.7,1.2,390.7,2z"/>
	<path class="st0" d="M392.8,47.3c0-2.1,2.8-3.1,2.8-6.5v-32c0-3.3-2.8-4.4-2.8-6.5V2.1c0-0.9,0.7-1.4,1.7-1.4H411
		c1,0,1.7,0.5,1.7,1.4v0.3c0,2.1-3.1,3.1-3.1,6.5v32c0,3.3,3.1,4.4,3.1,6.5v0.3c0,0.9-0.7,1.4-1.7,1.4h-16.5c-1,0-1.7-0.5-1.7-1.4
		V47.3z"/>
	<path class="st0" d="M417.6,47.5v-0.3c0-2.1,2.8-3.1,2.8-6.5v-32c0-3.3-2.8-4.4-2.8-6.5V2.1c0-0.9,0.7-1.4,1.7-1.4H451
		c1.6,0,2.3,0.6,2.5,2.3l1.6,9.1c0.2,1.3-0.6,2.1-1.9,2.1h-0.4c-4.2,0-6.2-8.2-11.4-8.2h-3.8c-1.8,0-3.4,0.8-3.4,3.5v12.4h5.8
		c3.9,0,4.4-5.9,6.5-5.9h0.7c0.9,0,1.4,0.7,1.4,1.7v13.3c0,1-0.5,1.7-1.4,1.7h-0.7c-2.1,0-2.5-5.5-6.5-5.5h-5.8v11.2
		c0,2.5,1,5.5,4.5,5.5h4.9c5.2,0,6.2-8.8,10.8-8.8h0.7c1.2,0,1.8,1.3,1.6,2.3l-1.5,9.4c-0.3,1.6-0.9,2.4-2.5,2.4h-33.4
		C418.2,49,417.6,48.4,417.6,47.5z"/>
	<path class="st0" d="M527.2,2v0.3c0,2.1-3,2.5-4.4,6.5l-12.7,36.4c-0.9,2.7-2.7,3.8-5.1,3.8c-2.5,0-4.3-1.2-5-3.5l-7.1-22.1
		l-7.1,21.9c-0.8,2.6-2.4,3.8-4.6,3.8c-2.9,0-3.9-1.2-5-3.5L460.5,8.8c-1.6-3.8-4.6-4.4-4.6-6.5V2.1c0-0.9,0.7-1.4,1.7-1.4h18.7
		c1,0,1.7,0.5,1.7,1.4v0.3c0,2.1-3.9,3.1-2.7,6.5l8.5,23.1l5.9-18.7l-1.4-4.4c-0.9-3.1-4.8-4.4-4.8-6.5V2.1c0-0.9,0.7-1.4,1.7-1.4
		h18.3c1,0,1.7,0.5,1.7,1.4v0.3c0,2.1-4.2,2.6-3.2,6.5l6.1,22.8l7.3-22.8c1.1-3.3-2.9-4.4-2.9-6.5V2.1c0-0.9,0.7-1.4,1.7-1.4h11.2
		C526.5,0.6,527.2,1.2,527.2,2z"/>
	<path class="st0" d="M0,89.1c0-15,9.6-25.2,24-25.2c12.7,0,24.2,10.1,24.2,25.2S37.4,113.6,24,113.6C11.7,113.6,0,104.2,0,89.1z
		 M33.8,100.3c0-10.3-7.7-30.6-14.8-30.6c-3.7,0-5.5,2.5-5.5,7.8c0,12.1,7.6,30.4,14.6,30.4C31.9,107.9,33.8,105.5,33.8,100.3z"/>
	<path class="st0" d="M51.8,111.5v-0.3c0-2.1,2.8-3.1,2.8-6.5v-32c0-3.3-2.8-4.4-2.8-6.5v-0.3c0-0.9,0.7-1.4,1.7-1.4h32.8
		c1.6,0,2.3,0.7,2.5,2.3l1.6,9.1c0.2,1.3-0.6,2.1-1.9,2.1h-0.4c-4.2,0-6.2-8.2-11.4-8.2h-4.6c-1.8,0-3.4,0.8-3.4,3.5v14.2h6.4
		c3.3,0,4.4-5.9,6.5-5.9h0.7c0.9,0,1.4,0.7,1.4,1.7v13.3c0,1-0.5,1.7-1.4,1.7h-0.7c-2.1,0-3.1-5.5-6.5-5.5h-6.4v11.9
		c0,3.3,3.1,4.4,3.1,6.5v0.3c0,0.9-0.7,1.4-1.7,1.4H53.5C52.5,113,51.8,112.4,51.8,111.5z"/>
	<path class="st0" d="M104.8,111.5v-0.3c0-2.1,2.8-3.1,2.8-6.5v-32c0-3.3-2.8-4.4-2.8-6.5v-0.3c0-0.9,0.7-1.4,1.7-1.4h31.7
		c1.6,0,2.3,0.6,2.5,2.3l1.6,9.1c0.2,1.3-0.6,2.1-1.9,2.1h-0.4c-4.2,0-6.2-8.2-11.4-8.2h-3.8c-1.8,0-3.4,0.8-3.4,3.5v12.4h5.8
		c4,0,4.4-5.9,6.5-5.9h0.7c0.9,0,1.4,0.7,1.4,1.7v13.3c0,1-0.5,1.7-1.4,1.7h-0.7c-2.1,0-2.5-5.5-6.5-5.5h-5.8v11.2
		c0,2.5,1,5.5,4.5,5.5h4.9c5.2,0,6.2-8.8,10.8-8.8h0.7c1.2,0,1.8,1.3,1.6,2.3l-1.5,9.4c-0.3,1.6-0.9,2.4-2.5,2.4h-33.4
		C105.5,113,104.8,112.4,104.8,111.5z"/>
	<path class="st0" d="M157.3,111.5v-0.3c0-2.1,3-3.1,3-6.5V70.3h-2c-4.9,0-5.8,8.4-9.3,8.4h-1.3c-1.3,0-2.1-0.8-1.9-2.1l1.4-9.8
		c0.2-1.6,0.9-2.3,2.5-2.3h35.3c1.6,0,2.3,0.6,2.5,2.3l1.4,9.8c0.2,1.3-0.6,2.1-1.9,2.1h-1.3c-3.5,0-4.4-8.4-9.3-8.4h-2.1v34.5
		c0,3.3,3.1,4.4,3.1,6.5v0.3c0,0.9-0.7,1.4-1.7,1.4H159C157.9,113,157.3,112.4,157.3,111.5z"/>
	<path class="st0" d="M191.9,111.5v-0.3c0-2.1,2.8-3.1,2.8-6.5v-32c0-3.3-2.8-4.4-2.8-6.5v-0.3c0-0.9,0.7-1.4,1.7-1.4h31.7
		c1.6,0,2.3,0.6,2.5,2.3l1.6,9.1c0.2,1.3-0.6,2.1-1.9,2.1h-0.4c-4.2,0-6.2-8.2-11.4-8.2h-3.8c-1.8,0-3.4,0.8-3.4,3.5v12.4h5.8
		c4,0,4.4-5.9,6.5-5.9h0.7c0.9,0,1.4,0.7,1.4,1.7v13.3c0,1-0.5,1.7-1.4,1.7h-0.7c-2.1,0-2.5-5.5-6.5-5.5h-5.8v11.2
		c0,2.5,1,5.5,4.5,5.5h4.9c5.2,0,6.2-8.8,10.8-8.8h0.7c1.2,0,1.8,1.3,1.6,2.3l-1.5,9.4c-0.3,1.6-0.9,2.4-2.5,2.4h-33.4
		C192.5,113,191.9,112.4,191.9,111.5z"/>
	<path class="st0" d="M281.6,111.3v0.3c0,0.9-0.7,1.4-1.7,1.4h-18.5c-1,0-1.7-0.5-1.7-1.4v-0.3c0-2.1,3.5-2.9,1.8-6.5l-4.6-9.8
		l-5.2,0.1v9.7c0,3.3,3.1,4.4,3.1,6.5v0.3c0,0.9-0.7,1.4-1.7,1.4h-16.7c-1,0-1.7-0.5-1.7-1.4v-0.3c0-2.1,2.8-3.1,2.8-6.5v-32
		c0-3.3-2.8-4.4-2.8-6.5v-0.3c0-0.9,0.7-1.4,1.7-1.4h19.5c12.7,0,20.6,5.3,20.6,15.5c0,4.6-2.5,9.8-7.9,12.6l7.6,12
		C278.6,108.8,281.6,109.2,281.6,111.3z M256.2,89.7h1.4c2.2,0,4.3-2.2,4.3-8.2c0-7-4-11.6-7.2-11.6h-0.3c-1.7,0-2.8,1.6-2.8,3.8
		v10.2C251.6,88.3,253.2,89.7,256.2,89.7z"/>
	<path class="st0" d="M331.1,66.1v0.3c0,2.1-3.1,3.1-3.1,6.5v36.6c0,2.3-1.3,3.5-3.5,3.5H320c-1.8,0-2.9-1-4-2.4l-23-30.2v24.5
		c0,3.3,3.3,4.4,3.3,6.5v0.3c0,0.9-0.7,1.4-1.7,1.4h-9.5c-1,0-1.7-0.5-1.7-1.4v-0.3c0-2.1,2.8-3.1,2.8-6.5v-32
		c0-3.3-2.8-4.4-2.8-6.5v-0.3c0-0.9,0.7-1.4,1.7-1.4h11.6c1.8,0,2.8,0.8,4,2.4l20.5,28.5V72.8c0-3.3-3.1-4.4-3.1-6.5v-0.3
		c0-0.9,0.7-1.4,1.7-1.4h9.6C330.5,64.6,331.1,65.2,331.1,66.1z"/>
	<path class="st0" d="M335.4,111.3c0-2.1,2.8-3.1,2.8-6.5v-32c0-3.3-2.8-4.4-2.8-6.5v-0.3c0-0.9,0.7-1.4,1.7-1.4h16.5
		c1,0,1.7,0.5,1.7,1.4v0.3c0,2.1-3.1,3.1-3.1,6.5v32c0,3.3,3.1,4.4,3.1,6.5v0.3c0,0.9-0.7,1.4-1.7,1.4h-16.5c-1,0-1.7-0.5-1.7-1.4
		V111.3z"/>
	<path class="st0" d="M369.9,111.5v-0.3c0-2.1,3-3.1,3-6.5V70.3h-2c-4.9,0-5.8,8.4-9.3,8.4h-1.3c-1.3,0-2.1-0.8-1.9-2.1l1.4-9.8
		c0.2-1.6,0.9-2.3,2.5-2.3h35.3c1.6,0,2.3,0.6,2.5,2.3l1.4,9.8c0.2,1.3-0.6,2.1-1.9,2.1h-1.3c-3.5,0-4.4-8.4-9.3-8.4h-2v34.5
		c0,3.3,3.1,4.4,3.1,6.5v0.3c0,0.9-0.7,1.4-1.7,1.4h-16.6C370.5,113,369.9,112.4,369.9,111.5z"/>
	<path class="st0" d="M449.7,66.1v0.3c0,2.1-2.7,2.6-4.8,6.5l-11,20.2v11.8c0,3.3,3.1,4.4,3.1,6.5v0.3c0,0.9-0.7,1.4-1.7,1.4h-16.7
		c-1,0-1.7-0.5-1.7-1.4v-0.3c0-2.1,2.8-3.1,2.8-6.5V94.3l-13.3-21.5c-2.3-3.6-4.9-4.4-4.9-6.5V66c0-0.9,0.7-1.4,1.7-1.4H424
		c1,0,1.7,0.5,1.7,1.4v0.3c0,2.1-4.8,3.3-3.1,6.5l7.9,14.6l7.8-14.6c1.8-3.3-3.1-4.4-3.1-6.5V66c0-0.9,0.7-1.4,1.7-1.4h11
		C449,64.6,449.7,65.2,449.7,66.1z"/>
</g>
</svg>
