<?xml version="1.0" encoding="utf-8"?>
<!-- Generator: Adobe Illustrator 23.0.1, SVG Export Plug-In . SVG Version: 6.00 Build 0)  -->
<svg version="1.1" id="Layer_1" xmlns="http://www.w3.org/2000/svg" xmlns:xlink="http://www.w3.org/1999/xlink" x="0px" y="0px"
	 viewBox="0 0 1920 1080" style="enable-background:new 0 0 1920 1080;" xml:space="preserve">
<style type="text/css">
	.st0{fill:#493B3A;}
</style>
<g>
	<path class="st0" d="M698.67,529.2v-0.27c0-2.11,2.79-3.13,2.79-6.47v-32.01c0-3.34-2.79-4.36-2.79-6.47v-0.27
		c0-0.89,0.68-1.43,1.7-1.43h16.68c1.02,0,1.7,0.54,1.7,1.43v0.27c0,2.11-3.13,3.13-3.13,6.47v29.96c0,2.45,1.02,4.9,3.61,4.9h4.9
		c6.2,0,7.35-10.21,10.83-10.21h1.02c1.16,0,1.77,0.75,1.57,1.84l-1.84,11.3c-0.27,1.63-0.89,2.38-2.52,2.38h-32.82
		C699.36,530.63,698.67,530.08,698.67,529.2z"/>
	<path class="st0" d="M740.7,528.93c0-2.11,2.79-3.13,2.79-6.47v-32.01c0-3.34-2.79-4.36-2.79-6.47v-0.27c0-0.89,0.68-1.43,1.7-1.43
		h16.48c1.02,0,1.7,0.54,1.7,1.43v0.27c0,2.11-3.13,3.13-3.13,6.47v32.01c0,3.34,3.13,4.36,3.13,6.47v0.27
		c0,0.89-0.68,1.43-1.7,1.43H742.4c-1.02,0-1.7-0.54-1.7-1.43V528.93z"/>
	<path class="st0" d="M813.36,483.71v0.27c0,2.11-2.45,2.45-4.15,6.47l-15.32,36.37c-1.09,2.66-2.72,3.81-5.45,3.81
		c-2.52,0-3.95-1.16-5.04-3.54l-17.02-36.64c-1.7-3.68-4.15-4.36-4.15-6.47v-0.27c0-0.89,0.68-1.43,1.7-1.43h20.43
		c1.02,0,1.7,0.54,1.7,1.43v0.27c0,2.11-4.43,3.2-3.13,6.47l9.6,24.38l9.26-24.38c1.29-3.34-3.13-4.36-3.13-6.47v-0.27
		c0-0.89,0.68-1.43,1.7-1.43h11.3C812.68,482.28,813.36,482.82,813.36,483.71z"/>
	<path class="st0" d="M815.41,528.93c0-2.11,2.79-3.13,2.79-6.47v-32.01c0-3.34-2.79-4.36-2.79-6.47v-0.27
		c0-0.89,0.68-1.43,1.7-1.43h16.48c1.02,0,1.7,0.54,1.7,1.43v0.27c0,2.11-3.13,3.13-3.13,6.47v32.01c0,3.34,3.13,4.36,3.13,6.47
		v0.27c0,0.89-0.68,1.43-1.7,1.43h-16.48c-1.02,0-1.7-0.54-1.7-1.43V528.93z"/>
	<path class="st0" d="M887.87,483.71v0.27c0,2.11-3.13,3.13-3.13,6.47v36.64c0,2.25-1.29,3.54-3.54,3.54h-4.43
		c-1.84,0-2.86-0.95-3.95-2.38l-23.02-30.24v24.45c0,3.34,3.27,4.36,3.27,6.47v0.27c0,0.89-0.68,1.43-1.7,1.43h-9.47
		c-1.02,0-1.7-0.54-1.7-1.43v-0.27c0-2.11,2.79-3.13,2.79-6.47v-32.01c0-3.34-2.79-4.36-2.79-6.47v-0.27c0-0.89,0.68-1.43,1.7-1.43
		h11.58c1.84,0,2.79,0.82,3.95,2.38l20.5,28.47v-22.68c0-3.34-3.06-4.36-3.06-6.47v-0.27c0-0.89,0.68-1.43,1.7-1.43h9.6
		C887.19,482.28,887.87,482.82,887.87,483.71z"/>
	<path class="st0" d="M890.8,506.45c0-15.66,11.85-24.79,23.02-24.79c11.58,0,20.36,5.11,20.36,12.6c0,3.75-2.45,6.2-6.13,6.2
		c-9.74,0-11.17-13.42-17.64-13.42c-3.88,0-6.13,4.29-6.13,10.15c0,13.28,6.47,24.58,14.57,24.58c0.95,0,1.5-0.07,2.04-0.2v-7.97
		c0-3.34-3.61-4.36-3.61-6.47v-0.27c0-0.89,0.89-1.43,1.91-1.43l16.14,0.07c1.02,0,1.7,0.54,1.7,1.43v0.27
		c0,2.11-3.13,3.13-3.13,6.47v7.15c0,2.11-0.54,3.54-3.13,5.58c-2.86,2.25-7.97,4.9-14.98,4.9
		C900.61,531.31,890.8,519.12,890.8,506.45z"/>
	<path class="st0" d="M953.12,528.93c0-2.11,2.79-3.13,2.79-6.47v-32.01c0-3.34-2.79-4.36-2.79-6.47v-0.27
		c0-0.89,0.68-1.43,1.7-1.43h16.48c1.02,0,1.7,0.54,1.7,1.43v0.27c0,2.11-3.13,3.13-3.13,6.47v32.01c0,3.34,3.13,4.36,3.13,6.47
		v0.27c0,0.89-0.68,1.43-1.7,1.43h-16.48c-1.02,0-1.7-0.54-1.7-1.43V528.93z"/>
	<path class="st0" d="M1025.58,483.71v0.27c0,2.11-3.13,3.13-3.13,6.47v36.64c0,2.25-1.29,3.54-3.54,3.54h-4.43
		c-1.84,0-2.86-0.95-3.95-2.38l-23.02-30.24v24.45c0,3.34,3.27,4.36,3.27,6.47v0.27c0,0.89-0.68,1.43-1.7,1.43h-9.47
		c-1.02,0-1.7-0.54-1.7-1.43v-0.27c0-2.11,2.79-3.13,2.79-6.47v-32.01c0-3.34-2.79-4.36-2.79-6.47v-0.27c0-0.89,0.68-1.43,1.7-1.43
		h11.58c1.84,0,2.79,0.82,3.95,2.38l20.5,28.47v-22.68c0-3.34-3.06-4.36-3.06-6.47v-0.27c0-0.89,0.68-1.43,1.7-1.43h9.6
		C1024.9,482.28,1025.58,482.82,1025.58,483.71z"/>
	<path class="st0" d="M1088.51,483.71v0.27c0,2.11-2.45,2.45-4.15,6.47l-15.32,36.37c-1.09,2.66-2.72,3.81-5.45,3.81
		c-2.52,0-3.95-1.16-5.04-3.54l-17.03-36.64c-1.7-3.68-4.15-4.36-4.15-6.47v-0.27c0-0.89,0.68-1.43,1.7-1.43h20.43
		c1.02,0,1.7,0.54,1.7,1.43v0.27c0,2.11-4.43,3.2-3.13,6.47l9.6,24.38l9.26-24.38c1.29-3.34-3.13-4.36-3.13-6.47v-0.27
		c0-0.89,0.68-1.43,1.7-1.43h11.3C1087.83,482.28,1088.51,482.82,1088.51,483.71z"/>
	<path class="st0" d="M1090.56,528.93c0-2.11,2.79-3.13,2.79-6.47v-32.01c0-3.34-2.79-4.36-2.79-6.47v-0.27
		c0-0.89,0.68-1.43,1.7-1.43h16.48c1.02,0,1.7,0.54,1.7,1.43v0.27c0,2.11-3.13,3.13-3.13,6.47v32.01c0,3.34,3.13,4.36,3.13,6.47
		v0.27c0,0.89-0.68,1.43-1.7,1.43h-16.48c-1.02,0-1.7-0.54-1.7-1.43V528.93z"/>
	<path class="st0" d="M1115.35,529.2v-0.27c0-2.11,2.79-3.13,2.79-6.47v-32.01c0-3.34-2.79-4.36-2.79-6.47v-0.27
		c0-0.89,0.68-1.43,1.7-1.43h31.73c1.63,0,2.25,0.61,2.52,2.25l1.63,9.12c0.2,1.29-0.61,2.11-1.91,2.11h-0.41
		c-4.22,0-6.2-8.24-11.37-8.24h-3.81c-1.77,0-3.41,0.82-3.41,3.54v12.39h5.79c3.95,0,4.36-5.86,6.47-5.86h0.68
		c0.88,0,1.43,0.68,1.43,1.7v13.28c0,1.02-0.54,1.7-1.43,1.7h-0.68c-2.11,0-2.52-5.52-6.47-5.52h-5.79v11.17
		c0,2.45,1.02,5.45,4.5,5.45h4.9c5.18,0,6.2-8.79,10.76-8.79h0.68c1.23,0,1.77,1.29,1.63,2.25l-1.5,9.4
		c-0.27,1.63-0.89,2.38-2.52,2.38h-33.44C1116.03,530.63,1115.35,530.08,1115.35,529.2z"/>
	<path class="st0" d="M1224.99,483.71v0.27c0,2.11-3,2.52-4.36,6.47l-12.67,36.37c-0.95,2.66-2.72,3.81-5.11,3.81
		c-2.52,0-4.29-1.16-5.04-3.54l-7.08-22.13l-7.08,21.86c-0.82,2.59-2.38,3.81-4.56,3.81c-2.86,0-3.95-1.16-4.97-3.54l-15.87-36.64
		c-1.63-3.75-4.63-4.36-4.63-6.47v-0.27c0-0.89,0.68-1.43,1.7-1.43h18.66c1.02,0,1.7,0.54,1.7,1.43v0.27c0,2.11-3.88,3.13-2.66,6.47
		l8.51,23.09l5.92-18.73l-1.43-4.36c-0.95-3.06-4.77-4.36-4.77-6.47v-0.27c0-0.89,0.68-1.43,1.7-1.43h18.32
		c1.02,0,1.7,0.54,1.7,1.43v0.27c0,2.11-4.22,2.59-3.2,6.47l6.13,22.81l7.35-22.81c1.09-3.34-2.93-4.36-2.93-6.47v-0.27
		c0-0.89,0.68-1.43,1.7-1.43h11.24C1224.31,482.28,1224.99,482.82,1224.99,483.71z"/>
	<path class="st0" d="M697.79,570.79c0-15.05,9.6-25.2,24.04-25.2c12.67,0,24.18,10.08,24.18,25.2s-10.83,24.52-24.18,24.52
		C709.5,595.31,697.79,585.91,697.79,570.79z M731.57,581.96c0-10.28-7.7-30.64-14.78-30.64c-3.68,0-5.52,2.52-5.52,7.83
		c0,12.12,7.63,30.44,14.64,30.44C729.73,589.59,731.57,587.14,731.57,581.96z"/>
	<path class="st0" d="M749.62,593.2v-0.27c0-2.11,2.79-3.13,2.79-6.47v-32.01c0-3.34-2.79-4.36-2.79-6.47v-0.27
		c0-0.89,0.68-1.43,1.7-1.43h32.82c1.63,0,2.25,0.68,2.52,2.32l1.63,9.12c0.2,1.29-0.61,2.11-1.91,2.11h-0.41
		c-4.22,0-6.2-8.24-11.37-8.24h-4.63c-1.77,0-3.4,0.82-3.4,3.54v14.17h6.4c3.34,0,4.36-5.92,6.47-5.92h0.68
		c0.89,0,1.43,0.68,1.43,1.7v13.28c0,1.02-0.54,1.7-1.43,1.7h-0.68c-2.11,0-3.13-5.52-6.47-5.52h-6.4v11.92
		c0,3.34,3.13,4.36,3.13,6.47v0.27c0,0.88-0.68,1.43-1.7,1.43h-16.68C750.3,594.63,749.62,594.08,749.62,593.2z"/>
	<path class="st0" d="M802.61,593.2v-0.27c0-2.11,2.79-3.13,2.79-6.47v-32.01c0-3.34-2.79-4.36-2.79-6.47v-0.27
		c0-0.89,0.68-1.43,1.7-1.43h31.73c1.63,0,2.25,0.61,2.52,2.25l1.63,9.12c0.2,1.29-0.61,2.11-1.91,2.11h-0.41
		c-4.22,0-6.2-8.24-11.37-8.24h-3.81c-1.77,0-3.4,0.82-3.4,3.54v12.39h5.79c3.95,0,4.36-5.86,6.47-5.86h0.68
		c0.89,0,1.43,0.68,1.43,1.7v13.28c0,1.02-0.54,1.7-1.43,1.7h-0.68c-2.11,0-2.52-5.52-6.47-5.52h-5.79v11.17
		c0,2.45,1.02,5.45,4.49,5.45h4.9c5.18,0,6.2-8.78,10.76-8.78h0.68c1.23,0,1.77,1.29,1.63,2.25l-1.5,9.4
		c-0.27,1.63-0.89,2.38-2.52,2.38h-33.44C803.29,594.63,802.61,594.08,802.61,593.2z"/>
	<path class="st0" d="M855.12,593.2v-0.27c0-2.11,3-3.13,3-6.47V552h-2.04c-4.9,0-5.79,8.44-9.33,8.44h-1.29
		c-1.29,0-2.11-0.82-1.91-2.11l1.36-9.81c0.2-1.63,0.89-2.25,2.52-2.25h35.28c1.63,0,2.32,0.61,2.52,2.25l1.36,9.81
		c0.2,1.29-0.61,2.11-1.91,2.11h-1.29c-3.54,0-4.43-8.44-9.33-8.44H872v34.46c0,3.34,3.06,4.36,3.06,6.47v0.27
		c0,0.88-0.68,1.43-1.7,1.43h-16.62C855.73,594.63,855.12,594.08,855.12,593.2z"/>
	<path class="st0" d="M889.65,593.2v-0.27c0-2.11,2.79-3.13,2.79-6.47v-32.01c0-3.34-2.79-4.36-2.79-6.47v-0.27
		c0-0.89,0.68-1.43,1.7-1.43h31.73c1.63,0,2.25,0.61,2.52,2.25l1.63,9.12c0.2,1.29-0.61,2.11-1.91,2.11h-0.41
		c-4.22,0-6.2-8.24-11.37-8.24h-3.81c-1.77,0-3.4,0.82-3.4,3.54v12.39h5.79c3.95,0,4.36-5.86,6.47-5.86h0.68
		c0.89,0,1.43,0.68,1.43,1.7v13.28c0,1.02-0.54,1.7-1.43,1.7h-0.68c-2.11,0-2.52-5.52-6.47-5.52h-5.79v11.17
		c0,2.45,1.02,5.45,4.49,5.45h4.9c5.18,0,6.2-8.78,10.76-8.78h0.68c1.23,0,1.77,1.29,1.63,2.25l-1.5,9.4
		c-0.27,1.63-0.89,2.38-2.52,2.38h-33.44C890.33,594.63,889.65,594.08,889.65,593.2z"/>
	<path class="st0" d="M979.41,592.93v0.27c0,0.88-0.68,1.43-1.7,1.43h-18.52c-1.02,0-1.7-0.54-1.7-1.43v-0.27
		c0-2.11,3.47-2.86,1.77-6.47l-4.63-9.81l-5.24,0.14v9.67c0,3.34,3.13,4.36,3.13,6.47v0.27c0,0.88-0.68,1.43-1.7,1.43h-16.68
		c-1.02,0-1.7-0.54-1.7-1.43v-0.27c0-2.11,2.79-3.13,2.79-6.47v-32.01c0-3.34-2.79-4.36-2.79-6.47v-0.27c0-0.89,0.68-1.43,1.7-1.43
		h19.48c12.67,0,20.63,5.31,20.63,15.53c0,4.63-2.52,9.81-7.9,12.6l7.56,12.05C976.41,590.47,979.41,590.82,979.41,592.93z
		 M954,571.41h1.36c2.18,0,4.29-2.18,4.29-8.24c0-6.95-3.95-11.58-7.15-11.58h-0.34c-1.7,0-2.79,1.63-2.79,3.81v10.21
		C949.37,569.98,950.94,571.41,954,571.41z"/>
	<path class="st0" d="M1028.92,547.71v0.27c0,2.11-3.13,3.13-3.13,6.47v36.64c0,2.25-1.29,3.54-3.54,3.54h-4.43
		c-1.84,0-2.86-0.95-3.95-2.38l-23.02-30.24v24.45c0,3.34,3.27,4.36,3.27,6.47v0.27c0,0.88-0.68,1.43-1.7,1.43h-9.47
		c-1.02,0-1.7-0.54-1.7-1.43v-0.27c0-2.11,2.79-3.13,2.79-6.47v-32.01c0-3.34-2.79-4.36-2.79-6.47v-0.27c0-0.89,0.68-1.43,1.7-1.43
		h11.58c1.84,0,2.79,0.82,3.95,2.38l20.5,28.47v-22.68c0-3.34-3.06-4.36-3.06-6.47v-0.27c0-0.89,0.68-1.43,1.7-1.43h9.6
		C1028.24,546.28,1028.92,546.82,1028.92,547.71z"/>
	<path class="st0" d="M1033.15,592.93c0-2.11,2.79-3.13,2.79-6.47v-32.01c0-3.34-2.79-4.36-2.79-6.47v-0.27
		c0-0.89,0.68-1.43,1.7-1.43h16.48c1.02,0,1.7,0.54,1.7,1.43v0.27c0,2.11-3.13,3.13-3.13,6.47v32.01c0,3.34,3.13,4.36,3.13,6.47
		v0.27c0,0.88-0.68,1.43-1.7,1.43h-16.48c-1.02,0-1.7-0.54-1.7-1.43V592.93z"/>
	<path class="st0" d="M1067.67,593.2v-0.27c0-2.11,3-3.13,3-6.47V552h-2.04c-4.9,0-5.79,8.44-9.33,8.44H1058
		c-1.29,0-2.11-0.82-1.91-2.11l1.36-9.81c0.2-1.63,0.89-2.25,2.52-2.25h35.28c1.63,0,2.32,0.61,2.52,2.25l1.36,9.81
		c0.2,1.29-0.61,2.11-1.91,2.11h-1.29c-3.54,0-4.43-8.44-9.33-8.44h-2.04v34.46c0,3.34,3.06,4.36,3.06,6.47v0.27
		c0,0.88-0.68,1.43-1.7,1.43h-16.62C1068.29,594.63,1067.67,594.08,1067.67,593.2z"/>
	<path class="st0" d="M1147.49,547.71v0.27c0,2.11-2.66,2.59-4.77,6.47l-11.03,20.16v11.85c0,3.34,3.13,4.36,3.13,6.47v0.27
		c0,0.88-0.68,1.43-1.7,1.43h-16.68c-1.02,0-1.7-0.54-1.7-1.43v-0.27c0-2.11,2.79-3.13,2.79-6.47v-10.49l-13.28-21.52
		c-2.25-3.61-4.9-4.36-4.9-6.47v-0.27c0-0.89,0.68-1.43,1.7-1.43h20.77c1.02,0,1.7,0.54,1.7,1.43v0.27c0,2.11-4.83,3.34-3.13,6.47
		l7.9,14.64l7.83-14.64c1.77-3.34-3.06-4.36-3.06-6.47v-0.27c0-0.89,0.68-1.43,1.7-1.43h11.03
		C1146.81,546.28,1147.49,546.82,1147.49,547.71z"/>
</g>
</svg>
