<?xml version="1.0" encoding="utf-8"?>
<!-- Generator: Adobe Illustrator 23.0.1, SVG Export Plug-In . SVG Version: 6.00 Build 0)  -->
<svg version="1.1" id="Layer_1" xmlns="http://www.w3.org/2000/svg" xmlns:xlink="http://www.w3.org/1999/xlink" x="0px" y="0px"
	 viewBox="0 0 1920 1080" style="enable-background:new 0 0 1920 1080;" xml:space="preserve">
<style type="text/css">
	.st0{fill:#493B3A;}
</style>
<g>
	<path class="st0" d="M395.09,545.62c0-3.27,1.57-5.45,5.45-5.45c7.83,0,6.81,12.94,16.07,12.94c3.34,0,5.31-1.7,5.31-4.63
		c0-12.33-26.08-5.18-26.15-24.92c0-9.06,7.56-15.12,18.86-15.12c11.1,0,20.09,5.86,20.02,12.46c0,3.34-1.91,5.58-5.79,5.58
		c-9.06,0-7.22-13.14-14.5-13.14c-3.61,0-5.18,2.18-5.18,5.11c0,14.51,25.95,6.67,25.95,25.33c0,9.19-8.79,14.3-19.07,14.3
		C403.94,558.08,395.09,552.16,395.09,545.62z"/>
	<path class="st0" d="M439.5,555.7c0-2.11,2.79-3.13,2.79-6.47v-32.01c0-3.34-2.79-4.36-2.79-6.47v-0.27c0-0.89,0.68-1.43,1.7-1.43
		h16.48c1.02,0,1.7,0.54,1.7,1.43v0.27c0,2.11-3.13,3.13-3.13,6.47v32.01c0,3.34,3.13,4.36,3.13,6.47v0.27
		c0,0.89-0.68,1.43-1.7,1.43H441.2c-1.02,0-1.7-0.54-1.7-1.43V555.7z"/>
	<path class="st0" d="M462.79,533.23c0-15.66,11.85-24.79,23.02-24.79c11.58,0,20.36,5.11,20.36,12.6c0,3.75-2.45,6.2-6.13,6.2
		c-9.74,0-11.17-13.42-17.64-13.42c-3.88,0-6.13,4.29-6.13,10.15c0,13.28,6.47,24.58,14.57,24.58c0.95,0,1.5-0.07,2.04-0.21v-7.97
		c0-3.34-3.61-4.36-3.61-6.47v-0.27c0-0.89,0.88-1.43,1.91-1.43l16.14,0.07c1.02,0,1.7,0.54,1.7,1.43v0.27
		c0,2.11-3.13,3.13-3.13,6.47v7.15c0,2.11-0.54,3.54-3.13,5.58c-2.86,2.25-7.97,4.9-14.98,4.9
		C472.6,558.08,462.79,545.89,462.79,533.23z"/>
	<path class="st0" d="M559.97,510.48v0.27c0,2.11-3.13,3.13-3.13,6.47v36.64c0,2.25-1.29,3.54-3.54,3.54h-4.43
		c-1.84,0-2.86-0.95-3.95-2.38l-23.02-30.24v24.45c0,3.34,3.27,4.36,3.27,6.47v0.27c0,0.89-0.68,1.43-1.7,1.43h-9.47
		c-1.02,0-1.7-0.54-1.7-1.43v-0.27c0-2.11,2.79-3.13,2.79-6.47v-32.01c0-3.34-2.79-4.36-2.79-6.47v-0.27c0-0.89,0.68-1.43,1.7-1.43
		h11.58c1.84,0,2.79,0.82,3.95,2.38l20.5,28.47v-22.68c0-3.34-3.06-4.36-3.06-6.47v-0.27c0-0.89,0.68-1.43,1.7-1.43h9.6
		C559.29,509.05,559.97,509.6,559.97,510.48z"/>
	<path class="st0" d="M578.91,539.29v-22.06c0-3.34-2.79-4.36-2.79-6.47v-0.27c0-0.89,0.68-1.43,1.7-1.43h16.68
		c1.02,0,1.7,0.54,1.7,1.43v0.27c0,2.11-3.13,3.13-3.13,6.47v22.06c0,9.19,3.54,13.07,10.22,13.07c3.34,0,9.12-1.91,9.12-13.07
		v-22.06c0-3.34-2.79-4.36-2.79-6.47v-0.27c0-0.89,0.68-1.43,1.7-1.43h9.33c1.02,0,1.7,0.54,1.7,1.43v0.27
		c0,2.11-3.13,3.13-3.13,6.47v22.2c0,12.53-7.76,18.66-19.14,18.66C587.7,558.08,578.91,551.95,578.91,539.29z"/>
	<path class="st0" d="M626.18,555.97v-0.27c0-2.11,2.79-3.13,2.79-6.47v-32.01c0-3.34-2.79-4.36-2.79-6.47v-0.27
		c0-0.89,0.68-1.43,1.7-1.43h18.11c12.6,0,21.79,4.77,21.79,16.28c0,10.15-7.76,17.03-19.41,17.03h-5.24v6.88
		c0,3.34,3.13,4.36,3.13,6.47v0.27c0,0.89-0.68,1.43-1.7,1.43h-16.68C626.86,557.4,626.18,556.86,626.18,555.97z M648.38,537.11
		c3.47,0,4.83-4.29,4.83-8.51c0-8.65-3.95-14.3-7.22-14.3h-0.2c-1.7,0-2.66,1.29-2.66,3.54v15.73c0,2.25,0.88,3.54,3.34,3.54H648.38
		z"/>
	<path class="st0" d="M682.36,555.97v-0.27c0-2.11,2.79-3.13,2.79-6.47v-32.01c0-3.34-2.79-4.36-2.79-6.47v-0.27
		c0-0.89,0.68-1.43,1.7-1.43h32.82c1.63,0,2.25,0.68,2.52,2.32l1.63,9.13c0.2,1.29-0.61,2.11-1.91,2.11h-0.41
		c-4.22,0-6.2-8.24-11.37-8.24h-4.63c-1.77,0-3.41,0.82-3.41,3.54v14.17h6.4c3.34,0,4.36-5.92,6.47-5.92h0.68
		c0.89,0,1.43,0.68,1.43,1.7v13.28c0,1.02-0.54,1.7-1.43,1.7h-0.68c-2.11,0-3.13-5.52-6.47-5.52h-6.4v11.92
		c0,3.34,3.13,4.36,3.13,6.47v0.27c0,0.89-0.68,1.43-1.7,1.43h-16.68C683.04,557.4,682.36,556.86,682.36,555.97z"/>
	<path class="st0" d="M722.27,533.57c0-15.05,9.6-25.2,24.04-25.2c12.67,0,24.18,10.08,24.18,25.2s-10.83,24.52-24.18,24.52
		C733.99,558.08,722.27,548.68,722.27,533.57z M756.05,544.73c0-10.28-7.7-30.64-14.78-30.64c-3.68,0-5.52,2.52-5.52,7.83
		c0,12.12,7.63,30.44,14.64,30.44C754.21,552.36,756.05,549.91,756.05,544.73z"/>
	<path class="st0" d="M821.09,555.7v0.27c0,0.89-0.68,1.43-1.7,1.43h-18.52c-1.02,0-1.7-0.54-1.7-1.43v-0.27
		c0-2.11,3.47-2.86,1.77-6.47l-4.63-9.81l-5.24,0.14v9.67c0,3.34,3.13,4.36,3.13,6.47v0.27c0,0.89-0.68,1.43-1.7,1.43h-16.68
		c-1.02,0-1.7-0.54-1.7-1.43v-0.27c0-2.11,2.79-3.13,2.79-6.47v-32.01c0-3.34-2.79-4.36-2.79-6.47v-0.27c0-0.89,0.68-1.43,1.7-1.43
		h19.48c12.67,0,20.63,5.31,20.63,15.53c0,4.63-2.52,9.81-7.9,12.6l7.56,12.05C818.1,553.25,821.09,553.59,821.09,555.7z
		 M795.69,534.18h1.36c2.18,0,4.29-2.18,4.29-8.24c0-6.95-3.95-11.58-7.15-11.58h-0.34c-1.7,0-2.79,1.63-2.79,3.81v10.21
		C791.06,532.75,792.63,534.18,795.69,534.18z"/>
	<path class="st0" d="M834.85,532.54c0-13.69,8.85-24.11,22.68-24.11c10.62,0,20.09,5.38,20.09,13.08c0,3.54-2.38,6.06-6.4,6.06
		c-9.4,0-9.33-13.76-16.41-13.76c-3.27,0-6.47,3.47-6.47,10.15c0,13.21,7.22,21.59,14.64,21.59c5.86,0,8.51-3.88,10.49-6.13
		c1.36-1.57,4.02-1.02,4.02,1.29c0,8.72-5.86,17.37-19.2,17.37C844.18,558.08,834.85,545.89,834.85,532.54z"/>
	<path class="st0" d="M880.55,533.57c0-15.05,9.6-25.2,24.04-25.2c12.67,0,24.18,10.08,24.18,25.2s-10.83,24.52-24.18,24.52
		C892.27,558.08,880.55,548.68,880.55,533.57z M914.33,544.73c0-10.28-7.7-30.64-14.78-30.64c-3.68,0-5.52,2.52-5.52,7.83
		c0,12.12,7.63,30.44,14.64,30.44C912.49,552.36,914.33,549.91,914.33,544.73z"/>
	<path class="st0" d="M932.38,555.97v-0.27c0-2.11,2.79-3.13,2.79-6.47v-32.01c0-3.34-2.79-4.36-2.79-6.47v-0.27
		c0-0.89,0.68-1.43,1.7-1.43h16.68c1.02,0,1.7,0.54,1.7,1.43v0.27c0,2.11-3.13,3.13-3.13,6.47v29.96c0,2.45,1.02,4.9,3.61,4.9h4.9
		c6.2,0,7.35-10.21,10.83-10.21h1.02c1.16,0,1.77,0.75,1.57,1.84l-1.84,11.3c-0.27,1.63-0.89,2.38-2.52,2.38h-32.82
		C933.06,557.4,932.38,556.86,932.38,555.97z"/>
	<path class="st0" d="M974.4,555.97v-0.27c0-2.11,2.79-3.13,2.79-6.47v-32.01c0-3.34-2.79-4.36-2.79-6.47v-0.27
		c0-0.89,0.68-1.43,1.7-1.43h16.68c1.02,0,1.7,0.54,1.7,1.43v0.27c0,2.11-3.13,3.13-3.13,6.47v29.96c0,2.45,1.02,4.9,3.61,4.9h4.9
		c6.2,0,7.35-10.21,10.83-10.21h1.02c1.16,0,1.77,0.75,1.57,1.84l-1.84,11.3c-0.27,1.63-0.89,2.38-2.52,2.38h-32.82
		C975.08,557.4,974.4,556.86,974.4,555.97z"/>
	<path class="st0" d="M1016.42,555.97v-0.27c0-2.11,2.79-3.13,2.79-6.47v-32.01c0-3.34-2.79-4.36-2.79-6.47v-0.27
		c0-0.89,0.68-1.43,1.7-1.43h31.73c1.63,0,2.25,0.61,2.52,2.25l1.63,9.12c0.2,1.29-0.61,2.11-1.91,2.11h-0.41
		c-4.22,0-6.2-8.24-11.37-8.24h-3.81c-1.77,0-3.41,0.82-3.41,3.54v12.39h5.79c3.95,0,4.36-5.86,6.47-5.86h0.68
		c0.88,0,1.43,0.68,1.43,1.7v13.28c0,1.02-0.54,1.7-1.43,1.7h-0.68c-2.11,0-2.52-5.52-6.47-5.52h-5.79v11.17
		c0,2.45,1.02,5.45,4.5,5.45h4.9c5.18,0,6.2-8.79,10.76-8.79h0.68c1.23,0,1.77,1.29,1.63,2.25l-1.5,9.4
		c-0.27,1.63-0.89,2.38-2.52,2.38h-33.44C1017.11,557.4,1016.42,556.86,1016.42,555.97z"/>
	<path class="st0" d="M1057.77,533.23c0-15.66,11.85-24.79,23.02-24.79c11.58,0,20.36,5.11,20.36,12.6c0,3.75-2.45,6.2-6.13,6.2
		c-9.74,0-11.17-13.42-17.64-13.42c-3.88,0-6.13,4.29-6.13,10.15c0,13.28,6.47,24.58,14.57,24.58c0.95,0,1.5-0.07,2.04-0.21v-7.97
		c0-3.34-3.61-4.36-3.61-6.47v-0.27c0-0.89,0.88-1.43,1.91-1.43l16.14,0.07c1.02,0,1.7,0.54,1.7,1.43v0.27
		c0,2.11-3.13,3.13-3.13,6.47v7.15c0,2.11-0.54,3.54-3.13,5.58c-2.86,2.25-7.97,4.9-14.98,4.9
		C1067.57,558.08,1057.77,545.89,1057.77,533.23z"/>
	<path class="st0" d="M1107.28,555.97v-0.27c0-2.11,2.79-3.13,2.79-6.47v-32.01c0-3.34-2.79-4.36-2.79-6.47v-0.27
		c0-0.89,0.68-1.43,1.7-1.43h31.73c1.63,0,2.25,0.61,2.52,2.25l1.63,9.12c0.2,1.29-0.61,2.11-1.91,2.11h-0.41
		c-4.22,0-6.2-8.24-11.37-8.24h-3.81c-1.77,0-3.41,0.82-3.41,3.54v12.39h5.79c3.95,0,4.36-5.86,6.47-5.86h0.68
		c0.88,0,1.43,0.68,1.43,1.7v13.28c0,1.02-0.54,1.7-1.43,1.7h-0.68c-2.11,0-2.52-5.52-6.47-5.52h-5.79v11.17
		c0,2.45,1.02,5.45,4.5,5.45h4.9c5.18,0,6.2-8.79,10.76-8.79h0.68c1.23,0,1.77,1.29,1.63,2.25l-1.5,9.4
		c-0.27,1.63-0.89,2.38-2.52,2.38h-33.44C1107.96,557.4,1107.28,556.86,1107.28,555.97z"/>
	<path class="st0" d="M1161.97,532.54c0-13.69,8.85-24.11,22.68-24.11c10.62,0,20.09,5.38,20.09,13.08c0,3.54-2.38,6.06-6.4,6.06
		c-9.4,0-9.33-13.76-16.41-13.76c-3.27,0-6.47,3.47-6.47,10.15c0,13.21,7.22,21.59,14.64,21.59c5.86,0,8.51-3.88,10.49-6.13
		c1.36-1.57,4.02-1.02,4.02,1.29c0,8.72-5.86,17.37-19.2,17.37C1171.3,558.08,1161.97,545.89,1161.97,532.54z"/>
	<path class="st0" d="M1254.72,555.7v0.27c0,0.89-0.68,1.43-1.7,1.43h-19.82c-1.02,0-1.7-0.54-1.7-1.43v-0.27
		c0-2.11,4.29-3.13,3.13-6.47l-1.09-3.13h-15.94l-1.09,3.13c-1.16,3.34,3.13,4.36,3.13,6.47v0.27c0,0.89-0.68,1.43-1.7,1.43h-11.1
		c-1.02,0-1.7-0.54-1.7-1.43v-0.27c0-2.11,2.66-2.52,4.15-6.47l12.12-31.39c1.09-2.86-2.59-5.31-2.59-7.08v-0.27
		c0-0.89,0.68-1.43,1.7-1.43h10.08c2.52,0,4.02,1.09,5.04,3.54l14.91,36.64C1252.14,553.04,1254.72,553.59,1254.72,555.7z
		 M1231.64,540.38l-5.86-17.23l-6.13,17.23H1231.64z"/>
	<path class="st0" d="M1315.47,555.7v0.27c0,0.89-0.68,1.43-1.7,1.43h-15.73c-1.02,0-1.7-0.54-1.7-1.43v-0.27
		c0-2.11,3-3.2,2.45-6.47l-3.61-20.91l-9.53,26.9c-0.48,1.43-1.16,2.11-2.66,2.11s-2.45-0.61-3.06-2.04l-11.44-28.33l-3.13,22.27
		c-0.48,3.34,2.45,4.36,2.45,6.47v0.27c0,0.89-0.68,1.43-1.7,1.43h-9.06c-1.02,0-1.7-0.54-1.7-1.43v-0.27
		c0-2.11,2.32-3.13,2.79-6.47l4.83-32.01c0.48-3.34-2.79-4.36-2.79-6.47v-0.27c0-0.89,0.68-1.43,1.7-1.43h10.21
		c1.91,0,3.27,0.89,3.88,2.66l8.99,26.29l8.44-26.15c0.61-1.84,1.91-2.79,3.81-2.79h10.49c1.02,0,1.7,0.54,1.7,1.43v0.27
		c0,2.11-3.41,3.13-2.79,6.47l6.06,32.01C1313.29,552.57,1315.47,553.59,1315.47,555.7z"/>
	<path class="st0" d="M1318.48,555.97v-0.27c0-2.11,2.79-3.13,2.79-6.47v-32.01c0-3.34-2.79-4.36-2.79-6.47v-0.27
		c0-0.89,0.68-1.43,1.7-1.43h18.11c12.6,0,21.79,4.77,21.79,16.28c0,10.15-7.76,17.03-19.41,17.03h-5.24v6.88
		c0,3.34,3.13,4.36,3.13,6.47v0.27c0,0.89-0.68,1.43-1.7,1.43h-16.68C1319.16,557.4,1318.48,556.86,1318.48,555.97z M1340.68,537.11
		c3.47,0,4.83-4.29,4.83-8.51c0-8.65-3.95-14.3-7.22-14.3h-0.2c-1.7,0-2.66,1.29-2.66,3.54v15.73c0,2.25,0.89,3.54,3.34,3.54
		H1340.68z"/>
</g>
</svg>
