<?xml version="1.0" encoding="utf-8"?>
<!-- Generator: Adobe Illustrator 23.0.1, SVG Export Plug-In . SVG Version: 6.00 Build 0)  -->
<svg version="1.1" id="Layer_1" xmlns="http://www.w3.org/2000/svg" xmlns:xlink="http://www.w3.org/1999/xlink" x="0px" y="0px"
	 viewBox="0 0 1920 1080" style="enable-background:new 0 0 1920 1080;" xml:space="preserve">
<style type="text/css">
	.st0{fill:#493B3A;}
</style>
<g>
	<path class="st0" d="M405.51,555.97v-0.27c0-2.11,3-3.13,3-6.47v-34.46h-2.04c-4.9,0-5.79,8.44-9.33,8.44h-1.29
		c-1.29,0-2.11-0.82-1.91-2.11l1.36-9.81c0.2-1.63,0.89-2.25,2.52-2.25h35.28c1.63,0,2.32,0.61,2.52,2.25l1.36,9.81
		c0.21,1.29-0.61,2.11-1.91,2.11h-1.29c-3.54,0-4.43-8.44-9.33-8.44h-2.04v34.46c0,3.34,3.06,4.36,3.06,6.47v0.27
		c0,0.89-0.68,1.43-1.7,1.43h-16.62C406.12,557.4,405.51,556.86,405.51,555.97z"/>
	<path class="st0" d="M479,555.7v0.27c0,0.89-0.68,1.43-1.7,1.43h-15.05c-1.02,0-1.7-0.54-1.7-1.43v-0.27
		c0-2.11,2.66-3.13,2.45-6.47l-0.68-12.39c-0.34-5.65-1.09-7.83-3.75-7.83c-2.45,0-3.34,2.31-3.34,5.86v14.37
		c0,3.34,3.13,4.36,3.13,6.47v0.27c0,0.89-0.68,1.43-1.7,1.43h-16.41c-1.02,0-1.7-0.54-1.7-1.43v-0.27c0-2.11,3.13-3.13,3.13-6.47
		v-29.76c0-3.34-3.47-3.68-3.47-5.79v-0.27c0-0.89,0.68-1.63,1.7-2.11l12.12-5.31c1.7-0.75,2.79-0.2,2.79,1.5v19.2
		c1.91-1.7,4.56-2.66,7.83-2.66c5.72,0,12.12,3,12.94,13.28l0.95,11.92C476.82,552.57,479,553.59,479,555.7z"/>
	<path class="st0" d="M517.95,555.36c0,1.98-4.5,2.45-8.51,2.45c-4.36,0-6.4-0.82-7.01-3c-1.43,1.77-4.02,3.27-8.38,3.27
		c-7.22,0-12.94-3.27-12.94-10.35c0-6.95,5.86-10.49,12.19-10.49c2.66,0,4.83,0.54,6.54,1.5c-0.82-7.9-0.88-11.17-3.95-11.17
		c-4.02,0-1.91,9.47-8.65,9.47c-3.2,0-5.38-1.98-5.38-4.9c0-6.06,7.22-8.1,14.03-8.1c9.33,0,16.07,5.31,17.16,13.62l1.57,11.78
		C515.3,554.47,517.95,553.38,517.95,555.36z M500.86,549.84l-0.27-3.2c-0.54-4.22-2.04-5.45-3.34-5.45c-1.36,0-2.32,1.57-2.32,3.88
		c0,4.9,1.23,9.19,3.47,9.19C500.11,554.27,501,551.75,500.86,549.84z"/>
	<path class="st0" d="M560.04,555.77v0.27c0,0.89-0.68,1.43-1.7,1.43h-15.05c-1.02,0-1.7-0.54-1.7-1.43v-0.27
		c0-2.11,2.66-3.13,2.45-6.47l-0.68-11.78c-0.34-6.33-1.09-8.51-3.75-8.51c-2.45,0-3.34,2.31-3.34,5.86v14.44
		c0,3.34,3.13,4.36,3.13,6.47v0.27c0,0.89-0.68,1.43-1.7,1.43h-16.41c-1.02,0-1.7-0.54-1.7-1.43v-0.27c0-2.11,3.13-3.13,3.13-6.47
		v-11.51c0-3.34-3.81-3.95-3.81-6.06v-0.27c0-0.89,0.75-1.29,1.77-1.84l10.69-5.31c1.84-0.95,2.79,0.34,2.79,1.77v2.79
		c1.77-3.13,5.11-4.84,9.53-4.84c5.72,0,12.12,3,13.01,13.96l0.88,11.3C557.86,552.63,560.04,553.66,560.04,555.77z"/>
	<path class="st0" d="M603.83,555.7v0.27c0,0.89-0.68,1.43-1.7,1.43h-15.66c-1.02,0-1.7-0.61-1.7-1.5v-0.27
		c0-2.04,2.52-2.72,1.43-4.43l-4.83-7.9l-2.93,2.72v3.2c0,3.34,3.13,4.36,3.13,6.47v0.27c0,0.89-0.68,1.43-1.7,1.43h-16.41
		c-1.02,0-1.7-0.54-1.7-1.43v-0.27c0-2.11,2.79-3.13,2.79-6.47v-29.21c0-3.34-3.47-4.36-3.47-6.2v-0.27c0-0.82,0.68-1.23,1.7-1.7
		l12.33-5.72c2.04-0.95,3.34,0.2,3.34,1.57v31.8l7.97-6.74c2.18-1.84-1.77-4.22-1.77-6.27v-0.27c0-0.89,0.68-1.5,1.7-1.5h11.58
		c1.02,0,1.7,0.54,1.7,1.43v0.27c0,2.11-3.95,3.61-6.81,6.27l-3.4,3.2l10.42,15.32C600.84,552.7,603.83,553.59,603.83,555.7z"/>
	<path class="st0" d="M651.78,526.14v0.27c0,2.11-2.45,3.34-3.88,6.47l-12.8,27.51c-1.77,3.81-5.72,11.71-13.01,11.71
		c-7.08,0-11.51-4.09-11.51-8.38c0-3.2,2.04-5.38,5.45-5.38c7.35,0,4.97,9.81,7.83,9.81c1.97,0,4.29-4.36,5.92-8.31l-14.03-26.97
		c-1.7-3.27-3.95-4.36-3.95-6.47v-0.27c0-0.89,0.68-1.43,1.7-1.43h16.21c0.95,0,1.63,0.61,1.63,1.5v0.27c0,2.04-2.59,2.52-0.88,6.61
		l6.06,14.64l5.45-13.35c2.04-4.97-3.34-5.86-3.34-7.9v-0.27c0-0.89,0.68-1.5,1.7-1.5h9.74
		C651.1,524.71,651.78,525.26,651.78,526.14z"/>
	<path class="st0" d="M651.04,541.06c0-10.22,9.06-17.03,19-17.03c10.01,0,18.93,6.81,18.93,17.03c0,10.21-8.92,17.02-18.93,17.02
		C660.09,558.08,651.04,551.27,651.04,541.06z M674.8,547.25c0-3.61-2.04-19.54-7.08-19.54c-2.66,0-3.06,2.59-3.06,7.29
		c0,4.36,2.04,19.41,7.01,19.41C674.39,554.4,674.8,551.54,674.8,547.25z"/>
	<path class="st0" d="M730.31,555.36c0,1.98-3,2.45-7.76,2.45c-4.43,0-6.33-0.95-6.81-3.54c-1.7,2.45-4.77,3.81-9.33,3.81
		c-6.67,0-12.74-4.63-12.74-12.87v-11.17c0-3.34-2.79-4.36-2.79-6.2v-0.27c0-0.82,0.68-1.57,1.7-1.7l11.3-1.5
		c2.25-0.27,3.61,0.2,3.61,1.57l-0.27,20.7c-0.07,4.97,1.02,6.47,3.4,6.47c1.91,0,3.41-2.32,3.41-5.86v-13.21
		c0-3.34-2.79-4.36-2.79-6.2v-0.27c0-0.82,0.68-1.57,1.7-1.7l11.3-1.5c2.25-0.27,3.34,0.2,3.34,1.57v23.49
		C727.58,555.15,730.31,552.36,730.31,555.36z"/>
	<path class="st0" d="M733.24,551.27c0-4.9,3.68-7.08,7.97-7.08c4.29,0,7.97,2.18,7.97,7.08s-3.68,7.08-7.97,7.08
		C736.92,558.36,733.24,556.18,733.24,551.27z M734.33,513.2c0-6.2,13.76-6.33,13.76-0.07c0,5.65-0.95,16.07-4.22,26.63
		c-0.54,1.77-4.83,1.7-5.31,0C735.62,529.21,734.33,518.38,734.33,513.2z"/>
</g>
</svg>
