<?xml version="1.0" encoding="utf-8"?>
<!-- Generator: Adobe Illustrator 22.1.0, SVG Export Plug-In . SVG Version: 6.00 Build 0)  -->
<svg version="1.1" id="Layer_1" xmlns="http://www.w3.org/2000/svg" xmlns:xlink="http://www.w3.org/1999/xlink" x="0px" y="0px"
	 viewBox="0 0 491.7 65.7" style="enable-background:new 0 0 491.7 65.7;" xml:space="preserve">
<style type="text/css">
	.st0{fill:#493B3A;}
</style>
<g>
	<path class="st0" d="M0,26.8C0,13.1,8.9,2.7,22.7,2.7c10.6,0,20.1,5.4,20.1,13.1c0,3.5-2.4,6.1-6.4,6.1C27,21.8,27,8,20,8
		c-3.3,0-6.5,3.5-6.5,10.2c0,13.2,7.2,21.6,14.6,21.6c5.9,0,8.5-3.9,10.5-6.1c1.4-1.6,4-1,4,1.3c0,8.7-5.9,17.4-19.2,17.4
		C9.3,52.3,0,40.1,0,26.8z"/>
	<path class="st0" d="M82.5,49.6c0,2-4.5,2.5-8.5,2.5c-4.4,0-6.4-0.8-7-3c-1.4,1.8-4,3.3-8.4,3.3c-7.2,0-12.9-3.3-12.9-10.3
		c0-7,5.9-10.5,12.2-10.5c2.7,0,4.8,0.5,6.5,1.5c-0.8-7.9-0.9-11.2-4-11.2c-4,0-1.9,9.5-8.6,9.5c-3.2,0-5.4-2-5.4-4.9
		c0-6.1,7.2-8.1,14-8.1c9.3,0,16.1,5.3,17.2,13.6l1.6,11.8C79.8,48.7,82.5,47.6,82.5,49.6z M65.4,44.1l-0.3-3.2
		c-0.5-4.2-2-5.5-3.3-5.5c-1.4,0-2.3,1.6-2.3,3.9c0,4.9,1.2,9.2,3.5,9.2C64.6,48.5,65.5,46,65.4,44.1z"/>
	<path class="st0" d="M144.8,50v0.3c0,0.9-0.7,1.4-1.7,1.4h-15c-1,0-1.7-0.5-1.7-1.4V50c0-2.1,2.7-3.1,2.5-6.5l-0.7-11.8
		c-0.3-6.3-1.3-8.5-3.7-8.5c-2.3,0-3.2,2.5-3.2,5.8c0.1,0.9,0.2,1.8,0.2,2.8v11.7c0,3.3,2.5,4.4,2.5,6.5v0.3c0,0.9-0.7,1.4-1.7,1.4
		h-15c-1,0-1.7-0.5-1.7-1.4V50c0-2.1,2.5-3.1,2.5-6.5V30.9c0-5.3-1.3-7.6-3.7-7.6c-2.7,0-3.5,2.4-3.5,5.7v14.6
		c0,3.3,3.1,4.4,3.1,6.5v0.3c0,0.9-0.7,1.4-1.7,1.4H85.7c-1,0-1.7-0.5-1.7-1.4V50c0-2.1,3.1-3.1,3.1-6.5V32c0-3.3-3.8-4-3.8-6.1
		v-0.3c0-0.9,0.8-1.4,1.8-1.8l11.5-5.3c1.8-0.9,2.8,0.3,2.8,1.8v1.8c2-2.4,5-3.9,8.7-3.9c4.6,0,8.6,1.7,11,5.2
		c1.9-3.3,5.5-5.2,9.9-5.2c5.6,0,11.6,3,12.5,14l0.9,11.3C142.7,46.9,144.8,47.9,144.8,50z"/>
	<path class="st0" d="M185,34.7c0,10.9-7.8,17.6-16.1,17.6c-2.5,0-4.5-0.5-6.1-1.4v6.7c0,3.3,3.1,4.4,3.1,6.5v0.3
		c0,0.9-0.7,1.4-1.7,1.4h-16c-1,0-1.7-0.5-1.7-1.4V64c0-2.1,2.8-3.1,2.8-6.5V31.9c0-3.1-3.5-3.5-3.5-5.7v-0.4c0-0.9,0.7-1.6,1.7-2.1
		l10.1-5c2.3-1.1,3.1,0,3.1,1.4v1.4c1.6-2.1,4.5-3.3,8.2-3.3C176.4,18.3,185,23.3,185,34.7z M171.5,41.6c0-6.4-1.2-19.8-5.9-19.8
		c-1.9,0-2.9,1.8-2.9,4.5V39c0,6.1,2.5,9.7,5,9.7C170.4,48.7,171.5,46.3,171.5,41.6z"/>
	<path class="st0" d="M201,39.8c0-3.3,1.6-5.5,5.5-5.5c7.8,0,6.8,12.9,16.1,12.9c3.3,0,5.3-1.7,5.3-4.6c0-12.3-26.1-5.2-26.2-24.9
		c0-9.1,7.6-15.1,18.9-15.1c11.1,0,20.1,5.9,20,12.5c0,3.3-1.9,5.6-5.8,5.6c-9.1,0-7.2-13.1-14.5-13.1c-3.6,0-5.2,2.2-5.2,5.1
		c0,14.5,26,6.7,26,25.3c0,9.2-8.8,14.3-19.1,14.3C209.8,52.3,201,46.4,201,39.8z"/>
	<path class="st0" d="M282,34.7c0,10.9-7.8,17.6-16.1,17.6c-2.5,0-4.5-0.5-6.1-1.4v6.7c0,3.3,3.1,4.4,3.1,6.5v0.3
		c0,0.9-0.7,1.4-1.7,1.4h-16c-1,0-1.7-0.5-1.7-1.4V64c0-2.1,2.8-3.1,2.8-6.5V31.9c0-3.1-3.5-3.5-3.5-5.7v-0.4c0-0.9,0.7-1.6,1.7-2.1
		l10.1-5c2.3-1.1,3.1,0,3.1,1.4v1.4c1.6-2.1,4.5-3.3,8.2-3.3C273.3,18.3,282,23.3,282,34.7z M268.5,41.6c0-6.4-1.2-19.8-5.9-19.8
		c-1.9,0-2.9,1.8-2.9,4.5V39c0,6.1,2.5,9.7,5,9.7C267.3,48.7,268.5,46.3,268.5,41.6z"/>
	<path class="st0" d="M315.5,41.6c0,3.7-4.8,10.7-13.8,10.7c-10.2,0-17.1-7-17.1-17.2c0-10.2,8-16.8,16.9-16.8
		c9.1,0,13.1,5,13.1,9.1c0,1.8-1,3.1-2.3,4l-12.3,8c1.7,2.2,4,3.4,6.8,3.4c2.4,0,4.9-1,6.1-2.2C313.9,39.6,315.5,40,315.5,41.6z
		 M296.8,27.5c0,3.1,0.4,5.8,1.2,8.1l4.4-3.2c1.1-0.8,1.8-2.3,1.8-3.8c0-1.9-0.5-6.7-3.8-6.7C298.2,21.9,296.8,24.6,296.8,27.5z"/>
	<path class="st0" d="M354.8,49.6c0,2-4.5,2.5-8.5,2.5c-4.4,0-6.4-0.8-7-3c-1.4,1.8-4,3.3-8.4,3.3C323.7,52.3,318,49,318,42
		c0-7,5.9-10.5,12.2-10.5c2.7,0,4.8,0.5,6.5,1.5c-0.8-7.9-0.9-11.2-4-11.2c-4,0-1.9,9.5-8.7,9.5c-3.2,0-5.4-2-5.4-4.9
		c0-6.1,7.2-8.1,14-8.1c9.3,0,16.1,5.3,17.2,13.6l1.6,11.8C352.2,48.7,354.8,47.6,354.8,49.6z M337.7,44.1l-0.3-3.2
		c-0.5-4.2-2-5.5-3.3-5.5c-1.4,0-2.3,1.6-2.3,3.9c0,4.9,1.2,9.2,3.5,9.2C337,48.5,337.9,46,337.7,44.1z"/>
	<path class="st0" d="M398,49.9v0.3c0,0.9-0.7,1.4-1.7,1.4h-15.7c-1,0-1.7-0.6-1.7-1.5v-0.3c0-2,2.5-2.7,1.4-4.4l-4.8-7.9l-2.9,2.7
		v3.2c0,3.3,3.1,4.4,3.1,6.5v0.3c0,0.9-0.7,1.4-1.7,1.4h-16.4c-1,0-1.7-0.5-1.7-1.4v-0.3c0-2.1,2.8-3.1,2.8-6.5V14.2
		c0-3.3-3.5-4.4-3.5-6.2V7.8c0-0.8,0.7-1.2,1.7-1.7l12.3-5.7c2-1,3.3,0.2,3.3,1.6v31.8l8-6.7c2.2-1.8-1.8-4.2-1.8-6.3v-0.3
		c0-0.9,0.7-1.5,1.7-1.5h11.6c1,0,1.7,0.5,1.7,1.4v0.3c0,2.1-4,3.6-6.8,6.3l-3.4,3.2L394,45.4C395,46.9,398,47.8,398,49.9z"/>
	<path class="st0" d="M427,41.6c0,3.7-4.8,10.7-13.8,10.7c-10.2,0-17.1-7-17.1-17.2c0-10.2,8-16.8,16.9-16.8c9.1,0,13.1,5,13.1,9.1
		c0,1.8-1,3.1-2.3,4l-12.3,8c1.7,2.2,4,3.4,6.8,3.4c2.4,0,4.9-1,6.1-2.2C425.4,39.6,427,40,427,41.6z M408.3,27.5
		c0,3.1,0.4,5.8,1.2,8.1l4.4-3.2c1.1-0.8,1.8-2.3,1.8-3.8c0-1.9-0.5-6.7-3.8-6.7C409.7,21.9,408.3,24.6,408.3,27.5z"/>
	<path class="st0" d="M460.3,25.4c0,3.8-1.4,7.2-5.9,7.2c-7,0-3.9-6.8-7.1-6.8c-1.4,0-1.6,2.1-1.6,4.2v13.4c0,3.3,3.8,4.4,3.8,6.5
		v0.3c0,0.9-0.7,1.4-1.7,1.4h-16.3c-1,0-1.7-0.5-1.7-1.4v-0.3c0-2.1,2.8-3.1,2.8-6.5V31.8c0-3.3-3.5-3.7-3.5-5.8v-0.3
		c0-0.9,0.6-1.6,1.7-2.1l10.8-5.1c1.9-0.9,2.6,0.2,2.6,1.6v5c1.4-4.4,4.6-6.9,9.6-6.9C457.9,18.3,460.3,21.3,460.3,25.4z"/>
	<path class="st0" d="M461.3,44.2c0-3.4,2.4-4.8,5.4-4.8c7.6,0,5.2,9.6,9.9,9.6c1.4,0,2.7-0.8,2.7-3.1c0-8.8-17.4-4-17.4-17
		c0-6.3,6-10.6,14.8-10.6c8.7,0,14.6,3.5,14.6,8.2c0,2.6-2.3,4.6-5.2,4.6c-7.3,0-5-9.5-8.7-9.5c-1.6,0-2.2,1.7-2.2,3.3
		c0,9.4,16.5,4.9,16.5,17c0,5.8-5.4,10.2-15.1,10.2C468.2,52.2,461.3,49.4,461.3,44.2z"/>
</g>
</svg>
