<?xml version="1.0" encoding="utf-8"?>
<!-- Generator: Adobe Illustrator 23.0.1, SVG Export Plug-In . SVG Version: 6.00 Build 0)  -->
<svg version="1.1" id="Layer_1" xmlns="http://www.w3.org/2000/svg" xmlns:xlink="http://www.w3.org/1999/xlink" x="0px" y="0px"
	 viewBox="0 0 1920 1080" style="enable-background:new 0 0 1920 1080;" xml:space="preserve">
<style type="text/css">
	.st0{fill:#493B3A;}
</style>
<g>
	<path class="st0" d="M395.77,555.97v-0.27c0-2.11,2.79-3.13,2.79-6.47v-32.01c0-3.34-2.79-4.36-2.79-6.47v-0.27
		c0-0.89,0.68-1.43,1.7-1.43h16.55c1.02,0,1.7,0.54,1.7,1.43v0.27c0,2.11-3.06,3.13-3.06,6.47v12.94h15.53l0.07-12.94
		c0-3.34-2.72-4.36-2.72-6.47v-0.27c0-0.89,0.61-1.43,1.63-1.43h16.55c1.02,0,1.7,0.54,1.7,1.43v0.27c0,2.11-3.13,3.13-3.13,6.47
		v32.01c0,3.34,3.13,4.36,3.13,6.47v0.27c0,0.89-0.68,1.43-1.7,1.43h-16.55c-1.02,0-1.63-0.54-1.63-1.43v-0.27
		c0-2.11,2.72-3.13,2.72-6.47l-0.07-13.21h-15.53l-0.07,13.21c0,3.34,3.13,4.36,3.13,6.47v0.27c0,0.89-0.68,1.43-1.7,1.43h-16.55
		C396.45,557.4,395.77,556.86,395.77,555.97z"/>
	<path class="st0" d="M449.03,555.97v-0.27c0-2.11,2.79-3.13,2.79-6.47v-10.96c0-3.34-2.79-4.36-2.79-6.2v-0.27
		c0-0.82,0.68-1.23,1.7-1.7l11.65-5.72c2.04-1.02,3.34,0.2,3.34,1.57v23.29c0,3.34,3.13,4.36,3.13,6.47v0.27
		c0,0.89-0.68,1.43-1.7,1.43h-16.41C449.71,557.4,449.03,556.86,449.03,555.97z M450.26,513.82c0-4.22,3.47-7.49,8.65-7.49
		c5.18,0,8.65,3.27,8.65,7.49s-3.47,7.56-8.65,7.56C453.73,521.38,450.26,518.04,450.26,513.82z"/>
	<path class="st0" d="M502.08,530.57c1.7,2.25,3,5.04,3,8.17c0,5.11-2.72,9.19-7.08,11.58c6.13,1.29,7.76,3.68,7.76,6.95
		c0,5.18-8.17,8.85-18.32,8.85c-9.53,0-16.14-2.38-16.14-8.51c0-2.38,1.63-5.04,5.24-5.04c6.67,0,5.99,9.88,10.9,10.01
		c3.06,0.07,4.7-2.11,4.7-5.24c0-2.45-0.54-4.29-1.63-4.9c-0.82,0.07-1.57,0.14-2.38,0.14c-9.94,0-17.03-5.52-17.03-13.82
		c0-8.85,7.08-14.71,17.03-14.71c4.22,0,7.76,0.68,13.21,0.68c4.97,0,5.79,0.61,5.79,2.38
		C507.12,530.09,504.26,529.82,502.08,530.57z M489.96,548.82c1.57,0,2.38-1.7,2.38-4.77c0-4.9-2.59-16.34-6.13-16.34
		c-1.5,0-2.38,1.57-2.38,4.77C483.83,538.95,486.69,548.82,489.96,548.82z"/>
	<path class="st0" d="M549.35,555.7v0.27c0,0.89-0.68,1.43-1.7,1.43H532.6c-1.02,0-1.7-0.54-1.7-1.43v-0.27
		c0-2.11,2.66-3.13,2.45-6.47l-0.68-12.39c-0.34-5.65-1.09-7.83-3.75-7.83c-2.45,0-3.34,2.31-3.34,5.86v14.37
		c0,3.34,3.13,4.36,3.13,6.47v0.27c0,0.89-0.68,1.43-1.7,1.43H510.6c-1.02,0-1.7-0.54-1.7-1.43v-0.27c0-2.11,3.13-3.13,3.13-6.47
		v-29.76c0-3.34-3.47-3.68-3.47-5.79v-0.27c0-0.89,0.68-1.63,1.7-2.11l12.12-5.31c1.7-0.75,2.79-0.2,2.79,1.5v19.2
		c1.91-1.7,4.56-2.66,7.83-2.66c5.72,0,12.12,3,12.94,13.28l0.95,11.92C547.17,552.57,549.35,553.59,549.35,555.7z"/>
	<path class="st0" d="M564.54,545.62c0-3.27,1.57-5.45,5.45-5.45c7.83,0,6.81,12.94,16.07,12.94c3.34,0,5.31-1.7,5.31-4.63
		c0-12.33-26.08-5.18-26.15-24.92c0-9.06,7.56-15.12,18.86-15.12c11.1,0,20.09,5.86,20.02,12.46c0,3.34-1.91,5.58-5.79,5.58
		c-9.06,0-7.22-13.14-14.51-13.14c-3.61,0-5.18,2.18-5.18,5.11c0,14.51,25.95,6.67,25.95,25.33c0,9.19-8.79,14.3-19.07,14.3
		C573.39,558.08,564.54,552.16,564.54,545.62z"/>
	<path class="st0" d="M607.72,541.06c0-10.76,8.1-16.96,17.3-17.03c8.17-0.07,14.85,3.81,14.85,10.56c0,2.18-1.43,4.49-5.58,4.29
		c-7.7-0.48-6.95-11.3-11.24-11.17c-2.18,0.07-3.54,2.93-3.54,6.47c0,8.65,4.15,14.44,10.62,14.44c3.61,0,5.72-1.77,7.08-3.34
		c0.95-1.09,2.72-0.68,2.72,0.89c0,6.13-4.7,11.92-14.44,11.92C614.46,558.08,607.72,549.71,607.72,541.06z"/>
	<path class="st0" d="M682.56,555.7v0.27c0,0.89-0.68,1.43-1.7,1.43h-15.05c-1.02,0-1.7-0.54-1.7-1.43v-0.27
		c0-2.11,2.66-3.13,2.45-6.47l-0.68-12.39c-0.34-5.65-1.09-7.83-3.75-7.83c-2.45,0-3.34,2.31-3.34,5.86v14.37
		c0,3.34,3.13,4.36,3.13,6.47v0.27c0,0.89-0.68,1.43-1.7,1.43h-16.41c-1.02,0-1.7-0.54-1.7-1.43v-0.27c0-2.11,3.13-3.13,3.13-6.47
		v-29.76c0-3.34-3.47-3.68-3.47-5.79v-0.27c0-0.89,0.68-1.63,1.7-2.11l12.12-5.31c1.7-0.75,2.79-0.2,2.79,1.5v19.2
		c1.91-1.7,4.56-2.66,7.83-2.66c5.72,0,12.12,3,12.94,13.28l0.95,11.92C680.38,552.57,682.56,553.59,682.56,555.7z"/>
	<path class="st0" d="M684.41,541.06c0-10.22,9.06-17.03,19-17.03c10.01,0,18.93,6.81,18.93,17.03c0,10.21-8.92,17.02-18.93,17.02
		C693.46,558.08,684.41,551.27,684.41,541.06z M708.17,547.25c0-3.61-2.04-19.54-7.08-19.54c-2.66,0-3.06,2.59-3.06,7.29
		c0,4.36,2.04,19.41,7.01,19.41C707.76,554.4,708.17,551.54,708.17,547.25z"/>
	<path class="st0" d="M724.79,541.06c0-10.22,9.06-17.03,19-17.03c10.01,0,18.93,6.81,18.93,17.03c0,10.21-8.92,17.02-18.93,17.02
		C733.85,558.08,724.79,551.27,724.79,541.06z M748.56,547.25c0-3.61-2.04-19.54-7.08-19.54c-2.66,0-3.06,2.59-3.06,7.29
		c0,4.36,2.04,19.41,7.01,19.41C748.15,554.4,748.56,551.54,748.56,547.25z"/>
	<path class="st0" d="M765.04,555.97v-0.27c0-2.11,2.79-3.13,2.79-6.47v-29.21c0-3.34-2.79-4.36-2.79-6.2v-0.27
		c0-0.82,0.68-1.23,1.7-1.7l11.65-5.72c2.04-1.02,3.34,0.2,3.34,1.57v41.54c0,3.34,3.13,4.36,3.13,6.47v0.27
		c0,0.89-0.68,1.43-1.7,1.43h-16.41C765.72,557.4,765.04,556.86,765.04,555.97z"/>
	<path class="st0" d="M800.19,532.54c0-13.69,8.85-24.11,22.68-24.11c10.62,0,20.09,5.38,20.09,13.08c0,3.54-2.38,6.06-6.4,6.06
		c-9.4,0-9.33-13.76-16.41-13.76c-3.27,0-6.47,3.47-6.47,10.15c0,13.21,7.22,21.59,14.64,21.59c5.86,0,8.51-3.88,10.49-6.13
		c1.36-1.57,4.02-1.02,4.02,1.29c0,8.72-5.86,17.37-19.2,17.37C809.52,558.08,800.19,545.89,800.19,532.54z"/>
	<path class="st0" d="M882.66,555.36c0,1.98-4.49,2.45-8.51,2.45c-4.36,0-6.4-0.82-7.01-3c-1.43,1.77-4.02,3.27-8.38,3.27
		c-7.22,0-12.94-3.27-12.94-10.35c0-6.95,5.86-10.49,12.19-10.49c2.66,0,4.83,0.54,6.54,1.5c-0.82-7.9-0.88-11.17-3.95-11.17
		c-4.02,0-1.91,9.47-8.65,9.47c-3.2,0-5.38-1.98-5.38-4.9c0-6.06,7.22-8.1,14.03-8.1c9.33,0,16.07,5.31,17.16,13.62l1.57,11.78
		C880,554.47,882.66,553.38,882.66,555.36z M865.57,549.84l-0.27-3.2c-0.54-4.22-2.04-5.45-3.34-5.45c-1.36,0-2.32,1.57-2.32,3.88
		c0,4.9,1.23,9.19,3.47,9.19C864.82,554.27,865.7,551.75,865.57,549.84z"/>
	<path class="st0" d="M945.04,555.77v0.27c0,0.89-0.68,1.43-1.7,1.43h-15.05c-1.02,0-1.7-0.54-1.7-1.43v-0.27
		c0-2.11,2.66-3.13,2.45-6.47l-0.68-11.78c-0.34-6.27-1.29-8.51-3.68-8.51c-2.32,0-3.2,2.45-3.2,5.79c0.14,0.89,0.2,1.77,0.2,2.79
		v11.71c0,3.34,2.45,4.36,2.45,6.47v0.27c0,0.89-0.68,1.43-1.7,1.43h-15.05c-1.02,0-1.7-0.54-1.7-1.43v-0.27
		c0-2.11,2.45-3.13,2.45-6.47v-12.67c0-5.31-1.29-7.63-3.68-7.63c-2.66,0-3.54,2.38-3.54,5.65v14.64c0,3.34,3.13,4.36,3.13,6.47
		v0.27c0,0.89-0.68,1.43-1.7,1.43h-16.41c-1.02,0-1.7-0.54-1.7-1.43v-0.27c0-2.11,3.13-3.13,3.13-6.47v-11.51
		c0-3.34-3.81-3.95-3.81-6.06v-0.27c0-0.89,0.75-1.36,1.77-1.84l11.51-5.31c1.84-0.89,2.79,0.34,2.79,1.77v1.84
		c1.97-2.38,5.04-3.88,8.72-3.88c4.63,0,8.65,1.7,11.03,5.18c1.91-3.34,5.52-5.18,9.87-5.18c5.58,0,11.58,3,12.46,13.96l0.88,11.3
		C942.86,552.63,945.04,553.66,945.04,555.77z"/>
	<path class="st0" d="M985.23,540.51c0,10.9-7.76,17.57-16.14,17.57c-2.52,0-4.5-0.48-6.13-1.43v6.67c0,3.34,3.13,4.36,3.13,6.47
		v0.27c0,0.88-0.68,1.43-1.7,1.43h-16c-1.02,0-1.7-0.54-1.7-1.43v-0.27c0-2.11,2.79-3.13,2.79-6.47v-25.67
		c0-3.13-3.47-3.54-3.47-5.65v-0.41c0-0.89,0.68-1.57,1.7-2.11l10.08-4.97c2.25-1.09,3.13,0,3.13,1.43v1.36
		c1.63-2.11,4.49-3.27,8.17-3.27C976.58,524.03,985.23,529.07,985.23,540.51z M971.74,547.39c0-6.4-1.23-19.75-5.86-19.75
		c-1.91,0-2.93,1.77-2.93,4.49v12.67c0,6.13,2.45,9.67,4.97,9.67C970.58,554.47,971.74,552.09,971.74,547.39z"/>
</g>
</svg>
