<?xml version="1.0" encoding="utf-8"?>
<!-- Generator: Adobe Illustrator 23.0.1, SVG Export Plug-In . SVG Version: 6.00 Build 0)  -->
<svg version="1.1" id="Layer_1" xmlns="http://www.w3.org/2000/svg" xmlns:xlink="http://www.w3.org/1999/xlink" x="0px" y="0px"
	 viewBox="0 0 1920 1080" style="enable-background:new 0 0 1920 1080;" xml:space="preserve">
<style type="text/css">
	.st0{fill:#493B3A;}
</style>
<g>
	<path class="st0" d="M394.89,532.54c0-13.69,8.85-24.11,22.68-24.11c10.62,0,20.09,5.38,20.09,13.08c0,3.54-2.38,6.06-6.4,6.06
		c-9.4,0-9.33-13.76-16.41-13.76c-3.27,0-6.47,3.47-6.47,10.15c0,13.21,7.22,21.59,14.64,21.59c5.86,0,8.51-3.88,10.49-6.13
		c1.36-1.57,4.02-1.02,4.02,1.29c0,8.72-5.86,17.37-19.2,17.37C404.22,558.08,394.89,545.89,394.89,532.54z"/>
	<path class="st0" d="M440.25,541.06c0-10.22,9.06-17.03,19-17.03c10.01,0,18.93,6.81,18.93,17.03c0,10.21-8.92,17.02-18.93,17.02
		C449.3,558.08,440.25,551.27,440.25,541.06z M464.01,547.25c0-3.61-2.04-19.54-7.08-19.54c-2.66,0-3.06,2.59-3.06,7.29
		c0,4.36,2.04,19.41,7.01,19.41C463.6,554.4,464.01,551.54,464.01,547.25z"/>
	<path class="st0" d="M480.5,555.97v-0.27c0-2.11,2.79-3.13,2.79-6.47v-29.21c0-3.34-2.79-4.36-2.79-6.2v-0.27
		c0-0.82,0.68-1.23,1.7-1.7l11.64-5.72c2.04-1.02,3.34,0.2,3.34,1.57v41.54c0,3.34,3.13,4.36,3.13,6.47v0.27
		c0,0.89-0.68,1.43-1.7,1.43H482.2C481.18,557.4,480.5,556.86,480.5,555.97z"/>
	<path class="st0" d="M502.36,555.97v-0.27c0-2.11,2.79-3.13,2.79-6.47v-29.21c0-3.34-2.79-4.36-2.79-6.2v-0.27
		c0-0.82,0.68-1.23,1.7-1.7l11.64-5.72c2.04-1.02,3.34,0.2,3.34,1.57v41.54c0,3.34,3.13,4.36,3.13,6.47v0.27
		c0,0.89-0.68,1.43-1.7,1.43h-16.41C503.04,557.4,502.36,556.86,502.36,555.97z"/>
	<path class="st0" d="M555.34,547.39c0,3.68-4.77,10.69-13.82,10.69c-10.15,0-17.09-6.95-17.09-17.23
		c0-10.21,8.04-16.82,16.89-16.82c9.06,0,13.14,4.97,13.14,9.06c0,1.84-0.95,3.13-2.32,4.02l-12.33,8.04
		c1.7,2.18,4.02,3.41,6.81,3.41c2.38,0,4.9-1.02,6.06-2.18C553.71,545.35,555.34,545.82,555.34,547.39z M536.62,533.23
		c0,3.06,0.41,5.79,1.23,8.1l4.36-3.2c1.09-0.82,1.77-2.25,1.77-3.75c0-1.91-0.54-6.67-3.75-6.67
		C537.98,527.71,536.62,530.37,536.62,533.23z"/>
	<path class="st0" d="M588.65,530.57c1.7,2.25,3,5.04,3,8.17c0,5.11-2.72,9.19-7.08,11.58c6.13,1.29,7.76,3.68,7.76,6.95
		c0,5.18-8.17,8.85-18.32,8.85c-9.53,0-16.14-2.38-16.14-8.51c0-2.38,1.63-5.04,5.24-5.04c6.67,0,5.99,9.88,10.9,10.01
		c3.06,0.07,4.7-2.11,4.7-5.24c0-2.45-0.54-4.29-1.63-4.9c-0.82,0.07-1.57,0.14-2.38,0.14c-9.94,0-17.03-5.52-17.03-13.82
		c0-8.85,7.08-14.71,17.03-14.71c4.22,0,7.76,0.68,13.21,0.68c4.97,0,5.79,0.61,5.79,2.38
		C593.69,530.09,590.83,529.82,588.65,530.57z M576.53,548.82c1.57,0,2.38-1.7,2.38-4.77c0-4.9-2.59-16.34-6.13-16.34
		c-1.5,0-2.38,1.57-2.38,4.77C570.4,538.95,573.26,548.82,576.53,548.82z"/>
	<path class="st0" d="M626.72,547.39c0,3.68-4.77,10.69-13.82,10.69c-10.15,0-17.09-6.95-17.09-17.23
		c0-10.21,8.04-16.82,16.89-16.82c9.06,0,13.14,4.97,13.14,9.06c0,1.84-0.95,3.13-2.32,4.02l-12.33,8.04
		c1.7,2.18,4.02,3.41,6.81,3.41c2.38,0,4.9-1.02,6.06-2.18C625.08,545.35,626.72,545.82,626.72,547.39z M607.99,533.23
		c0,3.06,0.41,5.79,1.23,8.1l4.36-3.2c1.09-0.82,1.77-2.25,1.77-3.75c0-1.91-0.54-6.67-3.75-6.67
		C609.35,527.71,607.99,530.37,607.99,533.23z"/>
	<path class="st0" d="M642.04,532.54c0-13.69,8.85-24.11,22.68-24.11c10.62,0,20.09,5.38,20.09,13.08c0,3.54-2.38,6.06-6.4,6.06
		c-9.4,0-9.33-13.76-16.41-13.76c-3.27,0-6.47,3.47-6.47,10.15c0,13.21,7.22,21.59,14.64,21.59c5.86,0,8.51-3.88,10.49-6.13
		c1.36-1.57,4.02-1.02,4.02,1.29c0,8.72-5.86,17.37-19.2,17.37C651.37,558.08,642.04,545.89,642.04,532.54z"/>
	<path class="st0" d="M724.52,555.36c0,1.98-4.49,2.45-8.51,2.45c-4.36,0-6.4-0.82-7.01-3c-1.43,1.77-4.02,3.27-8.38,3.27
		c-7.22,0-12.94-3.27-12.94-10.35c0-6.95,5.86-10.49,12.19-10.49c2.66,0,4.83,0.54,6.54,1.5c-0.82-7.9-0.88-11.17-3.95-11.17
		c-4.02,0-1.91,9.47-8.65,9.47c-3.2,0-5.38-1.98-5.38-4.9c0-6.06,7.22-8.1,14.03-8.1c9.33,0,16.07,5.31,17.16,13.62l1.57,11.78
		C721.86,554.47,724.52,553.38,724.52,555.36z M707.42,549.84l-0.27-3.2c-0.54-4.22-2.04-5.45-3.34-5.45
		c-1.36,0-2.32,1.57-2.32,3.88c0,4.9,1.23,9.19,3.47,9.19C706.67,554.27,707.56,551.75,707.42,549.84z"/>
	<path class="st0" d="M786.9,555.77v0.27c0,0.89-0.68,1.43-1.7,1.43h-15.05c-1.02,0-1.7-0.54-1.7-1.43v-0.27
		c0-2.11,2.66-3.13,2.45-6.47l-0.68-11.78c-0.34-6.27-1.29-8.51-3.68-8.51c-2.32,0-3.2,2.45-3.2,5.79c0.14,0.89,0.2,1.77,0.2,2.79
		v11.71c0,3.34,2.45,4.36,2.45,6.47v0.27c0,0.89-0.68,1.43-1.7,1.43h-15.05c-1.02,0-1.7-0.54-1.7-1.43v-0.27
		c0-2.11,2.45-3.13,2.45-6.47v-12.67c0-5.31-1.29-7.63-3.68-7.63c-2.66,0-3.54,2.38-3.54,5.65v14.64c0,3.34,3.13,4.36,3.13,6.47
		v0.27c0,0.89-0.68,1.43-1.7,1.43h-16.41c-1.02,0-1.7-0.54-1.7-1.43v-0.27c0-2.11,3.13-3.13,3.13-6.47v-11.51
		c0-3.34-3.81-3.95-3.81-6.06v-0.27c0-0.89,0.75-1.36,1.77-1.84l11.51-5.31c1.84-0.89,2.79,0.34,2.79,1.77v1.84
		c1.97-2.38,5.04-3.88,8.72-3.88c4.63,0,8.65,1.7,11.03,5.18c1.91-3.34,5.52-5.18,9.87-5.18c5.58,0,11.58,3,12.46,13.96l0.88,11.3
		C784.72,552.63,786.9,553.66,786.9,555.77z"/>
	<path class="st0" d="M827.08,540.51c0,10.9-7.76,17.57-16.14,17.57c-2.52,0-4.5-0.48-6.13-1.43v6.67c0,3.34,3.13,4.36,3.13,6.47
		v0.27c0,0.88-0.68,1.43-1.7,1.43h-16c-1.02,0-1.7-0.54-1.7-1.43v-0.27c0-2.11,2.79-3.13,2.79-6.47v-25.67
		c0-3.13-3.47-3.54-3.47-5.65v-0.41c0-0.89,0.68-1.57,1.7-2.11l10.08-4.97c2.25-1.09,3.13,0,3.13,1.43v1.36
		c1.63-2.11,4.49-3.27,8.17-3.27C818.44,524.03,827.08,529.07,827.08,540.51z M813.6,547.39c0-6.4-1.23-19.75-5.86-19.75
		c-1.91,0-2.93,1.77-2.93,4.49v12.67c0,6.13,2.45,9.67,4.97,9.67C812.44,554.47,813.6,552.09,813.6,547.39z"/>
</g>
</svg>
