<?xml version="1.0" encoding="utf-8"?>
<!-- Generator: Adobe Illustrator 23.0.1, SVG Export Plug-In . SVG Version: 6.00 Build 0)  -->
<svg version="1.1" id="Layer_1" xmlns="http://www.w3.org/2000/svg" xmlns:xlink="http://www.w3.org/1999/xlink" x="0px" y="0px"
	 viewBox="0 0 1920 1080" style="enable-background:new 0 0 1920 1080;" xml:space="preserve">
<style type="text/css">
	.st0{fill:#493B3A;}
</style>
<g>
	<path class="st0" d="M394.89,532.54c0-13.69,8.85-24.11,22.68-24.11c10.62,0,20.09,5.38,20.09,13.08c0,3.54-2.38,6.06-6.4,6.06
		c-9.4,0-9.33-13.76-16.41-13.76c-3.27,0-6.47,3.47-6.47,10.15c0,13.21,7.22,21.59,14.64,21.59c5.86,0,8.51-3.88,10.49-6.13
		c1.36-1.57,4.02-1.02,4.02,1.29c0,8.72-5.86,17.37-19.2,17.37C404.22,558.08,394.89,545.89,394.89,532.54z"/>
	<path class="st0" d="M477.36,555.36c0,1.98-4.49,2.45-8.51,2.45c-4.36,0-6.4-0.82-7.01-3c-1.43,1.77-4.02,3.27-8.38,3.27
		c-7.22,0-12.94-3.27-12.94-10.35c0-6.95,5.86-10.49,12.19-10.49c2.66,0,4.83,0.54,6.54,1.5c-0.82-7.9-0.89-11.17-3.95-11.17
		c-4.02,0-1.91,9.47-8.65,9.47c-3.2,0-5.38-1.98-5.38-4.9c0-6.06,7.22-8.1,14.03-8.1c9.33,0,16.07,5.31,17.16,13.62l1.57,11.78
		C474.71,554.47,477.36,553.38,477.36,555.36z M460.27,549.84l-0.27-3.2c-0.54-4.22-2.04-5.45-3.34-5.45
		c-1.36,0-2.32,1.57-2.32,3.88c0,4.9,1.23,9.19,3.47,9.19C459.52,554.27,460.4,551.75,460.27,549.84z"/>
	<path class="st0" d="M539.74,555.77v0.27c0,0.89-0.68,1.43-1.7,1.43h-15.05c-1.02,0-1.7-0.54-1.7-1.43v-0.27
		c0-2.11,2.66-3.13,2.45-6.47l-0.68-11.78c-0.34-6.27-1.29-8.51-3.68-8.51c-2.32,0-3.2,2.45-3.2,5.79c0.14,0.89,0.2,1.77,0.2,2.79
		v11.71c0,3.34,2.45,4.36,2.45,6.47v0.27c0,0.89-0.68,1.43-1.7,1.43h-15.05c-1.02,0-1.7-0.54-1.7-1.43v-0.27
		c0-2.11,2.45-3.13,2.45-6.47v-12.67c0-5.31-1.29-7.63-3.68-7.63c-2.66,0-3.54,2.38-3.54,5.65v14.64c0,3.34,3.13,4.36,3.13,6.47
		v0.27c0,0.89-0.68,1.43-1.7,1.43h-16.41c-1.02,0-1.7-0.54-1.7-1.43v-0.27c0-2.11,3.13-3.13,3.13-6.47v-11.51
		c0-3.34-3.81-3.95-3.81-6.06v-0.27c0-0.89,0.75-1.36,1.77-1.84l11.51-5.31c1.84-0.89,2.79,0.34,2.79,1.77v1.84
		c1.97-2.38,5.04-3.88,8.72-3.88c4.63,0,8.65,1.7,11.03,5.18c1.91-3.34,5.52-5.18,9.88-5.18c5.58,0,11.58,3,12.46,13.96l0.88,11.3
		C537.56,552.63,539.74,553.66,539.74,555.77z"/>
	<path class="st0" d="M579.93,540.51c0,10.9-7.76,17.57-16.14,17.57c-2.52,0-4.5-0.48-6.13-1.43v6.67c0,3.34,3.13,4.36,3.13,6.47
		v0.27c0,0.88-0.68,1.43-1.7,1.43h-16c-1.02,0-1.7-0.54-1.7-1.43v-0.27c0-2.11,2.79-3.13,2.79-6.47v-25.67
		c0-3.13-3.47-3.54-3.47-5.65v-0.41c0-0.89,0.68-1.57,1.7-2.11l10.08-4.97c2.25-1.09,3.13,0,3.13,1.43v1.36
		c1.63-2.11,4.49-3.27,8.17-3.27C571.28,524.03,579.93,529.07,579.93,540.51z M566.44,547.39c0-6.4-1.23-19.75-5.86-19.75
		c-1.91,0-2.93,1.77-2.93,4.49v12.67c0,6.13,2.45,9.67,4.97,9.67C565.29,554.47,566.44,552.09,566.44,547.39z"/>
	<path class="st0" d="M595.87,545.62c0-3.27,1.57-5.45,5.45-5.45c7.83,0,6.81,12.94,16.07,12.94c3.34,0,5.31-1.7,5.31-4.63
		c0-12.33-26.08-5.18-26.15-24.92c0-9.06,7.56-15.12,18.86-15.12c11.1,0,20.09,5.86,20.02,12.46c0,3.34-1.91,5.58-5.79,5.58
		c-9.06,0-7.22-13.14-14.5-13.14c-3.61,0-5.18,2.18-5.18,5.11c0,14.51,25.95,6.67,25.95,25.33c0,9.19-8.79,14.3-19.07,14.3
		C604.72,558.08,595.87,552.16,595.87,545.62z"/>
	<path class="st0" d="M676.84,540.51c0,10.9-7.76,17.57-16.14,17.57c-2.52,0-4.5-0.48-6.13-1.43v6.67c0,3.34,3.13,4.36,3.13,6.47
		v0.27c0,0.88-0.68,1.43-1.7,1.43h-16c-1.02,0-1.7-0.54-1.7-1.43v-0.27c0-2.11,2.79-3.13,2.79-6.47v-25.67
		c0-3.13-3.47-3.54-3.47-5.65v-0.41c0-0.89,0.68-1.57,1.7-2.11l10.08-4.97c2.25-1.09,3.13,0,3.13,1.43v1.36
		c1.63-2.11,4.49-3.27,8.17-3.27C668.19,524.03,676.84,529.07,676.84,540.51z M663.36,547.39c0-6.4-1.23-19.75-5.86-19.75
		c-1.91,0-2.93,1.77-2.93,4.49v12.67c0,6.13,2.45,9.67,4.97,9.67C662.2,554.47,663.36,552.09,663.36,547.39z"/>
	<path class="st0" d="M710.42,547.39c0,3.68-4.77,10.69-13.82,10.69c-10.15,0-17.09-6.95-17.09-17.23
		c0-10.21,8.04-16.82,16.89-16.82c9.06,0,13.14,4.97,13.14,9.06c0,1.84-0.95,3.13-2.32,4.02l-12.33,8.04
		c1.7,2.18,4.02,3.41,6.81,3.41c2.38,0,4.9-1.02,6.06-2.18C708.79,545.35,710.42,545.82,710.42,547.39z M691.69,533.23
		c0,3.06,0.41,5.79,1.23,8.1l4.36-3.2c1.09-0.82,1.77-2.25,1.77-3.75c0-1.91-0.54-6.67-3.75-6.67
		C693.05,527.71,691.69,530.37,691.69,533.23z"/>
	<path class="st0" d="M749.72,555.36c0,1.98-4.49,2.45-8.51,2.45c-4.36,0-6.4-0.82-7.01-3c-1.43,1.77-4.02,3.27-8.38,3.27
		c-7.22,0-12.94-3.27-12.94-10.35c0-6.95,5.86-10.49,12.19-10.49c2.66,0,4.83,0.54,6.54,1.5c-0.82-7.9-0.88-11.17-3.95-11.17
		c-4.02,0-1.91,9.47-8.65,9.47c-3.2,0-5.38-1.98-5.38-4.9c0-6.06,7.22-8.1,14.03-8.1c9.33,0,16.07,5.31,17.16,13.62l1.57,11.78
		C747.06,554.47,749.72,553.38,749.72,555.36z M732.62,549.84l-0.27-3.2c-0.54-4.22-2.04-5.45-3.34-5.45
		c-1.36,0-2.32,1.57-2.32,3.88c0,4.9,1.23,9.19,3.47,9.19C731.88,554.27,732.76,551.75,732.62,549.84z"/>
	<path class="st0" d="M792.9,555.7v0.27c0,0.89-0.68,1.43-1.7,1.43h-15.66c-1.02,0-1.7-0.61-1.7-1.5v-0.27
		c0-2.04,2.52-2.72,1.43-4.43l-4.83-7.9l-2.93,2.72v3.2c0,3.34,3.13,4.36,3.13,6.47v0.27c0,0.89-0.68,1.43-1.7,1.43h-16.41
		c-1.02,0-1.7-0.54-1.7-1.43v-0.27c0-2.11,2.79-3.13,2.79-6.47v-29.21c0-3.34-3.47-4.36-3.47-6.2v-0.27c0-0.82,0.68-1.23,1.7-1.7
		l12.33-5.72c2.04-0.95,3.34,0.2,3.34,1.57v31.8l7.97-6.74c2.18-1.84-1.77-4.22-1.77-6.27v-0.27c0-0.89,0.68-1.5,1.7-1.5h11.58
		c1.02,0,1.7,0.54,1.7,1.43v0.27c0,2.11-3.95,3.61-6.81,6.27l-3.41,3.2l10.42,15.32C789.9,552.7,792.9,553.59,792.9,555.7z"/>
	<path class="st0" d="M821.91,547.39c0,3.68-4.77,10.69-13.82,10.69c-10.15,0-17.09-6.95-17.09-17.23
		c0-10.21,8.04-16.82,16.89-16.82c9.06,0,13.14,4.97,13.14,9.06c0,1.84-0.95,3.13-2.32,4.02l-12.33,8.04
		c1.7,2.18,4.02,3.41,6.81,3.41c2.38,0,4.9-1.02,6.06-2.18C820.28,545.35,821.91,545.82,821.91,547.39z M803.18,533.23
		c0,3.06,0.41,5.79,1.23,8.1l4.36-3.2c1.09-0.82,1.77-2.25,1.77-3.75c0-1.91-0.54-6.67-3.75-6.67
		C804.55,527.71,803.18,530.37,803.18,533.23z"/>
	<path class="st0" d="M855.15,531.18c0,3.81-1.36,7.22-5.86,7.22c-6.95,0-3.88-6.81-7.08-6.81c-1.43,0-1.63,2.11-1.63,4.22v13.42
		c0,3.34,3.81,4.36,3.81,6.47v0.27c0,0.89-0.68,1.43-1.7,1.43h-16.28c-1.02,0-1.7-0.54-1.7-1.43v-0.27c0-2.11,2.79-3.13,2.79-6.47
		v-11.65c0-3.34-3.47-3.68-3.47-5.79v-0.27c0-0.89,0.61-1.57,1.7-2.11l10.83-5.11c1.91-0.89,2.59,0.2,2.59,1.63v4.97
		c1.43-4.43,4.63-6.88,9.6-6.88C852.76,524.03,855.15,527.1,855.15,531.18z"/>
	<path class="st0" d="M856.24,549.98c0-3.41,2.38-4.83,5.38-4.83c7.56,0,5.18,9.6,9.88,9.6c1.43,0,2.66-0.75,2.66-3.13
		c0-8.85-17.37-3.95-17.37-16.96c0-6.27,5.99-10.62,14.78-10.62c8.72,0,14.64,3.54,14.64,8.24c0,2.59-2.32,4.63-5.18,4.63
		c-7.29,0-5.04-9.47-8.72-9.47c-1.63,0-2.18,1.7-2.18,3.34c0,9.4,16.48,4.9,16.48,17.02c0,5.79-5.38,10.21-15.12,10.21
		C863.05,558.01,856.24,555.15,856.24,549.98z"/>
</g>
</svg>
