<?xml version="1.0" encoding="utf-8"?>
<!-- Generator: Adobe Illustrator 23.0.1, SVG Export Plug-In . SVG Version: 6.00 Build 0)  -->
<svg version="1.1" id="Layer_1" xmlns="http://www.w3.org/2000/svg" xmlns:xlink="http://www.w3.org/1999/xlink" x="0px" y="0px"
	 viewBox="0 0 1920 1080" style="enable-background:new 0 0 1920 1080;" xml:space="preserve">
<style type="text/css">
	.st0{fill:#493B3A;}
</style>
<g>
	<path class="st0" d="M405.51,555.97v-0.27c0-2.11,3-3.13,3-6.47v-34.46h-2.04c-4.9,0-5.79,8.44-9.33,8.44h-1.29
		c-1.29,0-2.11-0.82-1.91-2.11l1.36-9.81c0.2-1.63,0.89-2.25,2.52-2.25h35.28c1.63,0,2.32,0.61,2.52,2.25l1.36,9.81
		c0.21,1.29-0.61,2.11-1.91,2.11h-1.29c-3.54,0-4.43-8.44-9.33-8.44h-2.04v34.46c0,3.34,3.06,4.36,3.06,6.47v0.27
		c0,0.89-0.68,1.43-1.7,1.43h-16.62C406.12,557.4,405.51,556.86,405.51,555.97z"/>
	<path class="st0" d="M462.31,547.39c0,3.68-4.77,10.69-13.82,10.69c-10.15,0-17.09-6.95-17.09-17.23
		c0-10.21,8.04-16.82,16.89-16.82c9.06,0,13.14,4.97,13.14,9.06c0,1.84-0.95,3.13-2.32,4.02l-12.33,8.04
		c1.7,2.18,4.02,3.41,6.81,3.41c2.38,0,4.9-1.02,6.06-2.18C460.68,545.35,462.31,545.82,462.31,547.39z M443.58,533.23
		c0,3.06,0.41,5.79,1.23,8.1l4.36-3.2c1.09-0.82,1.77-2.25,1.77-3.75c0-1.91-0.54-6.67-3.75-6.67
		C444.95,527.71,443.58,530.37,443.58,533.23z"/>
	<path class="st0" d="M464.36,555.97v-0.27c0-2.11,2.79-3.13,2.79-6.47v-29.21c0-3.34-2.79-4.36-2.79-6.2v-0.27
		c0-0.82,0.68-1.23,1.7-1.7l11.64-5.72c2.04-1.02,3.34,0.2,3.34,1.57v41.54c0,3.34,3.13,4.36,3.13,6.47v0.27
		c0,0.89-0.68,1.43-1.7,1.43h-16.41C465.04,557.4,464.36,556.86,464.36,555.97z"/>
	<path class="st0" d="M486.22,555.97v-0.27c0-2.11,2.79-3.13,2.79-6.47v-29.21c0-3.34-2.79-4.36-2.79-6.2v-0.27
		c0-0.82,0.68-1.23,1.7-1.7l11.64-5.72c2.04-1.02,3.34,0.2,3.34,1.57v41.54c0,3.34,3.13,4.36,3.13,6.47v0.27
		c0,0.89-0.68,1.43-1.7,1.43h-16.41C486.9,557.4,486.22,556.86,486.22,555.97z"/>
	<path class="st0" d="M559.91,555.36c0,1.98-3,2.45-7.76,2.45c-4.43,0-6.33-0.95-6.81-3.54c-1.7,2.45-4.77,3.81-9.33,3.81
		c-6.67,0-12.73-4.63-12.73-12.87v-11.17c0-3.34-2.79-4.36-2.79-6.2v-0.27c0-0.82,0.68-1.57,1.7-1.7l11.3-1.5
		c2.25-0.27,3.61,0.2,3.61,1.57l-0.27,20.7c-0.07,4.97,1.02,6.47,3.41,6.47c1.91,0,3.4-2.32,3.4-5.86v-13.21
		c0-3.34-2.79-4.36-2.79-6.2v-0.27c0-0.82,0.68-1.57,1.7-1.7l11.3-1.5c2.25-0.27,3.34,0.2,3.34,1.57v23.49
		C557.18,555.15,559.91,552.36,559.91,555.36z"/>
	<path class="st0" d="M562.36,549.98c0-3.41,2.38-4.83,5.38-4.83c7.56,0,5.18,9.6,9.88,9.6c1.43,0,2.66-0.75,2.66-3.13
		c0-8.85-17.37-3.95-17.37-16.96c0-6.27,5.99-10.62,14.78-10.62c8.72,0,14.64,3.54,14.64,8.24c0,2.59-2.32,4.63-5.18,4.63
		c-7.29,0-5.04-9.47-8.72-9.47c-1.63,0-2.18,1.7-2.18,3.34c0,9.4,16.48,4.9,16.48,17.02c0,5.79-5.38,10.21-15.12,10.21
		C569.17,558.01,562.36,555.15,562.36,549.98z"/>
	<path class="st0" d="M645.38,555.36c0,1.98-4.49,2.45-8.51,2.45c-4.36,0-6.4-0.82-7.01-3c-1.43,1.77-4.02,3.27-8.38,3.27
		c-7.22,0-12.94-3.27-12.94-10.35c0-6.95,5.86-10.49,12.19-10.49c2.66,0,4.83,0.54,6.54,1.5c-0.82-7.9-0.89-11.17-3.95-11.17
		c-4.02,0-1.91,9.47-8.65,9.47c-3.2,0-5.38-1.98-5.38-4.9c0-6.06,7.22-8.1,14.03-8.1c9.33,0,16.07,5.31,17.16,13.62l1.57,11.78
		C642.72,554.47,645.38,553.38,645.38,555.36z M628.29,549.84l-0.27-3.2c-0.54-4.22-2.04-5.45-3.34-5.45
		c-1.36,0-2.32,1.57-2.32,3.88c0,4.9,1.23,9.19,3.47,9.19C627.54,554.27,628.42,551.75,628.29,549.84z"/>
	<path class="st0" d="M685.42,540.44c0,10.9-7.76,17.64-16.14,17.64c-3.34,0-5.79-0.88-7.7-2.59c0,1.43-0.61,1.91-1.98,1.91h-11.44
		c-1.02,0-1.7-0.54-1.7-1.43v-0.27c0-2.11,2.79-3.13,2.79-6.47v-29.08c0-3.34-3.54-4.02-3.54-6.13v-0.27c0-0.89,0.41-1.36,2.04-2.11
		l11.85-5.45c1.84-0.89,3.54-0.41,3.54,1.7v17.64c1.63-1.02,3.68-1.5,6.13-1.5C676.78,524.03,685.42,529.14,685.42,540.44z
		 M671.94,547.39c0-6.4-1.23-19.75-5.86-19.75c-1.91,0-2.93,1.77-2.93,5.38v13.82c0,3.88,2.45,7.63,4.97,7.63
		C670.78,554.47,671.94,552.09,671.94,547.39z"/>
	<path class="st0" d="M687.95,541.06c0-10.22,9.06-17.03,19-17.03c10.01,0,18.93,6.81,18.93,17.03c0,10.21-8.92,17.02-18.93,17.02
		C697.01,558.08,687.95,551.27,687.95,541.06z M711.72,547.25c0-3.61-2.04-19.54-7.08-19.54c-2.66,0-3.06,2.59-3.06,7.29
		c0,4.36,2.04,19.41,7.01,19.41C711.31,554.4,711.72,551.54,711.72,547.25z"/>
	<path class="st0" d="M767.22,555.36c0,1.98-3,2.45-7.76,2.45c-4.43,0-6.33-0.95-6.81-3.54c-1.7,2.45-4.77,3.81-9.33,3.81
		c-6.67,0-12.74-4.63-12.74-12.87v-11.17c0-3.34-2.79-4.36-2.79-6.2v-0.27c0-0.82,0.68-1.57,1.7-1.7l11.3-1.5
		c2.25-0.27,3.61,0.2,3.61,1.57l-0.27,20.7c-0.07,4.97,1.02,6.47,3.4,6.47c1.91,0,3.41-2.32,3.41-5.86v-13.21
		c0-3.34-2.79-4.36-2.79-6.2v-0.27c0-0.82,0.68-1.57,1.7-1.7l11.3-1.5c2.25-0.27,3.34,0.2,3.34,1.57v23.49
		C764.5,555.15,767.22,552.36,767.22,555.36z"/>
	<path class="st0" d="M772.67,544.87v-15.05h-2.04c-0.95,0-1.7-0.75-1.7-1.7v-1.7c0-1.02,0.68-1.7,1.7-1.7h0.95
		c4.43,0,8.1-2.79,9.12-6.95c0.27-1.16,1.09-1.91,2.04-1.91h1.84c1.16,0,1.98,0.75,1.98,1.91v6.95h6.4c0.95,0,1.7,0.75,1.7,1.7v1.7
		c0,0.95-0.75,1.7-1.7,1.7h-6.4v15.32c0,1.91,1.23,3.13,2.79,3.13c2.52,0,3.47-1.22,4.29-2.18c1.09-1.23,2.72-0.75,2.72,0.61
		c0,5.45-4.02,11.37-11.99,11.37C777.3,558.08,772.67,553.45,772.67,544.87z"/>
	<path class="st0" d="M847.11,526.14v0.27c0,2.11-2.45,3.34-3.88,6.47l-12.8,27.51c-1.77,3.81-5.72,11.71-13.01,11.71
		c-7.08,0-11.51-4.09-11.51-8.38c0-3.2,2.04-5.38,5.45-5.38c7.35,0,4.97,9.81,7.83,9.81c1.98,0,4.29-4.36,5.92-8.31l-14.03-26.97
		c-1.7-3.27-3.95-4.36-3.95-6.47v-0.27c0-0.89,0.68-1.43,1.7-1.43h16.21c0.95,0,1.63,0.61,1.63,1.5v0.27c0,2.04-2.59,2.52-0.88,6.61
		l6.06,14.64l5.45-13.35c2.04-4.97-3.34-5.86-3.34-7.9v-0.27c0-0.89,0.68-1.5,1.7-1.5h9.74
		C846.43,524.71,847.11,525.26,847.11,526.14z"/>
	<path class="st0" d="M846.36,541.06c0-10.22,9.06-17.03,19-17.03c10.01,0,18.93,6.81,18.93,17.03c0,10.21-8.92,17.02-18.93,17.02
		C855.42,558.08,846.36,551.27,846.36,541.06z M870.13,547.25c0-3.61-2.04-19.54-7.08-19.54c-2.66,0-3.06,2.59-3.06,7.29
		c0,4.36,2.04,19.41,7.01,19.41C869.72,554.4,870.13,551.54,870.13,547.25z"/>
	<path class="st0" d="M925.63,555.36c0,1.98-3,2.45-7.76,2.45c-4.43,0-6.33-0.95-6.81-3.54c-1.7,2.45-4.77,3.81-9.33,3.81
		c-6.67,0-12.74-4.63-12.74-12.87v-11.17c0-3.34-2.79-4.36-2.79-6.2v-0.27c0-0.82,0.68-1.57,1.7-1.7l11.3-1.5
		c2.25-0.27,3.61,0.2,3.61,1.57l-0.27,20.7c-0.07,4.97,1.02,6.47,3.4,6.47c1.91,0,3.41-2.32,3.41-5.86v-13.21
		c0-3.34-2.79-4.36-2.79-6.2v-0.27c0-0.82,0.68-1.57,1.7-1.7l11.3-1.5c2.25-0.27,3.34,0.2,3.34,1.57v23.49
		C922.91,555.15,925.63,552.36,925.63,555.36z"/>
	<path class="st0" d="M958.94,531.18c0,3.81-1.36,7.22-5.86,7.22c-6.95,0-3.88-6.81-7.08-6.81c-1.43,0-1.63,2.11-1.63,4.22v13.42
		c0,3.34,3.81,4.36,3.81,6.47v0.27c0,0.89-0.68,1.43-1.7,1.43H930.2c-1.02,0-1.7-0.54-1.7-1.43v-0.27c0-2.11,2.79-3.13,2.79-6.47
		v-11.65c0-3.34-3.47-3.68-3.47-5.79v-0.27c0-0.89,0.61-1.57,1.7-2.11l10.83-5.11c1.91-0.89,2.59,0.2,2.59,1.63v4.97
		c1.43-4.43,4.63-6.88,9.6-6.88C956.55,524.03,958.94,527.1,958.94,531.18z"/>
	<path class="st0" d="M960.03,549.98c0-3.41,2.38-4.83,5.38-4.83c7.56,0,5.18,9.6,9.88,9.6c1.43,0,2.66-0.75,2.66-3.13
		c0-8.85-17.37-3.95-17.37-16.96c0-6.27,5.99-10.62,14.78-10.62c8.72,0,14.64,3.54,14.64,8.24c0,2.59-2.32,4.63-5.18,4.63
		c-7.29,0-5.04-9.47-8.72-9.47c-1.63,0-2.18,1.7-2.18,3.34c0,9.4,16.48,4.9,16.48,17.02c0,5.79-5.38,10.21-15.12,10.21
		C966.84,558.01,960.03,555.15,960.03,549.98z"/>
	<path class="st0" d="M1024.12,547.39c0,3.68-4.77,10.69-13.82,10.69c-10.15,0-17.09-6.95-17.09-17.23
		c0-10.21,8.04-16.82,16.89-16.82c9.06,0,13.14,4.97,13.14,9.06c0,1.84-0.95,3.13-2.32,4.02l-12.33,8.04
		c1.7,2.18,4.02,3.41,6.81,3.41c2.38,0,4.9-1.02,6.06-2.18C1022.48,545.35,1024.12,545.82,1024.12,547.39z M1005.39,533.23
		c0,3.06,0.41,5.79,1.23,8.1l4.36-3.2c1.09-0.82,1.77-2.25,1.77-3.75c0-1.91-0.54-6.67-3.75-6.67
		C1006.75,527.71,1005.39,530.37,1005.39,533.23z"/>
	<path class="st0" d="M1026.16,555.97v-0.27c0-2.11,2.79-3.13,2.79-6.47v-29.21c0-3.34-2.79-4.36-2.79-6.2v-0.27
		c0-0.82,0.68-1.23,1.7-1.7l11.65-5.72c2.04-1.02,3.34,0.2,3.34,1.57v41.54c0,3.34,3.13,4.36,3.13,6.47v0.27
		c0,0.89-0.68,1.43-1.7,1.43h-16.41C1026.84,557.4,1026.16,556.86,1026.16,555.97z"/>
	<path class="st0" d="M1065.73,524.71h7.29c0.95,0,1.7,0.75,1.7,1.7v1.7c0,0.95-0.75,1.7-1.7,1.7h-6.88v19.41
		c0,3.34,3.81,4.36,3.81,6.47v0.27c0,0.89-0.68,1.43-1.7,1.43h-16.41c-1.02,0-1.7-0.54-1.7-1.43v-0.27c0-2.11,2.79-3.13,2.79-6.47
		v-19.41h-4.15c-0.95,0-1.7-0.75-1.7-1.7v-1.7c0-0.95,0.75-1.7,1.7-1.7h4.15v-2.72c0-7.83,4.29-14.3,14.85-14.3
		c6.4,0,11.44,4.29,11.44,9.19c0,2.04-1.57,4.56-4.97,4.56c-8.51,0-4.83-10.15-9.33-10.15
		C1059.81,511.3,1063.82,522.74,1065.73,524.71z"/>
	<path class="st0" d="M1082.15,551.27c0-4.9,3.68-7.08,7.97-7.08c4.29,0,7.97,2.18,7.97,7.08s-3.68,7.08-7.97,7.08
		C1085.82,558.36,1082.15,556.18,1082.15,551.27z M1083.23,513.2c0-6.2,13.76-6.33,13.76-0.07c0,5.65-0.95,16.07-4.22,26.63
		c-0.54,1.77-4.83,1.7-5.31,0C1084.53,529.21,1083.23,518.38,1083.23,513.2z"/>
</g>
</svg>
