<?xml version="1.0" encoding="utf-8"?>
<!-- Generator: Adobe Illustrator 22.1.0, SVG Export Plug-In . SVG Version: 6.00 Build 0)  -->
<svg version="1.1" id="Layer_1" xmlns="http://www.w3.org/2000/svg" xmlns:xlink="http://www.w3.org/1999/xlink" x="0px" y="0px"
	 viewBox="0 0 335.4 63.1" style="enable-background:new 0 0 335.4 63.1;" xml:space="preserve">
<style type="text/css">
	.st0{fill:#493B3A;}
</style>
<g>
	<path class="st0" d="M0,24.1C0,10.4,8.9,0,22.7,0c10.6,0,20.1,5.4,20.1,13.1c0,3.5-2.4,6.1-6.4,6.1C27,19.1,27,5.4,20,5.4
		c-3.3,0-6.5,3.5-6.5,10.2c0,13.2,7.2,21.6,14.6,21.6c5.9,0,8.5-3.9,10.5-6.1c1.4-1.6,4-1,4,1.3c0,8.7-5.9,17.4-19.2,17.4
		C9.3,49.7,0,37.5,0,24.1z"/>
	<path class="st0" d="M82.5,46.9c0,2-4.5,2.5-8.5,2.5c-4.4,0-6.4-0.8-7-3c-1.4,1.8-4,3.3-8.4,3.3c-7.2,0-12.9-3.3-12.9-10.3
		c0-7,5.9-10.5,12.2-10.5c2.7,0,4.8,0.5,6.5,1.5c-0.8-7.9-0.9-11.2-4-11.2c-4,0-1.9,9.5-8.6,9.5c-3.2,0-5.4-2-5.4-4.9
		c0-6.1,7.2-8.1,14-8.1c9.3,0,16.1,5.3,17.2,13.6L79.1,41C79.8,46,82.5,45,82.5,46.9z M65.4,41.4l-0.3-3.2c-0.5-4.2-2-5.5-3.3-5.5
		c-1.4,0-2.3,1.6-2.3,3.9c0,4.9,1.2,9.2,3.5,9.2C64.6,45.8,65.5,43.3,65.4,41.4z"/>
	<path class="st0" d="M144.8,47.3v0.3c0,0.9-0.7,1.4-1.7,1.4h-15c-1,0-1.7-0.5-1.7-1.4v-0.3c0-2.1,2.7-3.1,2.5-6.5l-0.7-11.8
		c-0.3-6.3-1.3-8.5-3.7-8.5c-2.3,0-3.2,2.5-3.2,5.8c0.1,0.9,0.2,1.8,0.2,2.8v11.7c0,3.3,2.5,4.4,2.5,6.5v0.3c0,0.9-0.7,1.4-1.7,1.4
		h-15c-1,0-1.7-0.5-1.7-1.4v-0.3c0-2.1,2.5-3.1,2.5-6.5V28.2c0-5.3-1.3-7.6-3.7-7.6c-2.7,0-3.5,2.4-3.5,5.7v14.6
		c0,3.3,3.1,4.4,3.1,6.5v0.3c0,0.9-0.7,1.4-1.7,1.4H85.7c-1,0-1.7-0.5-1.7-1.4v-0.3c0-2.1,3.1-3.1,3.1-6.5V29.4c0-3.3-3.8-4-3.8-6.1
		V23c0-0.9,0.8-1.4,1.8-1.8l11.5-5.3c1.8-0.9,2.8,0.3,2.8,1.8v1.8c2-2.4,5-3.9,8.7-3.9c4.6,0,8.6,1.7,11,5.2
		c1.9-3.3,5.5-5.2,9.9-5.2c5.6,0,11.6,3,12.5,14l0.9,11.3C142.7,44.2,144.8,45.2,144.8,47.3z"/>
	<path class="st0" d="M185,32.1c0,10.9-7.8,17.6-16.1,17.6c-2.5,0-4.5-0.5-6.1-1.4v6.7c0,3.3,3.1,4.4,3.1,6.5v0.3
		c0,0.9-0.7,1.4-1.7,1.4h-16c-1,0-1.7-0.5-1.7-1.4v-0.3c0-2.1,2.8-3.1,2.8-6.5V29.2c0-3.1-3.5-3.5-3.5-5.7v-0.4
		c0-0.9,0.7-1.6,1.7-2.1l10.1-5c2.3-1.1,3.1,0,3.1,1.4v1.4c1.6-2.1,4.5-3.3,8.2-3.3C176.4,15.6,185,20.6,185,32.1z M171.5,39
		c0-6.4-1.2-19.8-5.9-19.8c-1.9,0-2.9,1.8-2.9,4.5v12.7c0,6.1,2.5,9.7,5,9.7C170.4,46,171.5,43.7,171.5,39z"/>
	<path class="st0" d="M201.7,47.5v-0.3c0-2.1,2.8-3.1,2.8-6.5v-32c0-3.3-2.8-4.4-2.8-6.5V2c0-0.9,0.7-1.4,1.7-1.4h32.8
		c1.6,0,2.3,0.7,2.5,2.3l1.6,9.1c0.2,1.3-0.6,2.1-1.9,2.1H238c-4.2,0-6.2-8.2-11.4-8.2H222c-1.8,0-3.4,0.8-3.4,3.5v14.2h6.4
		c3.3,0,4.4-5.9,6.5-5.9h0.7c0.9,0,1.4,0.7,1.4,1.7v13.3c0,1-0.5,1.7-1.4,1.7h-0.7c-2.1,0-3.1-5.5-6.5-5.5h-6.4v11.9
		c0,3.3,3.1,4.4,3.1,6.5v0.3c0,0.9-0.7,1.4-1.7,1.4h-16.7C202.3,49,201.7,48.4,201.7,47.5z"/>
	<path class="st0" d="M269.5,39c0,3.7-4.8,10.7-13.8,10.7c-10.2,0-17.1-7-17.1-17.2c0-10.2,8-16.8,16.9-16.8c9.1,0,13.1,5,13.1,9.1
		c0,1.8-1,3.1-2.3,4l-12.3,8c1.7,2.2,4,3.4,6.8,3.4c2.4,0,4.9-1,6.1-2.2C267.9,36.9,269.5,37.4,269.5,39z M250.8,24.8
		c0,3.1,0.4,5.8,1.2,8.1l4.4-3.2c1.1-0.8,1.8-2.3,1.8-3.8c0-1.9-0.5-6.7-3.8-6.7C252.1,19.3,250.8,21.9,250.8,24.8z"/>
	<path class="st0" d="M302.7,39c0,3.7-4.8,10.7-13.8,10.7c-10.2,0-17.1-7-17.1-17.2c0-10.2,8-16.8,16.9-16.8c9.1,0,13.1,5,13.1,9.1
		c0,1.8-1,3.1-2.3,4l-12.3,8c1.7,2.2,4,3.4,6.8,3.4c2.4,0,4.9-1,6.1-2.2C301,36.9,302.7,37.4,302.7,39z M283.9,24.8
		c0,3.1,0.4,5.8,1.2,8.1l4.4-3.2c1.1-0.8,1.8-2.3,1.8-3.8c0-1.9-0.5-6.7-3.8-6.7C285.3,19.3,283.9,21.9,283.9,24.8z"/>
	<path class="st0" d="M305,41.5c0-3.4,2.4-4.8,5.4-4.8c7.6,0,5.2,9.6,9.9,9.6c1.4,0,2.7-0.8,2.7-3.1c0-8.8-17.4-4-17.4-17
		c0-6.3,6-10.6,14.8-10.6c8.7,0,14.6,3.5,14.6,8.2c0,2.6-2.3,4.6-5.2,4.6c-7.3,0-5-9.5-8.7-9.5c-1.6,0-2.2,1.7-2.2,3.3
		c0,9.4,16.5,4.9,16.5,17c0,5.8-5.4,10.2-15.1,10.2C311.9,49.6,305,46.7,305,41.5z"/>
</g>
</svg>
