<?xml version="1.0" encoding="utf-8"?>
<!-- Generator: Adobe Illustrator 23.0.1, SVG Export Plug-In . SVG Version: 6.00 Build 0)  -->
<svg version="1.1" id="Layer_1" xmlns="http://www.w3.org/2000/svg" xmlns:xlink="http://www.w3.org/1999/xlink" x="0px" y="0px"
	 viewBox="0 0 1920 1080" style="enable-background:new 0 0 1920 1080;" xml:space="preserve">
<style type="text/css">
	.st0{fill:#493B3A;}
</style>
<g>
	<path class="st0" d="M395.77,555.97v-0.27c0-2.11,2.79-3.13,2.79-6.47v-32.01c0-3.34-2.79-4.36-2.79-6.47v-0.27
		c0-0.89,0.68-1.43,1.7-1.43h16.55c1.02,0,1.7,0.54,1.7,1.43v0.27c0,2.11-3.06,3.13-3.06,6.47v12.94h15.53l0.07-12.94
		c0-3.34-2.72-4.36-2.72-6.47v-0.27c0-0.89,0.61-1.43,1.63-1.43h16.55c1.02,0,1.7,0.54,1.7,1.43v0.27c0,2.11-3.13,3.13-3.13,6.47
		v32.01c0,3.34,3.13,4.36,3.13,6.47v0.27c0,0.89-0.68,1.43-1.7,1.43h-16.55c-1.02,0-1.63-0.54-1.63-1.43v-0.27
		c0-2.11,2.72-3.13,2.72-6.47l-0.07-13.21h-15.53l-0.07,13.21c0,3.34,3.13,4.36,3.13,6.47v0.27c0,0.89-0.68,1.43-1.7,1.43h-16.55
		C396.45,557.4,395.77,556.86,395.77,555.97z"/>
	<path class="st0" d="M447.47,541.06c0-10.22,9.06-17.03,19-17.03c10.01,0,18.93,6.81,18.93,17.03c0,10.21-8.92,17.02-18.93,17.02
		C456.52,558.08,447.47,551.27,447.47,541.06z M471.23,547.25c0-3.61-2.04-19.54-7.08-19.54c-2.66,0-3.06,2.59-3.06,7.29
		c0,4.36,2.04,19.41,7.01,19.41C470.83,554.4,471.23,551.54,471.23,547.25z"/>
	<path class="st0" d="M536.34,526.14v0.27c0,2.11-3.27,3.13-4.43,6.47l-8.1,22.61c-0.48,1.36-1.23,1.91-2.59,1.91h-3.13
		c-1.36,0-2.18-0.54-2.59-1.91l-5.04-16.55l-5.04,16.55c-0.41,1.36-1.23,1.91-2.59,1.91h-2.18c-1.36,0-2.04-0.54-2.59-1.91
		l-9.47-22.61c-1.29-3.13-3.81-4.36-3.81-6.47v-0.27c0-0.89,0.68-1.43,1.7-1.43h14.98c0.95,0,1.63,0.61,1.63,1.5v0.27
		c0,2.04-3.47,2.66-2.18,6.61l3.68,11.37l5.04-17.84c0.27-0.95,0.82-1.57,1.84-1.57l4.56-0.07c1.02,0,1.63,0.48,1.91,1.43
		l4.97,17.77l3.34-9.74c1.77-5.18-3-5.92-3-7.97v-0.27c0-0.89,0.68-1.5,1.7-1.5h9.67C535.66,524.71,536.34,525.26,536.34,526.14z"/>
	<path class="st0" d="M551.46,544.87v-15.05h-2.04c-0.95,0-1.7-0.75-1.7-1.7v-1.7c0-1.02,0.68-1.7,1.7-1.7h0.95
		c4.43,0,8.1-2.79,9.12-6.95c0.27-1.16,1.09-1.91,2.04-1.91h1.84c1.16,0,1.97,0.75,1.97,1.91v6.95h6.4c0.95,0,1.7,0.75,1.7,1.7v1.7
		c0,0.95-0.75,1.7-1.7,1.7h-6.4v15.32c0,1.91,1.23,3.13,2.79,3.13c2.52,0,3.47-1.22,4.29-2.18c1.09-1.23,2.72-0.75,2.72,0.61
		c0,5.45-4.02,11.37-11.99,11.37C556.09,558.08,551.46,553.45,551.46,544.87z"/>
	<path class="st0" d="M576.32,541.06c0-10.22,9.06-17.03,19-17.03c10.01,0,18.93,6.81,18.93,17.03c0,10.21-8.92,17.02-18.93,17.02
		C585.38,558.08,576.32,551.27,576.32,541.06z M600.09,547.25c0-3.61-2.04-19.54-7.08-19.54c-2.66,0-3.06,2.59-3.06,7.29
		c0,4.36,2.04,19.41,7.01,19.41C599.68,554.4,600.09,551.54,600.09,547.25z"/>
	<path class="st0" d="M629.72,549.98c0-3.41,2.38-4.83,5.38-4.83c7.56,0,5.18,9.6,9.88,9.6c1.43,0,2.66-0.75,2.66-3.13
		c0-8.85-17.37-3.95-17.37-16.96c0-6.27,5.99-10.62,14.78-10.62c8.72,0,14.64,3.54,14.64,8.24c0,2.59-2.32,4.63-5.18,4.63
		c-7.29,0-5.04-9.47-8.72-9.47c-1.63,0-2.18,1.7-2.18,3.34c0,9.4,16.48,4.9,16.48,17.02c0,5.79-5.38,10.21-15.12,10.21
		C636.53,558.01,629.72,555.15,629.72,549.98z"/>
	<path class="st0" d="M663.23,555.97v-0.27c0-2.11,2.79-3.13,2.79-6.47v-10.96c0-3.34-2.79-4.36-2.79-6.2v-0.27
		c0-0.82,0.68-1.23,1.7-1.7l11.65-5.72c2.04-1.02,3.34,0.2,3.34,1.57v23.29c0,3.34,3.13,4.36,3.13,6.47v0.27
		c0,0.89-0.68,1.43-1.7,1.43h-16.41C663.91,557.4,663.23,556.86,663.23,555.97z M664.45,513.82c0-4.22,3.47-7.49,8.65-7.49
		s8.65,3.27,8.65,7.49s-3.47,7.56-8.65,7.56S664.45,518.04,664.45,513.82z"/>
	<path class="st0" d="M716.28,530.57c1.7,2.25,3,5.04,3,8.17c0,5.11-2.72,9.19-7.08,11.58c6.13,1.29,7.76,3.68,7.76,6.95
		c0,5.18-8.17,8.85-18.32,8.85c-9.53,0-16.14-2.38-16.14-8.51c0-2.38,1.63-5.04,5.24-5.04c6.67,0,5.99,9.88,10.9,10.01
		c3.06,0.07,4.7-2.11,4.7-5.24c0-2.45-0.54-4.29-1.63-4.9c-0.82,0.07-1.57,0.14-2.38,0.14c-9.94,0-17.02-5.52-17.02-13.82
		c0-8.85,7.08-14.71,17.02-14.71c4.22,0,7.76,0.68,13.21,0.68c4.97,0,5.79,0.61,5.79,2.38
		C721.32,530.09,718.46,529.82,716.28,530.57z M704.16,548.82c1.57,0,2.38-1.7,2.38-4.77c0-4.9-2.59-16.34-6.13-16.34
		c-1.5,0-2.38,1.57-2.38,4.77C698.03,538.95,700.89,548.82,704.16,548.82z"/>
	<path class="st0" d="M764.22,555.77v0.27c0,0.89-0.68,1.43-1.7,1.43h-15.05c-1.02,0-1.7-0.54-1.7-1.43v-0.27
		c0-2.11,2.66-3.13,2.45-6.47l-0.68-11.78c-0.34-6.33-1.09-8.51-3.75-8.51c-2.45,0-3.34,2.31-3.34,5.86v14.44
		c0,3.34,3.13,4.36,3.13,6.47v0.27c0,0.89-0.68,1.43-1.7,1.43h-16.41c-1.02,0-1.7-0.54-1.7-1.43v-0.27c0-2.11,3.13-3.13,3.13-6.47
		v-11.51c0-3.34-3.81-3.95-3.81-6.06v-0.27c0-0.89,0.75-1.29,1.77-1.84l10.69-5.31c1.84-0.95,2.79,0.34,2.79,1.77v2.79
		c1.77-3.13,5.11-4.84,9.53-4.84c5.72,0,12.12,3,13.01,13.96l0.88,11.3C762.04,552.63,764.22,553.66,764.22,555.77z"/>
	<path class="st0" d="M817.75,555.36c0,1.98-3,2.45-7.76,2.45c-4.43,0-6.33-0.95-6.81-3.54c-1.7,2.45-4.77,3.81-9.33,3.81
		c-6.67,0-12.74-4.63-12.74-12.87v-11.17c0-3.34-2.79-4.36-2.79-6.2v-0.27c0-0.82,0.68-1.57,1.7-1.7l11.3-1.5
		c2.25-0.27,3.61,0.2,3.61,1.57l-0.27,20.7c-0.07,4.97,1.02,6.47,3.4,6.47c1.91,0,3.41-2.32,3.41-5.86v-13.21
		c0-3.34-2.79-4.36-2.79-6.2v-0.27c0-0.82,0.68-1.57,1.7-1.7l11.3-1.5c2.25-0.27,3.34,0.2,3.34,1.57v23.49
		C815.03,555.15,817.75,552.36,817.75,555.36z"/>
	<path class="st0" d="M858.34,540.51c0,10.9-7.76,17.57-16.14,17.57c-2.52,0-4.5-0.48-6.13-1.43v6.67c0,3.34,3.13,4.36,3.13,6.47
		v0.27c0,0.88-0.68,1.43-1.7,1.43h-16c-1.02,0-1.7-0.54-1.7-1.43v-0.27c0-2.11,2.79-3.13,2.79-6.47v-25.67
		c0-3.13-3.47-3.54-3.47-5.65v-0.41c0-0.89,0.68-1.57,1.7-2.11l10.08-4.97c2.25-1.09,3.13,0,3.13,1.43v1.36
		c1.63-2.11,4.49-3.27,8.17-3.27C849.7,524.03,858.34,529.07,858.34,540.51z M844.86,547.39c0-6.4-1.23-19.75-5.86-19.75
		c-1.91,0-2.93,1.77-2.93,4.49v12.67c0,6.13,2.45,9.67,4.97,9.67C843.7,554.47,844.86,552.09,844.86,547.39z"/>
	<path class="st0" d="M891.31,524.71h7.29c0.95,0,1.7,0.75,1.7,1.7v1.7c0,0.95-0.75,1.7-1.7,1.7h-6.88v19.41
		c0,3.34,3.81,4.36,3.81,6.47v0.27c0,0.89-0.68,1.43-1.7,1.43h-16.41c-1.02,0-1.7-0.54-1.7-1.43v-0.27c0-2.11,2.79-3.13,2.79-6.47
		v-19.41h-4.15c-0.95,0-1.7-0.75-1.7-1.7v-1.7c0-0.95,0.75-1.7,1.7-1.7h4.15v-2.72c0-7.83,4.29-14.3,14.85-14.3
		c6.4,0,11.44,4.29,11.44,9.19c0,2.04-1.57,4.56-4.97,4.56c-8.51,0-4.83-10.15-9.33-10.15C885.39,511.3,889.4,522.74,891.31,524.71z
		"/>
	<path class="st0" d="M899.62,541.06c0-10.22,9.06-17.03,19-17.03c10.01,0,18.93,6.81,18.93,17.03c0,10.21-8.92,17.02-18.93,17.02
		C908.68,558.08,899.62,551.27,899.62,541.06z M923.39,547.25c0-3.61-2.04-19.54-7.08-19.54c-2.66,0-3.06,2.59-3.06,7.29
		c0,4.36,2.04,19.41,7.01,19.41C922.98,554.4,923.39,551.54,923.39,547.25z"/>
	<path class="st0" d="M971.06,531.18c0,3.81-1.36,7.22-5.86,7.22c-6.95,0-3.88-6.81-7.08-6.81c-1.43,0-1.63,2.11-1.63,4.22v13.42
		c0,3.34,3.81,4.36,3.81,6.47v0.27c0,0.89-0.68,1.43-1.7,1.43h-16.28c-1.02,0-1.7-0.54-1.7-1.43v-0.27c0-2.11,2.79-3.13,2.79-6.47
		v-11.65c0-3.34-3.47-3.68-3.47-5.79v-0.27c0-0.89,0.61-1.57,1.7-2.11l10.83-5.11c1.91-0.89,2.59,0.2,2.59,1.63v4.97
		c1.43-4.43,4.63-6.88,9.6-6.88C968.68,524.03,971.06,527.1,971.06,531.18z"/>
	<path class="st0" d="M983.87,532.54c0-13.69,8.85-24.11,22.68-24.11c10.62,0,20.09,5.38,20.09,13.08c0,3.54-2.38,6.06-6.4,6.06
		c-9.4,0-9.33-13.76-16.41-13.76c-3.27,0-6.47,3.47-6.47,10.15c0,13.21,7.22,21.59,14.64,21.59c5.86,0,8.51-3.88,10.49-6.13
		c1.36-1.57,4.02-1.02,4.02,1.29c0,8.72-5.86,17.37-19.2,17.37C993.2,558.08,983.87,545.89,983.87,532.54z"/>
	<path class="st0" d="M1066.34,555.36c0,1.98-4.49,2.45-8.51,2.45c-4.36,0-6.4-0.82-7.01-3c-1.43,1.77-4.02,3.27-8.38,3.27
		c-7.22,0-12.94-3.27-12.94-10.35c0-6.95,5.86-10.49,12.19-10.49c2.66,0,4.83,0.54,6.54,1.5c-0.82-7.9-0.88-11.17-3.95-11.17
		c-4.02,0-1.91,9.47-8.65,9.47c-3.2,0-5.38-1.98-5.38-4.9c0-6.06,7.22-8.1,14.03-8.1c9.33,0,16.07,5.31,17.16,13.62l1.57,11.78
		C1063.68,554.47,1066.34,553.38,1066.34,555.36z M1049.25,549.84l-0.27-3.2c-0.54-4.22-2.04-5.45-3.34-5.45
		c-1.36,0-2.32,1.57-2.32,3.88c0,4.9,1.23,9.19,3.47,9.19C1048.5,554.27,1049.38,551.75,1049.25,549.84z"/>
	<path class="st0" d="M1128.72,555.77v0.27c0,0.89-0.68,1.43-1.7,1.43h-15.05c-1.02,0-1.7-0.54-1.7-1.43v-0.27
		c0-2.11,2.66-3.13,2.45-6.47l-0.68-11.78c-0.34-6.27-1.29-8.51-3.68-8.51c-2.32,0-3.2,2.45-3.2,5.79c0.14,0.89,0.2,1.77,0.2,2.79
		v11.71c0,3.34,2.45,4.36,2.45,6.47v0.27c0,0.89-0.68,1.43-1.7,1.43h-15.05c-1.02,0-1.7-0.54-1.7-1.43v-0.27
		c0-2.11,2.45-3.13,2.45-6.47v-12.67c0-5.31-1.29-7.63-3.68-7.63c-2.66,0-3.54,2.38-3.54,5.65v14.64c0,3.34,3.13,4.36,3.13,6.47
		v0.27c0,0.89-0.68,1.43-1.7,1.43h-16.41c-1.02,0-1.7-0.54-1.7-1.43v-0.27c0-2.11,3.13-3.13,3.13-6.47v-11.51
		c0-3.34-3.81-3.95-3.81-6.06v-0.27c0-0.89,0.75-1.36,1.77-1.84l11.51-5.31c1.84-0.89,2.79,0.34,2.79,1.77v1.84
		c1.97-2.38,5.04-3.88,8.72-3.88c4.63,0,8.65,1.7,11.03,5.18c1.91-3.34,5.52-5.18,9.87-5.18c5.58,0,11.58,3,12.46,13.96l0.88,11.3
		C1126.54,552.63,1128.72,553.66,1128.72,555.77z"/>
	<path class="st0" d="M1168.91,540.51c0,10.9-7.76,17.57-16.14,17.57c-2.52,0-4.5-0.48-6.13-1.43v6.67c0,3.34,3.13,4.36,3.13,6.47
		v0.27c0,0.88-0.68,1.43-1.7,1.43h-16c-1.02,0-1.7-0.54-1.7-1.43v-0.27c0-2.11,2.79-3.13,2.79-6.47v-25.67
		c0-3.13-3.47-3.54-3.47-5.65v-0.41c0-0.89,0.68-1.57,1.7-2.11l10.08-4.97c2.25-1.09,3.13,0,3.13,1.43v1.36
		c1.63-2.11,4.5-3.27,8.17-3.27C1160.26,524.03,1168.91,529.07,1168.91,540.51z M1155.42,547.39c0-6.4-1.23-19.75-5.86-19.75
		c-1.91,0-2.93,1.77-2.93,4.49v12.67c0,6.13,2.45,9.67,4.97,9.67C1154.27,554.47,1155.42,552.09,1155.42,547.39z"/>
</g>
</svg>
