<?xml version="1.0" encoding="utf-8"?>
<!-- Generator: Adobe Illustrator 23.0.1, SVG Export Plug-In . SVG Version: 6.00 Build 0)  -->
<svg version="1.1" id="Layer_1" xmlns="http://www.w3.org/2000/svg" xmlns:xlink="http://www.w3.org/1999/xlink" x="0px" y="0px"
	 viewBox="0 0 1920 1080" style="enable-background:new 0 0 1920 1080;" xml:space="preserve">
<style type="text/css">
	.st0{fill:#493B3A;}
</style>
<g>
	<g>
		<g>
			<path class="st0" d="M733.44,483.43c0-35.24,23.03-61.02,57.07-61.02c26.99,0,48.99,16.33,48.99,32.49
				c0,6.88-4.47,11.52-12.2,11.52c-18.57,0-17.88-33.52-42.29-33.52c-13.75,0-26.3,13.41-26.3,35.07
				c0,34.04,20.11,56.56,40.91,56.56c17.36,0,27.33-12.55,32.49-21.66c2.75-3.61,8.77-2.58,8.25,2.75
				c-1.89,21.66-17.53,42.12-48.48,42.12C759.4,547.72,733.44,516.6,733.44,483.43z"/>
			<path class="st0" d="M936.46,542.05c0,3.95-8.25,4.98-16.5,4.98c-9.8,0-14.27-1.89-15.3-9.28c-3.78,5.67-11,9.97-22.86,9.97
				c-18.57,0-32.32-8.77-32.32-25.96c-0.17-17.19,14.27-26.13,31.11-26.13c7.91,0,14.27,2.06,18.74,5.16l-0.17-2.06
				c-2.06-20.11-4.81-29.74-15.3-29.74c-13.75,0-9.8,22-22.69,22c-6.19,0-10.31-3.78-10.31-9.63c0-12.38,15.13-19.6,33.01-19.6
				c22.35,0,37.48,13.58,39.88,35.24l3.78,31.8C928.9,540.67,936.46,537.4,936.46,542.05z M901.57,524.68l-0.52-6.02
				c-1.03-10.14-6.53-15.3-13.58-15.3c-7.22,0-12.55,5.67-12.55,14.44c0,11.86,5.67,22.35,14.44,22.35
				C897.27,540.15,902.08,532.42,901.57,524.68z"/>
			<path class="st0" d="M1090.83,542.56v0.69c0,1.89-1.55,2.92-3.78,2.92h-29.74c-2.41,0-3.95-1.03-3.95-2.92v-0.69
				c0-4.3,6.53-5.67,6.02-13.07l-1.72-31.46c-0.86-19.43-5.84-26.47-14.96-26.47c-8.08,0-13.58,7.56-13.92,17.88
				c0.52,2.58,0.69,5.33,0.69,8.25v31.8c0,7.39,6.02,8.77,6.02,13.07v0.69c0,1.89-1.55,2.92-3.78,2.92h-29.74
				c-2.23,0-3.95-1.03-3.95-2.92v-0.69c0-4.3,6.19-5.67,6.19-13.07v-33.52c0-15.99-6.19-24.41-14.96-24.41
				c-9.45,0-14.78,8.25-14.78,19.08v38.85c0,7.39,7.39,8.77,7.39,13.07v0.69c0,1.89-1.55,2.92-3.95,2.92h-31.97
				c-2.23,0-3.95-1.03-3.95-2.92v-0.69c0-4.3,7.39-5.67,7.39-13.07v-40.05c0-7.56-8.42-8.42-8.42-12.72v-0.69
				c0-1.72,1.55-2.58,3.61-3.61l21.66-9.97c3.95-2.06,6.02,0.34,6.02,3.61v8.08c4.99-7.56,13.58-12.38,23.72-12.38
				c12.2,0,22.69,5.33,28.54,15.47c4.64-9.8,14.61-15.47,26.13-15.47c15.64,0,29.91,8.94,31.97,36.96l2.06,30.6
				C1085.16,536.89,1090.83,538.26,1090.83,542.56z"/>
			<path class="st0" d="M1189.85,503.37c0,26.65-18.57,44.35-40.05,44.35c-8.42,0-14.96-2.41-20.11-6.7v25.61
				c0,7.39,7.22,8.77,7.22,13.06v0.69c0,1.89-1.55,2.92-3.95,2.92h-31.11c-2.41,0-3.95-1.03-3.95-2.92v-0.69
				c0-4.3,6.7-5.67,6.7-13.06v-77.36c0-7.05-7.91-7.56-7.91-12.03v-0.86c0-1.72,1.38-3.09,3.44-4.13l19.25-9.45
				c4.81-2.41,6.53-0.17,6.53,3.09l-0.17,7.22c4.64-7.22,13.24-11.35,23.89-11.35C1169.57,461.77,1189.85,476.21,1189.85,503.37z
				 M1164.58,513.68c0-21.66-7.39-44.52-20.97-44.52c-7.22,0-12.89,5.67-13.92,13.92v32.83c0,13.58,8.42,24.41,17.53,24.41
				C1158.22,540.33,1164.58,530.87,1164.58,513.68z"/>
			<path class="st0" d="M733.33,655.16v-0.49c0-3.83,5.06-5.68,5.06-11.73v-58.01c0-6.05-5.06-7.9-5.06-11.73v-0.49
				c0-1.6,1.23-2.59,3.09-2.59h30.24c1.85,0,3.09,0.99,3.09,2.59v0.49c0,3.83-5.68,5.68-5.68,11.73v54.31
				c0,4.44,1.85,8.89,6.54,8.89h8.89c11.23,0,13.33-18.51,19.63-18.51h1.85c2.1,0,3.21,1.36,2.84,3.33l-3.33,20.49
				c-0.49,2.96-1.6,4.32-4.57,4.32h-59.49C734.57,657.75,733.33,656.77,733.33,655.16z"/>
			<path class="st0" d="M809.48,654.67c0-3.83,5.06-5.68,5.06-11.73v-58.01c0-6.05-5.06-7.9-5.06-11.73v-0.49
				c0-1.6,1.23-2.59,3.09-2.59h29.87c1.85,0,3.09,0.99,3.09,2.59v0.49c0,3.83-5.68,5.68-5.68,11.73v58.01
				c0,6.05,5.68,7.9,5.68,11.73v0.49c0,1.6-1.23,2.59-3.09,2.59h-29.87c-1.85,0-3.09-0.99-3.09-2.59V654.67z"/>
			<path class="st0" d="M941.18,572.71v0.49c0,3.83-4.44,4.44-7.53,11.73l-27.77,65.91c-1.97,4.81-4.94,6.91-9.87,6.91
				c-4.57,0-7.16-2.1-9.13-6.42l-30.86-66.4c-3.09-6.66-7.53-7.9-7.53-11.73v-0.49c0-1.6,1.23-2.59,3.09-2.59h37.03
				c1.85,0,3.09,0.99,3.09,2.59v0.49c0,3.83-8.02,5.8-5.68,11.73l17.4,44.19l16.79-44.19c2.34-6.05-5.68-7.9-5.68-11.73v-0.49
				c0-1.6,1.23-2.59,3.09-2.59h20.49C939.94,570.12,941.18,571.11,941.18,572.71z"/>
			<path class="st0" d="M944.88,655.16v-0.49c0-3.83,5.06-5.68,5.06-11.73v-58.01c0-6.05-5.06-7.9-5.06-11.73v-0.49
				c0-1.6,1.23-2.59,3.09-2.59h57.52c2.96,0,4.07,1.11,4.57,4.07l2.96,16.54c0.37,2.34-1.11,3.83-3.46,3.83h-0.74
				c-7.65,0-11.23-14.93-20.61-14.93h-6.91c-3.21,0-6.17,1.48-6.17,6.42v22.46h10.49c7.16,0,7.9-10.61,11.72-10.61h1.23
				c1.6,0,2.59,1.23,2.59,3.09v24.07c0,1.85-0.99,3.09-2.59,3.09h-1.23c-3.83,0-4.57-10-11.72-10h-10.49v20.24
				c0,4.44,1.85,9.87,8.15,9.87h8.89c9.38,0,11.23-15.92,19.5-15.92h1.23c2.22,0,3.21,2.35,2.96,4.07l-2.72,17.03
				c-0.49,2.96-1.6,4.32-4.57,4.32h-60.6C946.11,657.75,944.88,656.77,944.88,655.16z"/>
		</g>
	</g>
</g>
</svg>
