<?xml version="1.0" encoding="UTF-8" standalone="no"?>
<!-- Generator: Adobe Illustrator 23.0.1, SVG Export Plug-In . SVG Version: 6.00 Build 0)  -->

<svg
   xmlns:dc="http://purl.org/dc/elements/1.1/"
   xmlns:cc="http://creativecommons.org/ns#"
   xmlns:rdf="http://www.w3.org/1999/02/22-rdf-syntax-ns#"
   xmlns:svg="http://www.w3.org/2000/svg"
   xmlns="http://www.w3.org/2000/svg"
   xmlns:sodipodi="http://sodipodi.sourceforge.net/DTD/sodipodi-0.dtd"
   xmlns:inkscape="http://www.inkscape.org/namespaces/inkscape"
   version="1.1"
   id="Layer_1"
   x="0px"
   y="0px"
   viewBox="0 0 456.51999 235.35001"
   xml:space="preserve"
   sodipodi:docname="camp-live.svg"
   width="456.51999"
   height="235.35001"
   inkscape:version="0.92.3 (2405546, 2018-03-11)"><metadata
   id="metadata104"><rdf:RDF><cc:Work
       rdf:about=""><dc:format>image/svg+xml</dc:format><dc:type
         rdf:resource="http://purl.org/dc/dcmitype/StillImage" /><dc:title></dc:title></cc:Work></rdf:RDF></metadata><defs
   id="defs102" /><sodipodi:namedview
   pagecolor="#ffffff"
   bordercolor="#666666"
   borderopacity="1"
   objecttolerance="10"
   gridtolerance="10"
   guidetolerance="10"
   inkscape:pageopacity="0"
   inkscape:pageshadow="2"
   inkscape:window-width="1600"
   inkscape:window-height="837"
   id="namedview100"
   showgrid="false"
   fit-margin-top="0"
   fit-margin-left="0"
   fit-margin-right="0"
   fit-margin-bottom="0"
   inkscape:zoom="0.60555556"
   inkscape:cx="226.67"
   inkscape:cy="117.76"
   inkscape:window-x="0"
   inkscape:window-y="30"
   inkscape:window-maximized="1"
   inkscape:current-layer="Layer_1" />
<style
   type="text/css"
   id="style75">
	.st0{fill:#493B3A;}
</style>
<g
   id="g97"
   transform="translate(-733.33,-422.41)">
	<g
   id="g95">
		<g
   id="g93">
			<path
   class="st0"
   d="m 733.44,483.43 c 0,-35.24 23.03,-61.02 57.07,-61.02 26.99,0 48.99,16.33 48.99,32.49 0,6.88 -4.47,11.52 -12.2,11.52 -18.57,0 -17.88,-33.52 -42.29,-33.52 -13.75,0 -26.3,13.41 -26.3,35.07 0,34.04 20.11,56.56 40.91,56.56 17.36,0 27.33,-12.55 32.49,-21.66 2.75,-3.61 8.77,-2.58 8.25,2.75 -1.89,21.66 -17.53,42.12 -48.48,42.12 -32.48,-0.02 -58.44,-31.14 -58.44,-64.31 z"
   id="path77"
   inkscape:connector-curvature="0"
   style="fill:#493b3a" />
			<path
   class="st0"
   d="m 936.46,542.05 c 0,3.95 -8.25,4.98 -16.5,4.98 -9.8,0 -14.27,-1.89 -15.3,-9.28 -3.78,5.67 -11,9.97 -22.86,9.97 -18.57,0 -32.32,-8.77 -32.32,-25.96 -0.17,-17.19 14.27,-26.13 31.11,-26.13 7.91,0 14.27,2.06 18.74,5.16 l -0.17,-2.06 c -2.06,-20.11 -4.81,-29.74 -15.3,-29.74 -13.75,0 -9.8,22 -22.69,22 -6.19,0 -10.31,-3.78 -10.31,-9.63 0,-12.38 15.13,-19.6 33.01,-19.6 22.35,0 37.48,13.58 39.88,35.24 l 3.78,31.8 c 1.37,11.87 8.93,8.6 8.93,13.25 z m -34.89,-17.37 -0.52,-6.02 c -1.03,-10.14 -6.53,-15.3 -13.58,-15.3 -7.22,0 -12.55,5.67 -12.55,14.44 0,11.86 5.67,22.35 14.44,22.35 7.91,0 12.72,-7.73 12.21,-15.47 z"
   id="path79"
   inkscape:connector-curvature="0"
   style="fill:#493b3a" />
			<path
   class="st0"
   d="m 1090.83,542.56 v 0.69 c 0,1.89 -1.55,2.92 -3.78,2.92 h -29.74 c -2.41,0 -3.95,-1.03 -3.95,-2.92 v -0.69 c 0,-4.3 6.53,-5.67 6.02,-13.07 l -1.72,-31.46 c -0.86,-19.43 -5.84,-26.47 -14.96,-26.47 -8.08,0 -13.58,7.56 -13.92,17.88 0.52,2.58 0.69,5.33 0.69,8.25 v 31.8 c 0,7.39 6.02,8.77 6.02,13.07 v 0.69 c 0,1.89 -1.55,2.92 -3.78,2.92 h -29.74 c -2.23,0 -3.95,-1.03 -3.95,-2.92 v -0.69 c 0,-4.3 6.19,-5.67 6.19,-13.07 v -33.52 c 0,-15.99 -6.19,-24.41 -14.96,-24.41 -9.45,0 -14.78,8.25 -14.78,19.08 v 38.85 c 0,7.39 7.39,8.77 7.39,13.07 v 0.69 c 0,1.89 -1.55,2.92 -3.95,2.92 h -31.97 c -2.23,0 -3.95,-1.03 -3.95,-2.92 v -0.69 c 0,-4.3 7.39,-5.67 7.39,-13.07 v -40.05 c 0,-7.56 -8.42,-8.42 -8.42,-12.72 v -0.69 c 0,-1.72 1.55,-2.58 3.61,-3.61 l 21.66,-9.97 c 3.95,-2.06 6.02,0.34 6.02,3.61 v 8.08 c 4.99,-7.56 13.58,-12.38 23.72,-12.38 12.2,0 22.69,5.33 28.54,15.47 4.64,-9.8 14.61,-15.47 26.13,-15.47 15.64,0 29.91,8.94 31.97,36.96 l 2.06,30.6 c 0.49,7.57 6.16,8.94 6.16,13.24 z"
   id="path81"
   inkscape:connector-curvature="0"
   style="fill:#493b3a" />
			<path
   class="st0"
   d="m 1189.85,503.37 c 0,26.65 -18.57,44.35 -40.05,44.35 -8.42,0 -14.96,-2.41 -20.11,-6.7 v 25.61 c 0,7.39 7.22,8.77 7.22,13.06 v 0.69 c 0,1.89 -1.55,2.92 -3.95,2.92 h -31.11 c -2.41,0 -3.95,-1.03 -3.95,-2.92 v -0.69 c 0,-4.3 6.7,-5.67 6.7,-13.06 v -77.36 c 0,-7.05 -7.91,-7.56 -7.91,-12.03 v -0.86 c 0,-1.72 1.38,-3.09 3.44,-4.13 l 19.25,-9.45 c 4.81,-2.41 6.53,-0.17 6.53,3.09 l -0.17,7.22 c 4.64,-7.22 13.24,-11.35 23.89,-11.35 19.94,0.01 40.22,14.45 40.22,41.61 z m -25.27,10.31 c 0,-21.66 -7.39,-44.52 -20.97,-44.52 -7.22,0 -12.89,5.67 -13.92,13.92 v 32.83 c 0,13.58 8.42,24.41 17.53,24.41 11,0.01 17.36,-9.45 17.36,-26.64 z"
   id="path83"
   inkscape:connector-curvature="0"
   style="fill:#493b3a" />
			<path
   class="st0"
   d="m 733.33,655.16 v -0.49 c 0,-3.83 5.06,-5.68 5.06,-11.73 v -58.01 c 0,-6.05 -5.06,-7.9 -5.06,-11.73 v -0.49 c 0,-1.6 1.23,-2.59 3.09,-2.59 h 30.24 c 1.85,0 3.09,0.99 3.09,2.59 v 0.49 c 0,3.83 -5.68,5.68 -5.68,11.73 v 54.31 c 0,4.44 1.85,8.89 6.54,8.89 h 8.89 c 11.23,0 13.33,-18.51 19.63,-18.51 h 1.85 c 2.1,0 3.21,1.36 2.84,3.33 l -3.33,20.49 c -0.49,2.96 -1.6,4.32 -4.57,4.32 h -59.49 c -1.86,-0.01 -3.1,-0.99 -3.1,-2.6 z"
   id="path85"
   inkscape:connector-curvature="0"
   style="fill:#493b3a" />
			<path
   class="st0"
   d="m 809.48,654.67 c 0,-3.83 5.06,-5.68 5.06,-11.73 v -58.01 c 0,-6.05 -5.06,-7.9 -5.06,-11.73 v -0.49 c 0,-1.6 1.23,-2.59 3.09,-2.59 h 29.87 c 1.85,0 3.09,0.99 3.09,2.59 v 0.49 c 0,3.83 -5.68,5.68 -5.68,11.73 v 58.01 c 0,6.05 5.68,7.9 5.68,11.73 v 0.49 c 0,1.6 -1.23,2.59 -3.09,2.59 h -29.87 c -1.85,0 -3.09,-0.99 -3.09,-2.59 z"
   id="path87"
   inkscape:connector-curvature="0"
   style="fill:#493b3a" />
			<path
   class="st0"
   d="m 941.18,572.71 v 0.49 c 0,3.83 -4.44,4.44 -7.53,11.73 l -27.77,65.91 c -1.97,4.81 -4.94,6.91 -9.87,6.91 -4.57,0 -7.16,-2.1 -9.13,-6.42 l -30.86,-66.4 c -3.09,-6.66 -7.53,-7.9 -7.53,-11.73 v -0.49 c 0,-1.6 1.23,-2.59 3.09,-2.59 h 37.03 c 1.85,0 3.09,0.99 3.09,2.59 v 0.49 c 0,3.83 -8.02,5.8 -5.68,11.73 l 17.4,44.19 16.79,-44.19 c 2.34,-6.05 -5.68,-7.9 -5.68,-11.73 v -0.49 c 0,-1.6 1.23,-2.59 3.09,-2.59 h 20.49 c 1.83,0 3.07,0.99 3.07,2.59 z"
   id="path89"
   inkscape:connector-curvature="0"
   style="fill:#493b3a" />
			<path
   class="st0"
   d="m 944.88,655.16 v -0.49 c 0,-3.83 5.06,-5.68 5.06,-11.73 v -58.01 c 0,-6.05 -5.06,-7.9 -5.06,-11.73 v -0.49 c 0,-1.6 1.23,-2.59 3.09,-2.59 h 57.52 c 2.96,0 4.07,1.11 4.57,4.07 l 2.96,16.54 c 0.37,2.34 -1.11,3.83 -3.46,3.83 h -0.74 c -7.65,0 -11.23,-14.93 -20.61,-14.93 h -6.91 c -3.21,0 -6.17,1.48 -6.17,6.42 v 22.46 h 10.49 c 7.16,0 7.9,-10.61 11.72,-10.61 h 1.23 c 1.6,0 2.59,1.23 2.59,3.09 v 24.07 c 0,1.85 -0.99,3.09 -2.59,3.09 h -1.23 c -3.83,0 -4.57,-10 -11.72,-10 h -10.49 v 20.24 c 0,4.44 1.85,9.87 8.15,9.87 h 8.89 c 9.38,0 11.23,-15.92 19.5,-15.92 h 1.23 c 2.22,0 3.21,2.35 2.96,4.07 l -2.72,17.03 c -0.49,2.96 -1.6,4.32 -4.57,4.32 h -60.6 c -1.86,-0.01 -3.09,-0.99 -3.09,-2.6 z"
   id="path91"
   inkscape:connector-curvature="0"
   style="fill:#493b3a" />
		</g>
	</g>
</g>
</svg>