<?xml version="1.0" encoding="utf-8"?>
<!-- Generator: Adobe Illustrator 22.1.0, SVG Export Plug-In . SVG Version: 6.00 Build 0)  -->
<svg version="1.1" id="Layer_1" xmlns="http://www.w3.org/2000/svg" xmlns:xlink="http://www.w3.org/1999/xlink" x="0px" y="0px"
	 viewBox="0 0 1131.6 49.7" style="enable-background:new 0 0 1131.6 49.7;" xml:space="preserve">
<style type="text/css">
	.st0{fill:#493B3A;}
</style>
<g>
	<path class="st0" d="M0,37.3c0-3.3,1.6-5.5,5.5-5.5c7.8,0,6.8,12.9,16.1,12.9c3.3,0,5.3-1.7,5.3-4.6c0-12.3-26.1-5.2-26.1-24.9
		c0-9.1,7.6-15.1,18.9-15.1c11.1,0,20.1,5.9,20,12.5c0,3.3-1.9,5.6-5.8,5.6C24.7,18.1,26.5,5,19.3,5c-3.6,0-5.2,2.2-5.2,5.1
		c0,14.5,26,6.7,26,25.3c0,9.2-8.8,14.3-19.1,14.3C8.9,49.7,0,43.8,0,37.3z"/>
	<path class="st0" d="M44.4,47.3c0-2.1,2.8-3.1,2.8-6.5v-32c0-3.3-2.8-4.4-2.8-6.5V2.1c0-0.9,0.7-1.4,1.7-1.4h16.5
		c1,0,1.7,0.5,1.7,1.4v0.3c0,2.1-3.1,3.1-3.1,6.5v32c0,3.3,3.1,4.4,3.1,6.5v0.3c0,0.9-0.7,1.4-1.7,1.4H46.1c-1,0-1.7-0.5-1.7-1.4
		V47.3z"/>
	<path class="st0" d="M67.7,24.9c0-15.7,11.9-24.8,23-24.8c11.6,0,20.4,5.1,20.4,12.6c0,3.8-2.5,6.2-6.1,6.2
		c-9.7,0-11.2-13.4-17.6-13.4c-3.9,0-6.1,4.3-6.1,10.2c0,13.3,6.5,24.6,14.6,24.6c1,0,1.5-0.1,2-0.2v-8c0-3.3-3.6-4.4-3.6-6.5v-0.3
		c0-0.9,0.9-1.4,1.9-1.4l16.1,0.1c1,0,1.7,0.5,1.7,1.4v0.3c0,2.1-3.1,3.1-3.1,6.5v7.2c0,2.1-0.5,3.5-3.1,5.6c-2.9,2.3-8,4.9-15,4.9
		C77.5,49.7,67.7,37.5,67.7,24.9z"/>
	<path class="st0" d="M164.9,2.1v0.3c0,2.1-3.1,3.1-3.1,6.5v36.6c0,2.3-1.3,3.5-3.5,3.5h-4.4c-1.8,0-2.9-1-4-2.4l-23-30.2v24.5
		c0,3.3,3.3,4.4,3.3,6.5v0.3c0,0.9-0.7,1.4-1.7,1.4h-9.5c-1,0-1.7-0.5-1.7-1.4v-0.3c0-2.1,2.8-3.1,2.8-6.5v-32
		c0-3.3-2.8-4.4-2.8-6.5V2.1c0-0.9,0.7-1.4,1.7-1.4h11.6c1.8,0,2.8,0.8,4,2.4l20.5,28.5V8.8c0-3.3-3.1-4.4-3.1-6.5V2.1
		c0-0.9,0.7-1.4,1.7-1.4h9.6C164.2,0.7,164.9,1.2,164.9,2.1z"/>
	<path class="st0" d="M183.8,30.9V8.9c0-3.3-2.8-4.4-2.8-6.5V2.1c0-0.9,0.7-1.4,1.7-1.4h16.7c1,0,1.7,0.5,1.7,1.4v0.3
		c0,2.1-3.1,3.1-3.1,6.5v22.1c0,9.2,3.5,13.1,10.2,13.1c3.3,0,9.1-1.9,9.1-13.1V8.9c0-3.3-2.8-4.4-2.8-6.5V2.1
		c0-0.9,0.7-1.4,1.7-1.4h9.3c1,0,1.7,0.5,1.7,1.4v0.3c0,2.1-3.1,3.1-3.1,6.5v22.2c0,12.5-7.8,18.7-19.1,18.7
		C192.6,49.7,183.8,43.6,183.8,30.9z"/>
	<path class="st0" d="M231.1,47.6v-0.3c0-2.1,2.8-3.1,2.8-6.5v-32c0-3.3-2.8-4.4-2.8-6.5V2.1c0-0.9,0.7-1.4,1.7-1.4h18.1
		c12.6,0,21.8,4.8,21.8,16.3c0,10.2-7.8,17-19.4,17H248v6.9c0,3.3,3.1,4.4,3.1,6.5v0.3c0,0.9-0.7,1.4-1.7,1.4h-16.7
		C231.8,49,231.1,48.5,231.1,47.6z M253.3,28.7c3.5,0,4.8-4.3,4.8-8.5c0-8.7-4-14.3-7.2-14.3h-0.2c-1.7,0-2.7,1.3-2.7,3.5v15.7
		c0,2.3,0.9,3.5,3.3,3.5L253.3,28.7L253.3,28.7z"/>
	<path class="st0" d="M287.3,47.6v-0.3c0-2.1,2.8-3.1,2.8-6.5v-32c0-3.3-2.8-4.4-2.8-6.5V2.1c0-0.9,0.7-1.4,1.7-1.4h32.8
		c1.6,0,2.3,0.7,2.5,2.3l1.6,9.1c0.2,1.3-0.6,2.1-1.9,2.1h-0.4c-4.2,0-6.2-8.2-11.4-8.2h-4.6c-1.8,0-3.4,0.8-3.4,3.5v14.2h6.4
		c3.3,0,4.4-5.9,6.5-5.9h0.7c0.9,0,1.4,0.7,1.4,1.7v13.3c0,1-0.5,1.7-1.4,1.7h-0.7c-2.1,0-3.1-5.5-6.5-5.5h-6.4v11.9
		c0,3.3,3.1,4.4,3.1,6.5v0.3c0,0.9-0.7,1.4-1.7,1.4H289C287.9,49,287.3,48.5,287.3,47.6z"/>
	<path class="st0" d="M327.2,25.2c0-15,9.6-25.2,24-25.2c12.7,0,24.2,10.1,24.2,25.2s-10.8,24.5-24.2,24.5
		C338.9,49.7,327.2,40.3,327.2,25.2z M361,36.4c0-10.3-7.7-30.6-14.8-30.6c-3.7,0-5.5,2.5-5.5,7.8c0,12.1,7.6,30.4,14.6,30.4
		C359.1,44,361,41.5,361,36.4z"/>
	<path class="st0" d="M426,47.3v0.3c0,0.9-0.7,1.4-1.7,1.4h-18.5c-1,0-1.7-0.5-1.7-1.4v-0.3c0-2.1,3.5-2.9,1.8-6.5l-4.6-9.8
		l-5.2,0.1v9.7c0,3.3,3.1,4.4,3.1,6.5v0.3c0,0.9-0.7,1.4-1.7,1.4h-16.7c-1,0-1.7-0.5-1.7-1.4v-0.3c0-2.1,2.8-3.1,2.8-6.5v-32
		c0-3.3-2.8-4.4-2.8-6.5V2.1c0-0.9,0.7-1.4,1.7-1.4h19.5c12.7,0,20.6,5.3,20.6,15.5c0,4.6-2.5,9.8-7.9,12.6l7.6,12
		C423,44.9,426,45.2,426,47.3z M400.6,25.8h1.4c2.2,0,4.3-2.2,4.3-8.2c0-7-4-11.6-7.2-11.6h-0.3c-1.7,0-2.8,1.6-2.8,3.8V20
		C396,24.4,397.5,25.8,400.6,25.8z"/>
	<path class="st0" d="M440.6,47.6v-0.3c0-2.1,2.8-3.1,2.8-6.5v-32c0-3.3-2.8-4.4-2.8-6.5V2.1c0-0.9,0.7-1.4,1.7-1.4h16.5
		c1,0,1.7,0.5,1.7,1.4v0.3c0,2.1-3.1,3.1-3.1,6.5v12.9h15.5l0.1-12.9c0-3.3-2.7-4.4-2.7-6.5V2.1c0-0.9,0.6-1.4,1.6-1.4h16.5
		c1,0,1.7,0.5,1.7,1.4v0.3c0,2.1-3.1,3.1-3.1,6.5v32c0,3.3,3.1,4.4,3.1,6.5v0.3c0,0.9-0.7,1.4-1.7,1.4h-16.5c-1,0-1.6-0.5-1.6-1.4
		v-0.3c0-2.1,2.7-3.1,2.7-6.5l-0.1-13.2h-15.5l-0.1,13.2c0,3.3,3.1,4.4,3.1,6.5v0.3c0,0.9-0.7,1.4-1.7,1.4h-16.5
		C441.3,49,440.6,48.5,440.6,47.6z"/>
	<path class="st0" d="M495.2,47.3c0-2.1,2.8-3.1,2.8-6.5v-32c0-3.3-2.8-4.4-2.8-6.5V2.1c0-0.9,0.7-1.4,1.7-1.4h16.5
		c1,0,1.7,0.5,1.7,1.4v0.3c0,2.1-3.1,3.1-3.1,6.5v32c0,3.3,3.1,4.4,3.1,6.5v0.3c0,0.9-0.7,1.4-1.7,1.4h-16.5c-1,0-1.7-0.5-1.7-1.4
		L495.2,47.3L495.2,47.3z"/>
	<path class="st0" d="M518.5,24.9c0-15.7,11.8-24.8,23-24.8c11.6,0,20.4,5.1,20.4,12.6c0,3.8-2.4,6.2-6.1,6.2
		c-9.7,0-11.2-13.4-17.6-13.4c-3.9,0-6.1,4.3-6.1,10.2c0,13.3,6.5,24.6,14.6,24.6c0.9,0,1.5-0.1,2-0.2v-8c0-3.3-3.6-4.4-3.6-6.5
		v-0.3c0-0.9,0.9-1.4,1.9-1.4l16.1,0.1c1,0,1.7,0.5,1.7,1.4v0.3c0,2.1-3.1,3.1-3.1,6.5v7.2c0,2.1-0.5,3.5-3.1,5.6
		c-2.9,2.3-8,4.9-15,4.9C528.3,49.7,518.5,37.5,518.5,24.9z"/>
	<path class="st0" d="M568,47.6v-0.3c0-2.1,2.8-3.1,2.8-6.5v-32c0-3.3-2.8-4.4-2.8-6.5V2.1c0-0.9,0.7-1.4,1.7-1.4h16.6
		c1,0,1.7,0.5,1.7,1.4v0.3c0,2.1-3.1,3.1-3.1,6.5v12.9h15.5l0.1-12.9c0-3.3-2.7-4.4-2.7-6.5V2.1c0-0.9,0.6-1.4,1.6-1.4H616
		c1,0,1.7,0.5,1.7,1.4v0.3c0,2.1-3.1,3.1-3.1,6.5v32c0,3.3,3.1,4.4,3.1,6.5v0.3c0,0.9-0.7,1.4-1.7,1.4h-16.6c-1,0-1.6-0.5-1.6-1.4
		v-0.3c0-2.1,2.7-3.1,2.7-6.5l-0.1-13.2h-15.5l-0.1,13.2c0,3.3,3.1,4.4,3.1,6.5v0.3c0,0.9-0.7,1.4-1.7,1.4h-16.6
		C568.7,49,568,48.5,568,47.6z"/>
	<path class="st0" d="M634.7,37.3c0-3.3,1.6-5.5,5.4-5.5c7.8,0,6.8,12.9,16.1,12.9c3.3,0,5.3-1.7,5.3-4.6c0-12.3-26.1-5.2-26.2-24.9
		c0-9.1,7.6-15.1,18.9-15.1c11.1,0,20.1,5.9,20,12.5c0,3.3-1.9,5.6-5.8,5.6c-9.1,0-7.2-13.1-14.5-13.1c-3.6,0-5.2,2.2-5.2,5.1
		c0,14.5,25.9,6.7,25.9,25.3c0,9.2-8.8,14.3-19.1,14.3C643.5,49.7,634.7,43.8,634.7,37.3z"/>
	<path class="st0" d="M678.2,24.2c0-13.7,8.8-24.1,22.7-24.1c10.6,0,20.1,5.4,20.1,13.1c0,3.5-2.4,6.1-6.4,6.1
		c-9.4,0-9.3-13.8-16.4-13.8c-3.3,0-6.5,3.5-6.5,10.2c0,13.2,7.2,21.6,14.6,21.6c5.9,0,8.5-3.9,10.5-6.1c1.4-1.6,4-1,4,1.3
		c0,8.7-5.9,17.4-19.2,17.4C687.5,49.7,678.2,37.5,678.2,24.2z"/>
	<path class="st0" d="M724.8,47.6v-0.3c0-2.1,2.8-3.1,2.8-6.5v-32c0-3.3-2.8-4.4-2.8-6.5V2.1c0-0.9,0.7-1.4,1.7-1.4H743
		c1,0,1.7,0.5,1.7,1.4v0.3c0,2.1-3.1,3.1-3.1,6.5v12.9h15.5l0.1-12.9c0-3.3-2.7-4.4-2.7-6.5V2.1c0-0.9,0.6-1.4,1.6-1.4h16.6
		c1,0,1.7,0.5,1.7,1.4v0.3c0,2.1-3.1,3.1-3.1,6.5v32c0,3.3,3.1,4.4,3.1,6.5v0.3c0,0.9-0.7,1.4-1.7,1.4h-16.6c-1,0-1.6-0.5-1.6-1.4
		v-0.3c0-2.1,2.7-3.1,2.7-6.5l-0.1-13.2h-15.5l-0.1,13.2c0,3.3,3.1,4.4,3.1,6.5v0.3c0,0.9-0.7,1.4-1.7,1.4h-16.6
		C725.5,49,724.8,48.5,724.8,47.6z"/>
	<path class="st0" d="M777.9,25.2c0-15,9.6-25.2,24-25.2c12.7,0,24.2,10.1,24.2,25.2S815.3,49.7,802,49.7
		C789.6,49.7,777.9,40.3,777.9,25.2z M811.7,36.4c0-10.3-7.7-30.6-14.8-30.6c-3.7,0-5.5,2.5-5.5,7.8C791.4,25.7,799,44,806,44
		C809.8,44,811.7,41.5,811.7,36.4z"/>
	<path class="st0" d="M829.3,25.2c0-15,9.6-25.2,24-25.2c12.7,0,24.2,10.1,24.2,25.2s-10.8,24.5-24.2,24.5
		C841,49.7,829.3,40.3,829.3,25.2z M863,36.4c0-10.3-7.7-30.6-14.8-30.6c-3.7,0-5.5,2.5-5.5,7.8c0,12.1,7.6,30.4,14.6,30.4
		C861.2,44,863,41.5,863,36.4z"/>
	<path class="st0" d="M881.1,47.6v-0.3c0-2.1,2.8-3.1,2.8-6.5v-32c0-3.3-2.8-4.4-2.8-6.5V2.1c0-0.9,0.7-1.4,1.7-1.4h16.7
		c1,0,1.7,0.5,1.7,1.4v0.3c0,2.1-3.1,3.1-3.1,6.5v30c0,2.5,1,4.9,3.6,4.9h4.9c6.2,0,7.3-10.2,10.8-10.2h1c1.2,0,1.8,0.8,1.6,1.8
		l-1.8,11.3c-0.3,1.6-0.9,2.4-2.5,2.4h-32.8C881.8,49,881.1,48.5,881.1,47.6z"/>
	<path class="st0" d="M933.5,24.2c0-13.7,8.8-24.1,22.7-24.1c10.6,0,20.1,5.4,20.1,13.1c0,3.5-2.4,6.1-6.4,6.1
		c-9.4,0-9.3-13.8-16.4-13.8c-3.3,0-6.5,3.5-6.5,10.2c0,13.2,7.2,21.6,14.6,21.6c5.9,0,8.5-3.9,10.5-6.1c1.4-1.6,4-1,4,1.3
		c0,8.7-5.9,17.4-19.2,17.4C942.8,49.7,933.5,37.5,933.5,24.2z"/>
	<path class="st0" d="M1026.2,47.3v0.3c0,0.9-0.7,1.4-1.7,1.4h-19.8c-1,0-1.7-0.5-1.7-1.4v-0.3c0-2.1,4.3-3.1,3.1-6.5l-1.1-3.1
		h-15.9l-1.1,3.1c-1.2,3.3,3.1,4.4,3.1,6.5v0.3c0,0.9-0.7,1.4-1.7,1.4h-11.1c-1,0-1.7-0.5-1.7-1.4v-0.3c0-2.1,2.7-2.5,4.2-6.5
		l12.1-31.4c1.1-2.9-2.6-5.3-2.6-7.1V2.1c0-0.9,0.7-1.4,1.7-1.4h10.1c2.5,0,4,1.1,5,3.5l14.9,36.6
		C1023.6,44.7,1026.2,45.2,1026.2,47.3z M1003.1,32l-5.9-17.2L991.2,32H1003.1z"/>
	<path class="st0" d="M1087,47.3v0.3c0,0.9-0.7,1.4-1.7,1.4h-15.7c-1,0-1.7-0.5-1.7-1.4v-0.3c0-2.1,3-3.2,2.4-6.5l-3.6-20.9
		l-9.5,26.9c-0.5,1.4-1.2,2.1-2.7,2.1s-2.4-0.6-3.1-2L1040,18.6l-3.1,22.3c-0.5,3.3,2.4,4.4,2.4,6.5v0.3c0,0.9-0.7,1.4-1.7,1.4h-9.1
		c-1,0-1.7-0.5-1.7-1.4v-0.3c0-2.1,2.3-3.1,2.8-6.5l4.8-32c0.5-3.3-2.8-4.4-2.8-6.5V2.1c0-0.9,0.7-1.4,1.7-1.4h10.2
		c1.9,0,3.3,0.9,3.9,2.7l9,26.3l8.4-26.1c0.6-1.8,1.9-2.8,3.8-2.8h10.5c1,0,1.7,0.5,1.7,1.4v0.3c0,2.1-3.4,3.1-2.8,6.5l6.1,32
		C1084.8,44.2,1087,45.2,1087,47.3z"/>
	<path class="st0" d="M1090,47.6v-0.3c0-2.1,2.8-3.1,2.8-6.5v-32c0-3.3-2.8-4.4-2.8-6.5V2.1c0-0.9,0.7-1.4,1.7-1.4h18.1
		c12.6,0,21.8,4.8,21.8,16.3c0,10.2-7.8,17-19.4,17h-5.2v6.9c0,3.3,3.1,4.4,3.1,6.5v0.3c0,0.9-0.7,1.4-1.7,1.4h-16.7
		C1090.7,49,1090,48.5,1090,47.6z M1112.2,28.7c3.5,0,4.8-4.3,4.8-8.5c0-8.7-3.9-14.3-7.2-14.3h-0.2c-1.7,0-2.7,1.3-2.7,3.5v15.7
		c0,2.3,0.9,3.5,3.3,3.5L1112.2,28.7L1112.2,28.7z"/>
</g>
</svg>
