<?xml version="1.0" encoding="utf-8"?>
<!-- Generator: Adobe Illustrator 22.1.0, SVG Export Plug-In . SVG Version: 6.00 Build 0)  -->
<svg version="1.1" id="Layer_1" xmlns="http://www.w3.org/2000/svg" xmlns:xlink="http://www.w3.org/1999/xlink" x="0px" y="0px"
	 viewBox="0 0 773.1 65.2" style="enable-background:new 0 0 773.1 65.2;" xml:space="preserve">
<style type="text/css">
	.st0{fill:#493B3A;}
</style>
<g>
	<path class="st0" d="M0,49.6v-0.3c0-2.1,2.8-3.1,2.8-6.5v-32C2.8,7.5,0,6.5,0,4.4V4.1c0-0.9,0.7-1.4,1.7-1.4h16.5
		c1,0,1.7,0.5,1.7,1.4v0.3c0,2.1-3.1,3.1-3.1,6.5v12.9h15.5l0.1-12.9c0-3.3-2.7-4.4-2.7-6.5V4.1c0-0.9,0.6-1.4,1.6-1.4H48
		c1,0,1.7,0.5,1.7,1.4v0.3c0,2.1-3.1,3.1-3.1,6.5v32c0,3.3,3.1,4.4,3.1,6.5v0.3c0,0.9-0.7,1.4-1.7,1.4H31.4c-1,0-1.6-0.5-1.6-1.4
		v-0.3c0-2.1,2.7-3.1,2.7-6.5l-0.1-13.2H16.9l-0.1,13.2c0,3.3,3.1,4.4,3.1,6.5v0.3c0,0.9-0.7,1.4-1.7,1.4H1.7
		C0.7,51.1,0,50.5,0,49.6z"/>
	<path class="st0" d="M51.7,34.7c0-10.2,9.1-17,19-17c10,0,18.9,6.8,18.9,17c0,10.2-8.9,17-18.9,17C60.8,51.8,51.7,44.9,51.7,34.7z
		 M75.5,40.9c0-3.6-2-19.5-7.1-19.5c-2.7,0-3.1,2.6-3.1,7.3c0,4.4,2,19.4,7,19.4C75.1,48.1,75.5,45.2,75.5,40.9z"/>
	<path class="st0" d="M140.6,19.8v0.3c0,2.1-3.3,3.1-4.4,6.5L128,49.2c-0.5,1.4-1.2,1.9-2.6,1.9h-3.1c-1.4,0-2.2-0.5-2.6-1.9
		l-5-16.5l-5,16.5c-0.4,1.4-1.2,1.9-2.6,1.9h-2.2c-1.4,0-2-0.5-2.6-1.9l-9.5-22.6c-1.3-3.1-3.8-4.4-3.8-6.5v-0.3
		c0-0.9,0.7-1.4,1.7-1.4h15c1,0,1.6,0.6,1.6,1.5v0.3c0,2-3.5,2.7-2.2,6.6l3.7,11.4l5-17.8c0.3-1,0.8-1.6,1.8-1.6l4.6-0.1
		c1,0,1.6,0.5,1.9,1.4l5,17.8l3.3-9.7c1.8-5.2-3-5.9-3-8v-0.3c0-0.9,0.7-1.5,1.7-1.5h9.7C139.9,18.4,140.6,18.9,140.6,19.8z"/>
	<path class="st0" d="M155.7,38.5v-15h-2c-1,0-1.7-0.8-1.7-1.7v-1.7c0-1,0.7-1.7,1.7-1.7h1c4.4,0,8.1-2.8,9.1-7
		c0.3-1.2,1.1-1.9,2-1.9h1.8c1.2,0,2,0.8,2,1.9v7h6.4c1,0,1.7,0.8,1.7,1.7v1.7c0,1-0.8,1.7-1.7,1.7h-6.4v15.3c0,1.9,1.2,3.1,2.8,3.1
		c2.5,0,3.5-1.2,4.3-2.2c1.1-1.2,2.7-0.8,2.7,0.6c0,5.5-4,11.4-12,11.4C160.3,51.8,155.7,47.1,155.7,38.5z"/>
	<path class="st0" d="M180.6,34.7c0-10.2,9.1-17,19-17c10,0,18.9,6.8,18.9,17c0,10.2-8.9,17-18.9,17
		C189.6,51.8,180.6,44.9,180.6,34.7z M204.3,40.9c0-3.6-2-19.5-7.1-19.5c-2.7,0-3.1,2.6-3.1,7.3c0,4.4,2,19.4,7,19.4
		C203.9,48.1,204.3,45.2,204.3,40.9z"/>
	<path class="st0" d="M233.9,43.6c0-3.4,2.4-4.8,5.4-4.8c7.6,0,5.2,9.6,9.9,9.6c1.4,0,2.7-0.8,2.7-3.1c0-8.8-17.4-4-17.4-17
		c0-6.3,6-10.6,14.8-10.6c8.7,0,14.6,3.5,14.6,8.2c0,2.6-2.3,4.6-5.2,4.6c-7.3,0-5-9.5-8.7-9.5c-1.6,0-2.2,1.7-2.2,3.3
		c0,9.4,16.5,4.9,16.5,17c0,5.8-5.4,10.2-15.1,10.2C240.8,51.7,233.9,48.8,233.9,43.6z"/>
	<path class="st0" d="M267.5,49.6v-0.3c0-2.1,2.8-3.1,2.8-6.5v-11c0-3.3-2.8-4.4-2.8-6.2v-0.3c0-0.8,0.7-1.2,1.7-1.7l11.7-5.7
		c2-1,3.3,0.2,3.3,1.6v23.3c0,3.3,3.1,4.4,3.1,6.5v0.3c0,0.9-0.7,1.4-1.7,1.4h-16.4C268.1,51.1,267.5,50.5,267.5,49.6z M268.7,7.5
		c0-4.2,3.5-7.5,8.7-7.5s8.7,3.3,8.7,7.5c0,4.2-3.5,7.6-8.7,7.6S268.7,11.7,268.7,7.5z"/>
	<path class="st0" d="M320.5,24.2c1.7,2.3,3,5,3,8.2c0,5.1-2.7,9.2-7.1,11.6c6.1,1.3,7.8,3.7,7.8,7c0,5.2-8.2,8.8-18.3,8.8
		c-9.5,0-16.1-2.4-16.1-8.5c0-2.4,1.6-5,5.2-5c6.7,0,6,9.9,10.9,10c3.1,0.1,4.7-2.1,4.7-5.2c0-2.5-0.5-4.3-1.6-4.9
		c-0.8,0.1-1.6,0.1-2.4,0.1c-9.9,0-17-5.5-17-13.8c0-8.8,7.1-14.7,17-14.7c4.2,0,7.8,0.7,13.2,0.7c5,0,5.8,0.6,5.8,2.4
		C325.6,23.8,322.7,23.5,320.5,24.2z M308.4,42.5c1.6,0,2.4-1.7,2.4-4.8c0-4.9-2.6-16.3-6.1-16.3c-1.5,0-2.4,1.6-2.4,4.8
		C302.3,32.6,305.1,42.5,308.4,42.5z"/>
	<path class="st0" d="M368.4,49.4v0.3c0,0.9-0.7,1.4-1.7,1.4h-15c-1,0-1.7-0.5-1.7-1.4v-0.3c0-2.1,2.7-3.1,2.5-6.5l-0.7-11.8
		c-0.3-6.3-1.1-8.5-3.8-8.5c-2.5,0-3.3,2.3-3.3,5.9V43c0,3.3,3.1,4.4,3.1,6.5v0.3c0,0.9-0.7,1.4-1.7,1.4h-16.4c-1,0-1.7-0.5-1.7-1.4
		v-0.3c0-2.1,3.1-3.1,3.1-6.5V31.5c0-3.3-3.8-4-3.8-6.1v-0.3c0-0.9,0.8-1.3,1.8-1.8l10.7-5.3c1.8-1,2.8,0.3,2.8,1.8v2.8
		c1.8-3.1,5.1-4.8,9.5-4.8c5.7,0,12.1,3,13,14L366,43C366.3,46.3,368.4,47.3,368.4,49.4z"/>
	<path class="st0" d="M422,49c0,2-3,2.5-7.8,2.5c-4.4,0-6.3-1-6.8-3.5c-1.7,2.5-4.8,3.8-9.3,3.8c-6.7,0-12.7-4.6-12.7-12.9V27.7
		c0-3.3-2.8-4.4-2.8-6.2v-0.3c0-0.8,0.7-1.6,1.7-1.7l11.3-1.5c2.3-0.3,3.6,0.2,3.6,1.6l-0.3,20.7c-0.1,5,1,6.5,3.4,6.5
		c1.9,0,3.4-2.3,3.4-5.9V27.7c0-3.3-2.8-4.4-2.8-6.2v-0.3c0-0.8,0.7-1.6,1.7-1.7l11.3-1.5c2.3-0.3,3.3,0.2,3.3,1.6v23.5
		C419.3,48.8,422,46,422,49z"/>
	<path class="st0" d="M462.6,34.2c0,10.9-7.8,17.6-16.1,17.6c-2.5,0-4.5-0.5-6.1-1.4V57c0,3.3,3.1,4.4,3.1,6.5v0.3
		c0,0.9-0.7,1.4-1.7,1.4h-16c-1,0-1.7-0.5-1.7-1.4v-0.3c0-2.1,2.8-3.1,2.8-6.5V31.3c0-3.1-3.5-3.5-3.5-5.7v-0.4
		c0-0.9,0.7-1.6,1.7-2.1l10.1-5c2.3-1.1,3.1,0,3.1,1.4V21c1.6-2.1,4.5-3.3,8.2-3.3C453.9,17.7,462.6,22.7,462.6,34.2z M449.1,41.1
		c0-6.4-1.2-19.8-5.9-19.8c-1.9,0-2.9,1.8-2.9,4.5v12.7c0,6.1,2.5,9.7,5,9.7C447.9,48.1,449.1,45.8,449.1,41.1z"/>
	<path class="st0" d="M495.5,18.4h7.3c1,0,1.7,0.8,1.7,1.7v1.7c0,1-0.8,1.7-1.7,1.7h-6.9v19.4c0,3.3,3.8,4.4,3.8,6.5v0.3
		c0,0.9-0.7,1.4-1.7,1.4h-16.4c-1,0-1.7-0.5-1.7-1.4v-0.3c0-2.1,2.8-3.1,2.8-6.5V23.5h-4.2c-1,0-1.7-0.8-1.7-1.7v-1.7
		c0-1,0.8-1.7,1.7-1.7h4.2v-2.7c0-7.8,4.3-14.3,14.8-14.3c6.4,0,11.4,4.3,11.4,9.2c0,2-1.6,4.6-5,4.6c-8.5,0-4.8-10.1-9.3-10.1
		C489.6,5,493.6,16.4,495.5,18.4z"/>
	<path class="st0" d="M503.9,34.7c0-10.2,9.1-17,19-17c10,0,18.9,6.8,18.9,17c0,10.2-8.9,17-18.9,17
		C512.9,51.8,503.9,44.9,503.9,34.7z M527.6,40.9c0-3.6-2-19.5-7.1-19.5c-2.7,0-3.1,2.6-3.1,7.3c0,4.4,2,19.4,7,19.4
		C527.2,48.1,527.6,45.2,527.6,40.9z"/>
	<path class="st0" d="M575.3,24.8c0,3.8-1.4,7.2-5.9,7.2c-7,0-3.9-6.8-7.1-6.8c-1.4,0-1.6,2.1-1.6,4.2v13.4c0,3.3,3.8,4.4,3.8,6.5
		v0.3c0,0.9-0.7,1.4-1.7,1.4h-16.3c-1,0-1.7-0.5-1.7-1.4v-0.3c0-2.1,2.8-3.1,2.8-6.5V31.2c0-3.3-3.5-3.7-3.5-5.8v-0.3
		c0-0.9,0.6-1.6,1.7-2.1l10.8-5.1c1.9-0.9,2.6,0.2,2.6,1.6v5c1.4-4.4,4.6-6.9,9.6-6.9C572.9,17.7,575.3,20.8,575.3,24.8z"/>
	<path class="st0" d="M588.1,26.2c0-13.7,8.8-24.1,22.7-24.1c10.6,0,20.1,5.4,20.1,13.1c0,3.5-2.4,6.1-6.4,6.1
		c-9.4,0-9.3-13.8-16.4-13.8c-3.3,0-6.5,3.5-6.5,10.2c0,13.2,7.2,21.6,14.6,21.6c5.9,0,8.5-3.9,10.5-6.1c1.4-1.6,4-1,4,1.3
		c0,8.7-5.9,17.4-19.2,17.4C597.4,51.8,588.1,39.6,588.1,26.2z"/>
	<path class="st0" d="M670.6,49c0,2-4.5,2.5-8.5,2.5c-4.4,0-6.4-0.8-7-3c-1.4,1.8-4,3.3-8.4,3.3c-7.2,0-12.9-3.3-12.9-10.3
		c0-7,5.9-10.5,12.2-10.5c2.7,0,4.8,0.5,6.5,1.5c-0.8-7.9-0.9-11.2-3.9-11.2c-4,0-1.9,9.5-8.7,9.5c-3.2,0-5.4-2-5.4-4.9
		c0-6.1,7.2-8.1,14-8.1c9.3,0,16.1,5.3,17.2,13.6l1.6,11.8C667.9,48.1,670.6,47,670.6,49z M653.5,43.5l-0.3-3.2
		c-0.5-4.2-2-5.5-3.3-5.5c-1.4,0-2.3,1.6-2.3,3.9c0,4.9,1.2,9.2,3.5,9.2C652.7,47.9,653.6,45.4,653.5,43.5z"/>
	<path class="st0" d="M732.9,49.4v0.3c0,0.9-0.7,1.4-1.7,1.4h-15.1c-1,0-1.7-0.5-1.7-1.4v-0.3c0-2.1,2.7-3.1,2.4-6.5l-0.7-11.8
		c-0.3-6.3-1.3-8.5-3.7-8.5c-2.3,0-3.2,2.5-3.2,5.8c0.1,0.9,0.2,1.8,0.2,2.8V43c0,3.3,2.4,4.4,2.4,6.5v0.3c0,0.9-0.7,1.4-1.7,1.4
		h-15.1c-1,0-1.7-0.5-1.7-1.4v-0.3c0-2.1,2.4-3.1,2.4-6.5V30.3c0-5.3-1.3-7.6-3.7-7.6c-2.7,0-3.5,2.4-3.5,5.7V43
		c0,3.3,3.1,4.4,3.1,6.5v0.3c0,0.9-0.7,1.4-1.7,1.4h-16.4c-1,0-1.7-0.5-1.7-1.4v-0.3c0-2.1,3.1-3.1,3.1-6.5V31.5
		c0-3.3-3.8-4-3.8-6.1v-0.3c0-0.9,0.8-1.4,1.8-1.8l11.5-5.3c1.8-0.9,2.8,0.3,2.8,1.8v1.8c2-2.4,5-3.9,8.7-3.9c4.6,0,8.7,1.7,11,5.2
		c1.9-3.3,5.5-5.2,9.9-5.2c5.6,0,11.6,3,12.5,14l0.9,11.3C730.8,46.3,732.9,47.3,732.9,49.4z"/>
	<path class="st0" d="M773.1,34.2c0,10.9-7.8,17.6-16.1,17.6c-2.5,0-4.5-0.5-6.1-1.4V57c0,3.3,3.1,4.4,3.1,6.5v0.3
		c0,0.9-0.7,1.4-1.7,1.4h-16c-1,0-1.7-0.5-1.7-1.4v-0.3c0-2.1,2.8-3.1,2.8-6.5V31.3c0-3.1-3.5-3.5-3.5-5.7v-0.4
		c0-0.9,0.7-1.6,1.7-2.1l10.1-5c2.3-1.1,3.1,0,3.1,1.4V21c1.6-2.1,4.5-3.3,8.2-3.3C764.5,17.7,773.1,22.7,773.1,34.2z M759.7,41.1
		c0-6.4-1.2-19.8-5.9-19.8c-1.9,0-2.9,1.8-2.9,4.5v12.7c0,6.1,2.4,9.7,5,9.7C758.5,48.1,759.7,45.8,759.7,41.1z"/>
</g>
</svg>
