<?xml version="1.0" encoding="utf-8"?>
<!-- Generator: Adobe Illustrator 22.1.0, SVG Export Plug-In . SVG Version: 6.00 Build 0)  -->
<svg version="1.1" id="Layer_1" xmlns="http://www.w3.org/2000/svg" xmlns:xlink="http://www.w3.org/1999/xlink" x="0px" y="0px"
	 viewBox="0 0 355.3 66.4" style="enable-background:new 0 0 355.3 66.4;" xml:space="preserve">
<style type="text/css">
	.st0{fill:#493B3A;}
</style>
<g>
	<path class="st0" d="M11.6,50.3V50c0-2.1,3-3.1,3-6.5V9.1h-2c-4.9,0-5.8,8.4-9.3,8.4H1.9c-1.3,0-2.1-0.8-1.9-2.1l1.4-9.8
		C1.6,4,2.3,3.4,3.9,3.4h35.3c1.6,0,2.3,0.6,2.5,2.3l1.4,9.8c0.2,1.3-0.6,2.1-1.9,2.1h-1.3c-3.5,0-4.4-8.4-9.3-8.4h-2v34.5
		c0,3.3,3.1,4.4,3.1,6.5v0.3c0,0.9-0.7,1.4-1.7,1.4H13.2C12.2,51.7,11.6,51.2,11.6,50.3z"/>
	<path class="st0" d="M85.1,50v0.3c0,0.9-0.7,1.4-1.7,1.4h-15c-1,0-1.7-0.5-1.7-1.4V50c0-2.1,2.7-3.1,2.5-6.5l-0.7-12.4
		c-0.3-5.7-1.1-7.8-3.8-7.8c-2.5,0-3.3,2.3-3.3,5.9v14.4c0,3.3,3.1,4.4,3.1,6.5v0.3c0,0.9-0.7,1.4-1.7,1.4H46.3
		c-1,0-1.7-0.5-1.7-1.4V50c0-2.1,3.1-3.1,3.1-6.5V13.8c0-3.3-3.5-3.7-3.5-5.8V7.7c0-0.9,0.7-1.6,1.7-2.1l12.1-5.3
		c1.7-0.8,2.8-0.2,2.8,1.5V21c1.9-1.7,4.6-2.7,7.8-2.7c5.7,0,12.1,3,12.9,13.3l1,11.9C82.9,46.9,85.1,47.9,85.1,50z"/>
	<path class="st0" d="M124,49.7c0,2-4.5,2.5-8.5,2.5c-4.4,0-6.4-0.8-7-3c-1.4,1.8-4,3.3-8.4,3.3c-7.2,0-12.9-3.3-12.9-10.3
		c0-7,5.9-10.5,12.2-10.5c2.7,0,4.8,0.5,6.5,1.5c-0.8-7.9-0.9-11.2-4-11.2c-4,0-1.9,9.5-8.6,9.5c-3.2,0-5.4-2-5.4-4.9
		c0-6.1,7.2-8.1,14-8.1c9.3,0,16.1,5.3,17.2,13.6l1.6,11.8C121.4,48.8,124,47.7,124,49.7z M106.9,44.2l-0.3-3.2
		c-0.5-4.2-2-5.5-3.3-5.5c-1.4,0-2.3,1.6-2.3,3.9c0,4.9,1.2,9.2,3.5,9.2C106.2,48.6,107.1,46.1,106.9,44.2z"/>
	<path class="st0" d="M166.1,50.1v0.3c0,0.9-0.7,1.4-1.7,1.4h-15c-1,0-1.7-0.5-1.7-1.4v-0.3c0-2.1,2.7-3.1,2.5-6.5l-0.7-11.8
		c-0.3-6.3-1.1-8.5-3.8-8.5c-2.5,0-3.3,2.3-3.3,5.9v14.4c0,3.3,3.1,4.4,3.1,6.5v0.3c0,0.9-0.7,1.4-1.7,1.4h-16.4
		c-1,0-1.7-0.5-1.7-1.4v-0.3c0-2.1,3.1-3.1,3.1-6.5V32.1c0-3.3-3.8-4-3.8-6.1v-0.3c0-0.9,0.8-1.3,1.8-1.8l10.7-5.3
		c1.8-1,2.8,0.3,2.8,1.8v2.8c1.8-3.1,5.1-4.8,9.5-4.8c5.7,0,12.1,3,13,14l0.9,11.3C163.9,47,166.1,48,166.1,50.1z"/>
	<path class="st0" d="M209.9,50v0.3c0,0.9-0.7,1.4-1.7,1.4h-15.7c-1,0-1.7-0.6-1.7-1.5V50c0-2,2.5-2.7,1.4-4.4l-4.8-7.9l-2.9,2.7
		v3.2c0,3.3,3.1,4.4,3.1,6.5v0.3c0,0.9-0.7,1.4-1.7,1.4h-16.4c-1,0-1.7-0.5-1.7-1.4V50c0-2.1,2.8-3.1,2.8-6.5V14.3
		c0-3.3-3.5-4.4-3.5-6.2V7.9c0-0.8,0.7-1.2,1.7-1.7l12.3-5.7c2-1,3.3,0.2,3.3,1.6v31.8l8-6.7c2.2-1.8-1.8-4.2-1.8-6.3v-0.3
		c0-0.9,0.7-1.5,1.7-1.5H204c1,0,1.7,0.5,1.7,1.4v0.3c0,2.1-4,3.6-6.8,6.3l-3.4,3.2l10.4,15.3C206.9,47,209.9,47.9,209.9,50z"/>
	<path class="st0" d="M257.9,20.5v0.3c0,2.1-2.4,3.3-3.9,6.5l-12.8,27.5c-1.8,3.8-5.7,11.7-13,11.7c-7.1,0-11.5-4.1-11.5-8.4
		c0-3.2,2-5.4,5.5-5.4c7.3,0,5,9.8,7.8,9.8c2,0,4.3-4.4,5.9-8.3l-14-27c-1.7-3.3-4-4.4-4-6.5v-0.3c0-0.9,0.7-1.4,1.7-1.4h16.2
		c1,0,1.6,0.6,1.6,1.5v0.3c0,2-2.6,2.5-0.9,6.6l6.1,14.6l5.5-13.3c2-5-3.3-5.9-3.3-7.9v-0.3c0-0.9,0.7-1.5,1.7-1.5h9.7
		C257.2,19,257.9,19.6,257.9,20.5z"/>
	<path class="st0" d="M257.1,35.4c0-10.2,9.1-17,19-17c10,0,18.9,6.8,18.9,17c0,10.2-8.9,17-18.9,17
		C266.2,52.4,257.1,45.6,257.1,35.4z M280.9,41.6c0-3.6-2-19.5-7.1-19.5c-2.7,0-3.1,2.6-3.1,7.3c0,4.4,2,19.4,7,19.4
		C280.5,48.7,280.9,45.9,280.9,41.6z"/>
	<path class="st0" d="M336.4,49.7c0,2-3,2.5-7.8,2.5c-4.4,0-6.3-1-6.8-3.5c-1.7,2.5-4.8,3.8-9.3,3.8c-6.7,0-12.7-4.6-12.7-12.9V28.4
		c0-3.3-2.8-4.4-2.8-6.2v-0.3c0-0.8,0.7-1.6,1.7-1.7l11.3-1.5c2.3-0.3,3.6,0.2,3.6,1.6L313.3,41c-0.1,5,1,6.5,3.4,6.5
		c1.9,0,3.4-2.3,3.4-5.9V28.4c0-3.3-2.8-4.4-2.8-6.2v-0.3c0-0.8,0.7-1.6,1.7-1.7l11.3-1.5c2.3-0.3,3.3,0.2,3.3,1.6v23.5
		C333.7,49.5,336.4,46.7,336.4,49.7z"/>
	<path class="st0" d="M339.3,45.6c0-4.9,3.7-7.1,8-7.1s8,2.2,8,7.1s-3.7,7.1-8,7.1C343,52.7,339.3,50.5,339.3,45.6z M340.4,7.5
		c0-6.2,13.8-6.3,13.8-0.1c0,5.7-1,16.1-4.2,26.6c-0.5,1.8-4.8,1.7-5.3,0C341.7,23.5,340.4,12.7,340.4,7.5z"/>
</g>
</svg>
