<?xml version="1.0" encoding="utf-8"?>
<!-- Generator: Adobe Illustrator 22.1.0, SVG Export Plug-In . SVG Version: 6.00 Build 0)  -->
<svg version="1.1" id="Layer_1" xmlns="http://www.w3.org/2000/svg" xmlns:xlink="http://www.w3.org/1999/xlink" x="0px" y="0px"
	 viewBox="0 0 432.2 65.7" style="enable-background:new 0 0 432.2 65.7;" xml:space="preserve">
<style type="text/css">
	.st0{fill:#493B3A;}
</style>
<g>
	<path class="st0" d="M0,26.8C0,13.1,8.9,2.7,22.7,2.7c10.6,0,20.1,5.4,20.1,13.1c0,3.5-2.4,6.1-6.4,6.1C27,21.8,27,8.1,20,8.1
		c-3.3,0-6.5,3.5-6.5,10.2c0,13.2,7.2,21.6,14.6,21.6c5.9,0,8.5-3.9,10.5-6.1c1.4-1.6,4-1,4,1.3c0,8.7-5.9,17.4-19.2,17.4
		C9.3,52.3,0,40.1,0,26.8z"/>
	<path class="st0" d="M45.4,35.3c0-10.2,9.1-17,19-17c10,0,18.9,6.8,18.9,17c0,10.2-8.9,17-18.9,17C54.4,52.3,45.4,45.5,45.4,35.3z
		 M69.1,41.5c0-3.6-2-19.5-7.1-19.5c-2.7,0-3.1,2.6-3.1,7.3c0,4.4,2,19.4,7,19.4C68.7,48.6,69.1,45.8,69.1,41.5z"/>
	<path class="st0" d="M85.6,50.2v-0.3c0-2.1,2.8-3.1,2.8-6.5V14.3c0-3.3-2.8-4.4-2.8-6.2V7.8c0-0.8,0.7-1.2,1.7-1.7L99,0.4
		c2-1,3.3,0.2,3.3,1.6v41.5c0,3.3,3.1,4.4,3.1,6.5v0.3c0,0.9-0.7,1.4-1.7,1.4H87.3C86.3,51.6,85.6,51.1,85.6,50.2z"/>
	<path class="st0" d="M107.5,50.2v-0.3c0-2.1,2.8-3.1,2.8-6.5V14.3c0-3.3-2.8-4.4-2.8-6.2V7.8c0-0.8,0.7-1.2,1.7-1.7l11.6-5.7
		c2-1,3.3,0.2,3.3,1.6v41.5c0,3.3,3.1,4.4,3.1,6.5v0.3c0,0.9-0.7,1.4-1.7,1.4h-16.4C108.1,51.6,107.5,51.1,107.5,50.2z"/>
	<path class="st0" d="M160.5,41.6c0,3.7-4.8,10.7-13.8,10.7c-10.2,0-17.1-7-17.1-17.2c0-10.2,8-16.8,16.9-16.8
		c9.1,0,13.1,5,13.1,9.1c0,1.8-1,3.1-2.3,4l-12.3,8c1.7,2.2,4,3.4,6.8,3.4c2.4,0,4.9-1,6.1-2.2C158.8,39.6,160.5,40.1,160.5,41.6z
		 M141.7,27.5c0,3.1,0.4,5.8,1.2,8.1l4.4-3.2c1.1-0.8,1.8-2.2,1.8-3.7c0-1.9-0.5-6.7-3.8-6.7C143.1,22,141.7,24.6,141.7,27.5z"/>
	<path class="st0" d="M193.8,24.8c1.7,2.3,3,5,3,8.2c0,5.1-2.7,9.2-7.1,11.6c6.1,1.3,7.8,3.7,7.8,7c0,5.2-8.2,8.8-18.3,8.8
		c-9.5,0-16.1-2.4-16.1-8.5c0-2.4,1.6-5,5.2-5c6.7,0,6,9.9,10.9,10c3.1,0.1,4.7-2.1,4.7-5.2c0-2.5-0.5-4.3-1.6-4.9
		c-0.8,0.1-1.6,0.1-2.4,0.1c-9.9,0-17-5.5-17-13.8c0-8.8,7.1-14.7,17-14.7c4.2,0,7.8,0.7,13.2,0.7c5,0,5.8,0.6,5.8,2.4
		C198.8,24.3,195.9,24.1,193.8,24.8z M181.6,43.1c1.6,0,2.4-1.7,2.4-4.8c0-4.9-2.6-16.3-6.1-16.3c-1.5,0-2.4,1.6-2.4,4.8
		C175.5,33.2,178.4,43.1,181.6,43.1z"/>
	<path class="st0" d="M231.8,41.6c0,3.7-4.8,10.7-13.8,10.7c-10.2,0-17.1-7-17.1-17.2c0-10.2,8-16.8,16.9-16.8
		c9.1,0,13.1,5,13.1,9.1c0,1.8-1,3.1-2.3,4l-12.3,8c1.7,2.2,4,3.4,6.8,3.4c2.4,0,4.9-1,6.1-2.2C230.2,39.6,231.8,40.1,231.8,41.6z
		 M213.1,27.5c0,3.1,0.4,5.8,1.2,8.1l4.4-3.2c1.1-0.8,1.8-2.2,1.8-3.7c0-1.9-0.5-6.7-3.8-6.7C214.5,22,213.1,24.6,213.1,27.5z"/>
	<path class="st0" d="M247.1,26.8c0-13.7,8.8-24.1,22.7-24.1c10.6,0,20.1,5.4,20.1,13.1c0,3.5-2.4,6.1-6.4,6.1
		c-9.4,0-9.3-13.8-16.4-13.8c-3.3,0-6.5,3.5-6.5,10.2c0,13.2,7.2,21.6,14.6,21.6c5.9,0,8.5-3.9,10.5-6.1c1.4-1.6,4-1,4,1.3
		c0,8.7-5.9,17.4-19.2,17.4C256.5,52.3,247.1,40.1,247.1,26.8z"/>
	<path class="st0" d="M329.6,49.6c0,2-4.5,2.5-8.5,2.5c-4.4,0-6.4-0.8-7-3c-1.4,1.8-4,3.3-8.4,3.3c-7.2,0-12.9-3.3-12.9-10.3
		c0-7,5.9-10.5,12.2-10.5c2.7,0,4.8,0.5,6.5,1.5c-0.8-7.9-0.9-11.2-4-11.2c-4,0-1.9,9.5-8.7,9.5c-3.2,0-5.4-2-5.4-4.9
		c0-6.1,7.2-8.1,14-8.1c9.3,0,16.1,5.3,17.2,13.6l1.6,11.8C327,48.7,329.6,47.6,329.6,49.6z M312.5,44.1l-0.3-3.2
		c-0.5-4.2-2-5.5-3.3-5.5c-1.4,0-2.3,1.6-2.3,3.9c0,4.9,1.2,9.2,3.5,9.2C311.8,48.5,312.7,46,312.5,44.1z"/>
	<path class="st0" d="M392,50v0.3c0,0.9-0.7,1.4-1.7,1.4h-15c-1,0-1.7-0.5-1.7-1.4V50c0-2.1,2.7-3.1,2.5-6.5l-0.7-11.8
		c-0.3-6.3-1.3-8.5-3.7-8.5c-2.3,0-3.2,2.5-3.2,5.8c0.1,0.9,0.2,1.8,0.2,2.8v11.7c0,3.3,2.5,4.4,2.5,6.5v0.3c0,0.9-0.7,1.4-1.7,1.4
		h-15c-1,0-1.7-0.5-1.7-1.4V50c0-2.1,2.5-3.1,2.5-6.5V30.9c0-5.3-1.3-7.6-3.7-7.6c-2.7,0-3.5,2.4-3.5,5.7v14.6
		c0,3.3,3.1,4.4,3.1,6.5v0.3c0,0.9-0.7,1.4-1.7,1.4h-16.4c-1,0-1.7-0.5-1.7-1.4V50c0-2.1,3.1-3.1,3.1-6.5V32c0-3.3-3.8-4-3.8-6.1
		v-0.3c0-0.9,0.8-1.4,1.8-1.8l11.5-5.3c1.8-0.9,2.8,0.3,2.8,1.8v1.8c2-2.4,5-3.9,8.7-3.9c4.6,0,8.7,1.7,11,5.2
		c1.9-3.3,5.5-5.2,9.9-5.2c5.6,0,11.6,3,12.5,14l0.9,11.3C389.8,46.9,392,47.9,392,50z"/>
	<path class="st0" d="M432.2,34.8c0,10.9-7.8,17.6-16.1,17.6c-2.5,0-4.5-0.5-6.1-1.4v6.7c0,3.3,3.1,4.4,3.1,6.5v0.3
		c0,0.9-0.7,1.4-1.7,1.4h-16c-1,0-1.7-0.5-1.7-1.4V64c0-2.1,2.8-3.1,2.8-6.5V31.9c0-3.1-3.5-3.5-3.5-5.7v-0.4c0-0.9,0.7-1.6,1.7-2.1
		l10.1-5c2.3-1.1,3.1,0,3.1,1.4v1.4c1.6-2.1,4.5-3.3,8.2-3.3C423.5,18.3,432.2,23.3,432.2,34.8z M418.7,41.6
		c0-6.4-1.2-19.7-5.9-19.7c-1.9,0-2.9,1.8-2.9,4.5V39c0,6.1,2.5,9.7,5,9.7C417.5,48.7,418.7,46.3,418.7,41.6z"/>
</g>
</svg>
