<?xml version="1.0" encoding="utf-8"?>
<!-- Generator: Adobe Illustrator 22.1.0, SVG Export Plug-In . SVG Version: 6.00 Build 0)  -->
<svg version="1.1" id="Layer_1" xmlns="http://www.w3.org/2000/svg" xmlns:xlink="http://www.w3.org/1999/xlink" x="0px" y="0px"
	 viewBox="0 0 589.5 65.8" style="enable-background:new 0 0 589.5 65.8;" xml:space="preserve">
<style type="text/css">
	.st0{fill:#493B3A;}
</style>
<g>
	<path class="st0" d="M0,50.3V50c0-2.1,2.8-3.1,2.8-6.5v-32C2.8,8.2,0,7.2,0,5.1V4.8c0-0.9,0.7-1.4,1.7-1.4h16.5
		c1,0,1.7,0.5,1.7,1.4v0.3c0,2.1-3.1,3.1-3.1,6.5v12.9h15.5l0.1-12.9c0-3.3-2.7-4.4-2.7-6.5V4.8c0-0.9,0.6-1.4,1.6-1.4H48
		c1,0,1.7,0.5,1.7,1.4v0.3c0,2.1-3.1,3.1-3.1,6.5v32c0,3.3,3.1,4.4,3.1,6.5v0.3c0,0.9-0.7,1.4-1.7,1.4H31.4c-1,0-1.6-0.5-1.6-1.4V50
		c0-2.1,2.7-3.1,2.7-6.5l-0.1-13.2H16.9l-0.1,13.2c0,3.3,3.1,4.4,3.1,6.5v0.3c0,0.9-0.7,1.4-1.7,1.4H1.7C0.7,51.7,0,51.2,0,50.3z"/>
	<path class="st0" d="M53.3,50.3V50c0-2.1,2.8-3.1,2.8-6.5v-11c0-3.3-2.8-4.4-2.8-6.2v-0.3c0-0.8,0.7-1.2,1.7-1.7l11.6-5.7
		c2-1,3.3,0.2,3.3,1.6v23.3c0,3.3,3.1,4.4,3.1,6.5v0.3c0,0.9-0.7,1.4-1.7,1.4H55C53.9,51.7,53.3,51.2,53.3,50.3z M54.5,8.1
		c0-4.2,3.5-7.5,8.6-7.5s8.6,3.3,8.6,7.5c0,4.2-3.5,7.6-8.6,7.6S54.5,12.4,54.5,8.1z"/>
	<path class="st0" d="M106.3,24.9c1.7,2.3,3,5,3,8.2c0,5.1-2.7,9.2-7.1,11.6c6.1,1.3,7.8,3.7,7.8,7c0,5.2-8.2,8.8-18.3,8.8
		c-9.5,0-16.1-2.4-16.1-8.5c0-2.4,1.6-5,5.2-5c6.7,0,6,9.9,10.9,10c3.1,0.1,4.7-2.1,4.7-5.2c0-2.5-0.5-4.3-1.6-4.9
		c-0.8,0.1-1.6,0.1-2.4,0.1c-9.9,0-17-5.5-17-13.8c0-8.8,7.1-14.7,17-14.7c4.2,0,7.8,0.7,13.2,0.7c5,0,5.8,0.6,5.8,2.4
		C111.4,24.4,108.5,24.1,106.3,24.9z M94.2,43.1c1.6,0,2.4-1.7,2.4-4.8c0-4.9-2.6-16.3-6.1-16.3c-1.5,0-2.4,1.6-2.4,4.8
		C88.1,33.3,90.9,43.1,94.2,43.1z"/>
	<path class="st0" d="M153.6,50v0.3c0,0.9-0.7,1.4-1.7,1.4h-15c-1,0-1.7-0.5-1.7-1.4V50c0-2.1,2.7-3.1,2.5-6.5l-0.7-12.4
		c-0.3-5.7-1.1-7.8-3.8-7.8c-2.5,0-3.3,2.3-3.3,5.9v14.4c0,3.3,3.1,4.4,3.1,6.5v0.3c0,0.9-0.7,1.4-1.7,1.4h-16.4
		c-1,0-1.7-0.5-1.7-1.4V50c0-2.1,3.1-3.1,3.1-6.5V13.8c0-3.3-3.5-3.7-3.5-5.8V7.7c0-0.9,0.7-1.6,1.7-2.1l12.1-5.3
		c1.7-0.8,2.8-0.2,2.8,1.5V21c1.9-1.7,4.6-2.7,7.8-2.7c5.7,0,12.1,3,12.9,13.3l1,11.9C151.4,46.9,153.6,47.9,153.6,50z"/>
	<path class="st0" d="M168.8,39.9c0-3.3,1.6-5.5,5.5-5.5c7.8,0,6.8,12.9,16.1,12.9c3.3,0,5.3-1.7,5.3-4.6c0-12.3-26.1-5.2-26.2-24.9
		c0-9.1,7.6-15.1,18.9-15.1c11.1,0,20.1,5.9,20,12.5c0,3.3-1.9,5.6-5.8,5.6c-9.1,0-7.2-13.1-14.5-13.1c-3.6,0-5.2,2.2-5.2,5.1
		c0,14.5,26,6.7,26,25.3c0,9.2-8.8,14.3-19.1,14.3C177.6,52.4,168.8,46.5,168.8,39.9z"/>
	<path class="st0" d="M211.9,35.4c0-10.8,8.1-17,17.3-17c8.2-0.1,14.8,3.8,14.8,10.6c0,2.2-1.4,4.5-5.6,4.3
		c-7.7-0.5-7-11.3-11.2-11.2c-2.2,0.1-3.5,2.9-3.5,6.5c0,8.7,4.2,14.4,10.6,14.4c3.6,0,5.7-1.8,7.1-3.3c1-1.1,2.7-0.7,2.7,0.9
		c0,6.1-4.7,11.9-14.4,11.9C218.7,52.4,211.9,44,211.9,35.4z"/>
	<path class="st0" d="M286.8,50v0.3c0,0.9-0.7,1.4-1.7,1.4h-15c-1,0-1.7-0.5-1.7-1.4V50c0-2.1,2.7-3.1,2.5-6.5l-0.7-12.4
		c-0.3-5.7-1.1-7.8-3.8-7.8c-2.5,0-3.3,2.3-3.3,5.9v14.4c0,3.3,3.1,4.4,3.1,6.5v0.3c0,0.9-0.7,1.4-1.7,1.4H248c-1,0-1.7-0.5-1.7-1.4
		V50c0-2.1,3.1-3.1,3.1-6.5V13.8c0-3.3-3.5-3.7-3.5-5.8V7.7c0-0.9,0.7-1.6,1.7-2.1l12.1-5.3c1.7-0.8,2.8-0.2,2.8,1.5V21
		c1.9-1.7,4.6-2.7,7.8-2.7c5.7,0,12.1,3,12.9,13.3l1,11.9C284.6,46.9,286.8,47.9,286.8,50z"/>
	<path class="st0" d="M288.6,35.4c0-10.2,9.1-17,19-17c10,0,18.9,6.8,18.9,17c0,10.2-8.9,17-18.9,17
		C297.7,52.4,288.6,45.6,288.6,35.4z M312.4,41.6c0-3.6-2-19.5-7.1-19.5c-2.7,0-3.1,2.6-3.1,7.3c0,4.4,2,19.4,7,19.4
		C312,48.7,312.4,45.9,312.4,41.6z"/>
	<path class="st0" d="M329,35.4c0-10.2,9.1-17,19-17c10,0,18.9,6.8,18.9,17c0,10.2-8.9,17-18.9,17C338.1,52.4,329,45.6,329,35.4z
		 M352.8,41.6c0-3.6-2-19.5-7.1-19.5c-2.7,0-3.1,2.6-3.1,7.3c0,4.4,2,19.4,7,19.4C352.4,48.7,352.8,45.9,352.8,41.6z"/>
	<path class="st0" d="M369.3,50.3V50c0-2.1,2.8-3.1,2.8-6.5V14.3c0-3.3-2.8-4.4-2.8-6.2V7.9c0-0.8,0.7-1.2,1.7-1.7l11.7-5.7
		c2-1,3.3,0.2,3.3,1.6v41.5c0,3.3,3.1,4.4,3.1,6.5v0.3c0,0.9-0.7,1.4-1.7,1.4H371C369.9,51.7,369.3,51.2,369.3,50.3z"/>
	<path class="st0" d="M404.4,26.9c0-13.7,8.8-24.1,22.7-24.1c10.6,0,20.1,5.4,20.1,13.1c0,3.5-2.4,6.1-6.4,6.1
		c-9.4,0-9.3-13.8-16.4-13.8c-3.3,0-6.5,3.5-6.5,10.2c0,13.2,7.2,21.6,14.6,21.6c5.9,0,8.5-3.9,10.5-6.1c1.4-1.6,4-1,4,1.3
		c0,8.7-5.9,17.4-19.2,17.4C413.8,52.4,404.4,40.2,404.4,26.9z"/>
	<path class="st0" d="M486.9,49.7c0,2-4.5,2.5-8.5,2.5c-4.4,0-6.4-0.8-7-3c-1.4,1.8-4,3.3-8.4,3.3c-7.2,0-12.9-3.3-12.9-10.3
		c0-7,5.9-10.5,12.2-10.5c2.7,0,4.8,0.5,6.5,1.5c-0.8-7.9-0.9-11.2-4-11.2c-4,0-1.9,9.5-8.7,9.5c-3.2,0-5.4-2-5.4-4.9
		c0-6.1,7.2-8.1,14-8.1c9.3,0,16.1,5.3,17.2,13.6l1.6,11.8C484.2,48.8,486.9,47.7,486.9,49.7z M469.8,44.2l-0.3-3.2
		c-0.5-4.2-2-5.5-3.3-5.5c-1.4,0-2.3,1.6-2.3,3.9c0,4.9,1.2,9.2,3.5,9.2C469.1,48.6,469.9,46.1,469.8,44.2z"/>
	<path class="st0" d="M549.3,50.1v0.3c0,0.9-0.7,1.4-1.7,1.4h-15c-1,0-1.7-0.5-1.7-1.4v-0.3c0-2.1,2.7-3.1,2.5-6.5l-0.7-11.8
		c-0.3-6.3-1.3-8.5-3.7-8.5c-2.3,0-3.2,2.5-3.2,5.8c0.1,0.9,0.2,1.8,0.2,2.8v11.7c0,3.3,2.4,4.4,2.4,6.5v0.3c0,0.9-0.7,1.4-1.7,1.4
		h-15.1c-1,0-1.7-0.5-1.7-1.4v-0.3c0-2.1,2.4-3.1,2.4-6.5V31c0-5.3-1.3-7.6-3.7-7.6c-2.7,0-3.5,2.4-3.5,5.7v14.6
		c0,3.3,3.1,4.4,3.1,6.5v0.3c0,0.9-0.7,1.4-1.7,1.4h-16.4c-1,0-1.7-0.5-1.7-1.4v-0.3c0-2.1,3.1-3.1,3.1-6.5V32.1
		c0-3.3-3.8-4-3.8-6.1v-0.3c0-0.9,0.8-1.4,1.8-1.8l11.5-5.3c1.8-0.9,2.8,0.3,2.8,1.8v1.8c2-2.4,5-3.9,8.7-3.9c4.6,0,8.7,1.7,11,5.2
		c1.9-3.3,5.5-5.2,9.9-5.2c5.6,0,11.6,3,12.5,14l0.9,11.3C547.1,47,549.3,48,549.3,50.1z"/>
	<path class="st0" d="M589.5,34.8c0,10.9-7.8,17.6-16.1,17.6c-2.5,0-4.5-0.5-6.1-1.4v6.7c0,3.3,3.1,4.4,3.1,6.5v0.3
		c0,0.9-0.7,1.4-1.7,1.4h-16c-1,0-1.7-0.5-1.7-1.4v-0.3c0-2.1,2.8-3.1,2.8-6.5V32c0-3.1-3.5-3.5-3.5-5.7v-0.4c0-0.9,0.7-1.6,1.7-2.1
		l10.1-5c2.3-1.1,3.1,0,3.1,1.4v1.4c1.6-2.1,4.5-3.3,8.2-3.3C580.8,18.4,589.5,23.4,589.5,34.8z M576,41.7c0-6.4-1.2-19.8-5.9-19.8
		c-1.9,0-2.9,1.8-2.9,4.5v12.7c0,6.1,2.4,9.7,5,9.7C574.8,48.8,576,46.4,576,41.7z"/>
</g>
</svg>
