<?xml version="1.0" encoding="utf-8"?>
<!-- Generator: Adobe Illustrator 22.1.0, SVG Export Plug-In . SVG Version: 6.00 Build 0)  -->
<svg version="1.1" id="Layer_1" xmlns="http://www.w3.org/2000/svg" xmlns:xlink="http://www.w3.org/1999/xlink" x="0px" y="0px"
	 viewBox="0 0 704.2 66.3" style="enable-background:new 0 0 704.2 66.3;" xml:space="preserve">
<style type="text/css">
	.st0{fill:#493B3A;}
</style>
<g>
	<path class="st0" d="M11.6,50.2v-0.3c0-2.1,3-3.1,3-6.5V9h-2c-4.9,0-5.8,8.4-9.3,8.4H1.9c-1.3,0-2.1-0.8-1.9-2.1l1.4-9.8
		c0.2-1.6,0.9-2.3,2.5-2.3h35.3c1.6,0,2.3,0.6,2.5,2.3l1.4,9.8c0.2,1.3-0.6,2.1-1.9,2.1h-1.3c-3.5,0-4.4-8.4-9.3-8.4h-2v34.5
		c0,3.3,3.1,4.4,3.1,6.5v0.3c0,0.9-0.7,1.4-1.7,1.4H13.2C12.2,51.6,11.6,51.1,11.6,50.2z"/>
	<path class="st0" d="M68.4,41.6c0,3.7-4.8,10.7-13.8,10.7c-10.1,0-17.1-7-17.1-17.2c0-10.2,8-16.8,16.9-16.8c9.1,0,13.1,5,13.1,9.1
		c0,1.8-1,3.1-2.3,4l-12.3,8c1.7,2.2,4,3.4,6.8,3.4c2.4,0,4.9-1,6.1-2.2C66.8,39.6,68.4,40.1,68.4,41.6z M49.7,27.5
		c0,3.1,0.4,5.8,1.2,8.1l4.4-3.2c1.1-0.8,1.8-2.2,1.8-3.7c0-1.9-0.5-6.7-3.8-6.7C51,22,49.7,24.6,49.7,27.5z"/>
	<path class="st0" d="M70.4,50.2v-0.3c0-2.1,2.8-3.1,2.8-6.5V14.3c0-3.3-2.8-4.4-2.8-6.2V7.8c0-0.8,0.7-1.2,1.7-1.7l11.6-5.7
		c2-1,3.3,0.2,3.3,1.6v41.5c0,3.3,3.1,4.4,3.1,6.5v0.3c0,0.9-0.7,1.4-1.7,1.4H72.1C71.1,51.6,70.4,51.1,70.4,50.2z"/>
	<path class="st0" d="M92.3,50.2v-0.3c0-2.1,2.8-3.1,2.8-6.5V14.3c0-3.3-2.8-4.4-2.8-6.2V7.8C92.3,7,93,6.6,94,6.1l11.6-5.7
		c2-1,3.3,0.2,3.3,1.6v41.5c0,3.3,3.1,4.4,3.1,6.5v0.3c0,0.9-0.7,1.4-1.7,1.4H94C93,51.6,92.3,51.1,92.3,50.2z"/>
	<path class="st0" d="M166,49.6c0,2-3,2.5-7.8,2.5c-4.4,0-6.3-1-6.8-3.5c-1.7,2.5-4.8,3.8-9.3,3.8c-6.7,0-12.7-4.6-12.7-12.9V28.3
		c0-3.3-2.8-4.4-2.8-6.2v-0.3c0-0.8,0.7-1.6,1.7-1.7l11.3-1.5c2.3-0.3,3.6,0.2,3.6,1.6l-0.3,20.7c-0.1,5,1,6.5,3.4,6.5
		c1.9,0,3.4-2.3,3.4-5.9V28.3c0-3.3-2.8-4.4-2.8-6.2v-0.3c0-0.8,0.7-1.6,1.7-1.7l11.3-1.5c2.3-0.3,3.3,0.2,3.3,1.6v23.5
		C163.3,49.4,166,46.6,166,49.6z"/>
	<path class="st0" d="M168.4,44.2c0-3.4,2.4-4.8,5.4-4.8c7.6,0,5.2,9.6,9.9,9.6c1.4,0,2.7-0.8,2.7-3.1c0-8.8-17.4-4-17.4-17
		c0-6.3,6-10.6,14.8-10.6c8.7,0,14.6,3.5,14.6,8.2c0,2.6-2.3,4.6-5.2,4.6c-7.3,0-5-9.5-8.7-9.5c-1.6,0-2.2,1.7-2.2,3.3
		c0,9.4,16.5,4.9,16.5,17c0,5.8-5.4,10.2-15.1,10.2C175.3,52.3,168.4,49.4,168.4,44.2z"/>
	<path class="st0" d="M251.5,49.6c0,2-4.5,2.5-8.5,2.5c-4.4,0-6.4-0.8-7-3c-1.4,1.8-4,3.3-8.4,3.3c-7.2,0-12.9-3.3-12.9-10.3
		c0-7,5.9-10.5,12.2-10.5c2.7,0,4.8,0.5,6.5,1.5c-0.8-7.9-0.9-11.2-4-11.2c-4,0-1.9,9.5-8.7,9.5c-3.2,0-5.4-2-5.4-4.9
		c0-6.1,7.2-8.1,14-8.1c9.3,0,16.1,5.3,17.2,13.6l1.6,11.8C248.8,48.7,251.5,47.6,251.5,49.6z M234.4,44.1l-0.3-3.2
		c-0.5-4.2-2-5.5-3.3-5.5c-1.4,0-2.3,1.6-2.3,3.9c0,4.9,1.2,9.2,3.5,9.2C233.6,48.5,234.5,46,234.4,44.1z"/>
	<path class="st0" d="M291.5,34.7c0,10.9-7.8,17.6-16.1,17.6c-3.3,0-5.8-0.9-7.7-2.6c0,1.4-0.6,1.9-2,1.9h-11.4
		c-1,0-1.7-0.5-1.7-1.4v-0.3c0-2.1,2.8-3.1,2.8-6.5V14.4c0-3.3-3.5-4-3.5-6.1V8c0-0.9,0.4-1.4,2-2.1l11.8-5.5
		c1.8-0.9,3.5-0.4,3.5,1.7v17.6c1.6-1,3.7-1.5,6.1-1.5C282.9,18.3,291.5,23.4,291.5,34.7z M278,41.6c0-6.4-1.2-19.7-5.9-19.7
		c-1.9,0-2.9,1.8-2.9,5.4v13.8c0,3.9,2.5,7.6,5,7.6C276.9,48.7,278,46.3,278,41.6z"/>
	<path class="st0" d="M294,35.3c0-10.2,9.1-17,19-17c10,0,18.9,6.8,18.9,17c0,10.2-8.9,17-18.9,17C303.1,52.3,294,45.5,294,35.3z
		 M317.8,41.5c0-3.6-2-19.5-7.1-19.5c-2.7,0-3.1,2.6-3.1,7.3c0,4.4,2,19.4,7,19.4C317.4,48.6,317.8,45.8,317.8,41.5z"/>
	<path class="st0" d="M373.3,49.6c0,2-3,2.5-7.8,2.5c-4.4,0-6.3-1-6.8-3.5c-1.7,2.5-4.8,3.8-9.3,3.8c-6.7,0-12.7-4.6-12.7-12.9V28.3
		c0-3.3-2.8-4.4-2.8-6.2v-0.3c0-0.8,0.7-1.6,1.7-1.7l11.3-1.5c2.3-0.3,3.6,0.2,3.6,1.6l-0.3,20.7c-0.1,5,1,6.5,3.4,6.5
		c1.9,0,3.4-2.3,3.4-5.9V28.3c0-3.3-2.8-4.4-2.8-6.2v-0.3c0-0.8,0.7-1.6,1.7-1.7l11.3-1.5c2.3-0.3,3.3,0.2,3.3,1.6v23.5
		C370.6,49.4,373.3,46.6,373.3,49.6z"/>
	<path class="st0" d="M378.8,39.1v-15h-2c-1,0-1.7-0.8-1.7-1.7v-1.7c0-1,0.7-1.7,1.7-1.7h1c4.4,0,8.1-2.8,9.1-7
		c0.3-1.2,1.1-1.9,2-1.9h1.8c1.2,0,2,0.8,2,1.9v7h6.4c1,0,1.7,0.8,1.7,1.7v1.7c0,1-0.8,1.7-1.7,1.7h-6.4v15.3c0,1.9,1.2,3.1,2.8,3.1
		c2.5,0,3.5-1.2,4.3-2.2c1.1-1.2,2.7-0.8,2.7,0.6c0,5.5-4,11.4-12,11.4C383.4,52.3,378.8,47.7,378.8,39.1z"/>
	<path class="st0" d="M453.2,20.4v0.3c0,2.1-2.5,3.3-3.9,6.5l-12.8,27.5c-1.8,3.8-5.7,11.7-13,11.7c-7.1,0-11.5-4.1-11.5-8.4
		c0-3.2,2-5.4,5.5-5.4c7.3,0,5,9.8,7.8,9.8c2,0,4.3-4.4,5.9-8.3l-14-27c-1.7-3.3-4-4.4-4-6.5v-0.3c0-0.9,0.7-1.4,1.7-1.4h16.2
		c1,0,1.6,0.6,1.6,1.5v0.3c0,2-2.6,2.5-0.9,6.6l6.1,14.6l5.5-13.3c2-5-3.3-5.9-3.3-7.9v-0.3c0-0.9,0.7-1.5,1.7-1.5h9.7
		C452.5,19,453.2,19.5,453.2,20.4z"/>
	<path class="st0" d="M452.4,35.3c0-10.2,9.1-17,19-17c10,0,18.9,6.8,18.9,17c0,10.2-8.9,17-18.9,17
		C461.5,52.3,452.4,45.5,452.4,35.3z M476.2,41.5c0-3.6-2-19.5-7.1-19.5c-2.7,0-3.1,2.6-3.1,7.3c0,4.4,2,19.4,7,19.4
		C475.8,48.6,476.2,45.8,476.2,41.5z"/>
	<path class="st0" d="M531.7,49.6c0,2-3,2.5-7.8,2.5c-4.4,0-6.3-1-6.8-3.5c-1.7,2.5-4.8,3.8-9.3,3.8c-6.7,0-12.7-4.6-12.7-12.9V28.3
		c0-3.3-2.8-4.4-2.8-6.2v-0.3c0-0.8,0.7-1.6,1.7-1.7l11.3-1.5c2.3-0.3,3.6,0.2,3.6,1.6l-0.3,20.7c-0.1,5,1,6.5,3.4,6.5
		c1.9,0,3.4-2.3,3.4-5.9V28.3c0-3.3-2.8-4.4-2.8-6.2v-0.3c0-0.8,0.7-1.6,1.7-1.7l11.3-1.5c2.3-0.3,3.3,0.2,3.3,1.6v23.5
		C529,49.4,531.7,46.6,531.7,49.6z"/>
	<path class="st0" d="M565,25.4c0,3.8-1.4,7.2-5.9,7.2c-7,0-3.9-6.8-7.1-6.8c-1.4,0-1.6,2.1-1.6,4.2v13.4c0,3.3,3.8,4.4,3.8,6.5v0.3
		c0,0.9-0.7,1.4-1.7,1.4h-16.3c-1,0-1.7-0.5-1.7-1.4v-0.3c0-2.1,2.8-3.1,2.8-6.5V31.8c0-3.3-3.5-3.7-3.5-5.8v-0.3
		c0-0.9,0.6-1.6,1.7-2.1l10.8-5.1c1.9-0.9,2.6,0.2,2.6,1.6v5c1.4-4.4,4.6-6.9,9.6-6.9C562.6,18.3,565,21.3,565,25.4z"/>
	<path class="st0" d="M566.1,44.2c0-3.4,2.4-4.8,5.4-4.8c7.6,0,5.2,9.6,9.9,9.6c1.4,0,2.7-0.8,2.7-3.1c0-8.8-17.4-4-17.4-17
		c0-6.3,6-10.6,14.8-10.6c8.7,0,14.6,3.5,14.6,8.2c0,2.6-2.3,4.6-5.2,4.6c-7.3,0-5-9.5-8.7-9.5c-1.6,0-2.2,1.7-2.2,3.3
		c0,9.4,16.5,4.9,16.5,17c0,5.8-5.4,10.2-15.1,10.2C572.9,52.3,566.1,49.4,566.1,44.2z"/>
	<path class="st0" d="M630.2,41.6c0,3.7-4.8,10.7-13.8,10.7c-10.2,0-17.1-7-17.1-17.2c0-10.2,8-16.8,16.9-16.8
		c9.1,0,13.1,5,13.1,9.1c0,1.8-1,3.1-2.3,4l-12.3,8c1.7,2.2,4,3.4,6.8,3.4c2.4,0,4.9-1,6.1-2.2C628.6,39.6,630.2,40.1,630.2,41.6z
		 M611.5,27.5c0,3.1,0.4,5.8,1.2,8.1l4.4-3.2c1.1-0.8,1.8-2.2,1.8-3.7c0-1.9-0.5-6.7-3.8-6.7C612.8,22,611.5,24.6,611.5,27.5z"/>
	<path class="st0" d="M632.3,50.2v-0.3c0-2.1,2.8-3.1,2.8-6.5V14.3c0-3.3-2.8-4.4-2.8-6.2V7.8c0-0.8,0.7-1.2,1.7-1.7l11.7-5.7
		c2-1,3.3,0.2,3.3,1.6v41.5c0,3.3,3.1,4.4,3.1,6.5v0.3c0,0.9-0.7,1.4-1.7,1.4H634C632.9,51.6,632.3,51.1,632.3,50.2z"/>
	<path class="st0" d="M671.8,19h7.3c0.9,0,1.7,0.8,1.7,1.7v1.7c0,1-0.8,1.7-1.7,1.7h-6.9v19.4c0,3.3,3.8,4.4,3.8,6.5v0.3
		c0,0.9-0.7,1.4-1.7,1.4h-16.4c-1,0-1.7-0.5-1.7-1.4v-0.3c0-2.1,2.8-3.1,2.8-6.5V24.1h-4.2c-0.9,0-1.7-0.8-1.7-1.7v-1.7
		c0-1,0.8-1.7,1.7-1.7h4.2v-2.7c0-7.8,4.3-14.3,14.8-14.3c6.4,0,11.4,4.3,11.4,9.2c0,2-1.6,4.6-5,4.6c-8.5,0-4.8-10.1-9.3-10.1
		C665.9,5.5,669.9,17,671.8,19z"/>
	<path class="st0" d="M688.2,45.5c0-4.9,3.7-7.1,8-7.1c4.3,0,8,2.2,8,7.1s-3.7,7.1-8,7.1C691.9,52.6,688.2,50.4,688.2,45.5z
		 M689.3,7.4c0-6.2,13.8-6.3,13.8-0.1c0,5.7-0.9,16.1-4.2,26.6c-0.5,1.8-4.8,1.7-5.3,0C690.6,23.5,689.3,12.6,689.3,7.4z"/>
</g>
</svg>
